<?xml version="1.0" encoding="utf-8"?>
<!-- Generator: Adobe Illustrator 26.3.1, SVG Export Plug-In . SVG Version: 6.00 Build 0)  -->
<svg version="1.1" id="Layer_1" xmlns="http://www.w3.org/2000/svg" xmlns:xlink="http://www.w3.org/1999/xlink" x="0px" y="0px"
	 viewBox="0 0 562.6 360" style="enable-background:new 0 0 562.6 360;" xml:space="preserve">
<style type="text/css">
	.st0{fill:#E8E8E8;}
	.st1{fill:none;}
	.st2{clip-path:url(#SVGID_00000012461991836011981860000009398231700574123667_);}
	.st3{fill:#FFFFFF;stroke:#FFFFFF;stroke-width:1.07;stroke-linecap:round;stroke-linejoin:round;stroke-miterlimit:10;}
	.st4{clip-path:url(#SVGID_00000138534646076844000350000007944580323907248810_);}
	.st5{fill:none;stroke:#EBEBEB;stroke-width:0.53;stroke-linejoin:round;stroke-miterlimit:10;}
	.st6{fill:none;stroke:#EBEBEB;stroke-width:1.07;stroke-linejoin:round;stroke-miterlimit:10;}
	.st7{fill:none;stroke:#008B00;stroke-width:3.2;stroke-linejoin:round;stroke-miterlimit:10;}
	.st8{fill:none;stroke:#008B00;stroke-width:3.2;stroke-linejoin:round;stroke-miterlimit:10;stroke-dasharray:4.27,12.8;}
	.st9{fill:none;stroke:#BA55D3;stroke-width:3.2;stroke-linejoin:round;stroke-miterlimit:10;}
	.st10{fill:none;stroke:#BA55D3;stroke-width:3.2;stroke-linejoin:round;stroke-miterlimit:10;stroke-dasharray:4.27,12.8;}
	.st11{clip-path:url(#SVGID_00000093143116470207007600000004489138833609229740_);}
	.st12{fill:#4D4D4D;}
	.st13{font-family:'ArialMT';}
	.st14{font-size:10px;}
	.st15{enable-background:new    ;}
	.st16{font-size:12px;}
	.st17{font-size:13px;}
	.st18{clip-path:url(#SVGID_00000123434809535928307920000015312638312887137722_);}
	.st19{clip-path:url(#SVGID_00000045606637565552764410000003041856704634693786_);}
	.st20{clip-path:url(#SVGID_00000057117736085807019970000007393052374331786676_);}
	.st21{clip-path:url(#SVGID_00000109712616320842093280000008301374015460811711_);}
	.st22{clip-path:url(#SVGID_00000181070252098754773480000011537242343613981854_);}
	.st23{clip-path:url(#SVGID_00000112620800293343796770000003517809604645623174_);}
	.st24{clip-path:url(#SVGID_00000100374119770388895690000010495386212443658903_);}
	.st25{fill:none;stroke:#000000;stroke-width:2.13;stroke-linejoin:round;stroke-miterlimit:10;}
	.st26{fill:none;stroke:#000000;stroke-width:2.13;stroke-linejoin:round;stroke-miterlimit:10;stroke-dasharray:5.69,5.69;}
	.st27{clip-path:url(#SVGID_00000121250586866623528060000007942999016420268419_);}
	.st28{font-size:8px;}
	.st29{font-size:9px;}
	.st30{clip-path:url(#SVGID_00000075161227543237139540000015247587147996701320_);}
	.st31{fill:none;stroke:#BA55D3;stroke-width:2.13;stroke-linejoin:round;stroke-miterlimit:10;}
	.st32{fill:none;stroke:#008B00;stroke-width:2.13;stroke-linejoin:round;stroke-miterlimit:10;}
	.st33{clip-path:url(#SVGID_00000181061838785789014100000004325725058000620190_);}
	.st34{font-family:'Arial-BoldMT';}
</style>
<rect x="367.1" y="47.1" class="st0" width="179.4" height="266.9"/>
<rect class="st1" width="360" height="360"/>
<g>
	<defs>
		<rect id="SVGID_1_" width="360" height="360"/>
	</defs>
	<clipPath id="SVGID_00000016778136156199998810000004805418663597353134_">
		<use xlink:href="#SVGID_1_"  style="overflow:visible;"/>
	</clipPath>
	<g style="clip-path:url(#SVGID_00000016778136156199998810000004805418663597353134_);">
		<rect class="st3" width="360" height="360"/>
	</g>
</g>
<g>
	<defs>
		<rect id="SVGID_00000044873238333496966940000008221594373029382036_" x="49.2" y="28.5" width="299.8" height="292.5"/>
	</defs>
	<clipPath id="SVGID_00000144312646748393619390000004231247522393520560_">
		<use xlink:href="#SVGID_00000044873238333496966940000008221594373029382036_"  style="overflow:visible;"/>
	</clipPath>
</g>
<g>
	<defs>
		<rect id="SVGID_00000009552418667023537190000000339823728515220405_" width="360" height="360"/>
	</defs>
	<clipPath id="SVGID_00000016789908224920841600000005662120294207747514_">
		<use xlink:href="#SVGID_00000009552418667023537190000000339823728515220405_"  style="overflow:visible;"/>
	</clipPath>
</g>
<g>
	<defs>
		<rect id="SVGID_00000139295642382039742340000012634201007692505237_" x="5.5" y="5.5" width="174.5" height="174.5"/>
	</defs>
	<clipPath id="SVGID_00000045618481949132701360000018152373226719061913_">
		<use xlink:href="#SVGID_00000139295642382039742340000012634201007692505237_"  style="overflow:visible;"/>
	</clipPath>
</g>
<g>
	<defs>
		<rect id="SVGID_00000041995548320085960660000010102355461758988217_" width="360" height="360"/>
	</defs>
	<clipPath id="SVGID_00000179626999713196490660000003994254980791686555_">
		<use xlink:href="#SVGID_00000041995548320085960660000010102355461758988217_"  style="overflow:visible;"/>
	</clipPath>
</g>
<g>
	<defs>
		<rect id="SVGID_00000108291011750013811710000015880334298763418278_" x="49.2" y="28.5" width="125.3" height="118"/>
	</defs>
	<clipPath id="SVGID_00000063599649274234355110000017489354525263704193_">
		<use xlink:href="#SVGID_00000108291011750013811710000015880334298763418278_"  style="overflow:visible;"/>
	</clipPath>
	<g style="clip-path:url(#SVGID_00000063599649274234355110000017489354525263704193_);">
		<line class="st5" x1="49.2" y1="127.7" x2="174.5" y2="127.7"/>
		<line class="st5" x1="49.2" y1="100.9" x2="174.5" y2="100.9"/>
		<line class="st5" x1="49.2" y1="74.1" x2="174.5" y2="74.1"/>
		<line class="st5" x1="49.2" y1="47.2" x2="174.5" y2="47.2"/>
		<line class="st5" x1="80.8" y1="146.5" x2="80.8" y2="28.5"/>
		<line class="st5" x1="132.6" y1="146.5" x2="132.6" y2="28.5"/>
		<line class="st6" x1="49.2" y1="141.1" x2="174.5" y2="141.1"/>
		<line class="st6" x1="49.2" y1="114.3" x2="174.5" y2="114.3"/>
		<line class="st6" x1="49.2" y1="87.5" x2="174.5" y2="87.5"/>
		<line class="st6" x1="49.2" y1="60.7" x2="174.5" y2="60.7"/>
		<line class="st6" x1="49.2" y1="33.8" x2="174.5" y2="33.8"/>
		<line class="st6" x1="54.9" y1="146.5" x2="54.9" y2="28.5"/>
		<line class="st6" x1="106.7" y1="146.5" x2="106.7" y2="28.5"/>
		<line class="st6" x1="158.5" y1="146.5" x2="158.5" y2="28.5"/>
		<polyline class="st7" points="54.9,141.1 56,84.3 57,76.8 58,72.5 59.1,68.2 60.1,66 61.1,63.9 62.2,62.8 63.2,61.7 64.2,59.6 
			65.3,58.5 66.3,57.4 67.3,57.4 68.4,56.4 69.4,55.3 70.4,55.3 71.5,54.2 72.5,54.2 73.6,53.2 74.6,53.2 75.6,52.1 76.7,52.1 
			77.7,51 78.7,51 79.8,51 80.8,51 81.8,49.9 82.9,49.9 83.9,49.9 84.9,49.9 86,48.9 87,48.9 88.1,48.9 89.1,48.9 90.1,48.9 
			91.2,48.9 92.2,48.9 93.2,46.7 94.3,46.7 95.3,46.7 96.3,46.7 97.4,46.7 98.4,46.7 99.4,46.7 100.5,46.7 101.5,46.7 102.6,46.7 
			103.6,46.7 104.6,46.7 105.7,46.7 106.7,46.7 107.7,46.7 108.8,46.7 109.8,46.7 110.8,46.7 111.9,46.7 112.9,46.7 113.9,46.7 
			115,46.7 116,46.7 117.1,46.7 118.1,46.7 119.1,46.7 120.2,46.7 121.2,46.7 122.2,46.7 123.3,46.7 124.3,46.7 125.3,46.7 
			126.4,46.7 127.4,46.7 128.4,46.7 129.5,46.7 130.5,46.7 131.6,46.7 132.6,46.7 133.6,46.7 134.6,46.7 135.7,46.7 136.7,46.7 
			137.8,46.7 138.8,46.7 139.8,46.7 140.9,46.7 141.9,46.7 142.9,46.7 144,46.7 145,46.7 146,46.7 147.1,46.7 148.1,46.7 
			149.1,46.7 150.2,46.7 151.2,46.7 152.3,46.7 153.3,46.7 154.3,46.7 155.4,46.7 156.4,46.7 157.4,46.7 158.5,46.7 159.5,46.7 
			160.5,46.7 161.6,46.7 162.6,46.7 163.6,46.7 164.7,46.7 165.7,46.7 166.8,46.7 167.8,46.7 168.8,46.7 		"/>
		<polyline class="st8" points="54.9,141.1 56,97.1 57,89.6 58,85.3 59.1,82.1 60.1,80 61.1,77.8 62.2,75.7 63.2,73.5 64.2,72.5 
			65.3,71.4 66.3,69.2 67.3,68.2 68.4,67.1 69.4,66 70.4,64.9 71.5,63.9 72.5,62.8 73.6,61.7 74.6,61.7 75.6,60.7 76.7,59.6 
			77.7,58.5 78.7,58.5 79.8,57.4 80.8,56.4 81.8,56.4 82.9,55.3 83.9,54.2 84.9,54.2 86,53.2 87,53.2 88.1,52.1 89.1,51 90.1,51 
			91.2,49.9 92.2,49.9 93.2,48.9 94.3,48.9 95.3,46.7 96.3,46.7 97.4,46.7 98.4,46.7 99.4,45.6 100.5,45.6 101.5,45.6 102.6,44.6 
			103.6,44.6 104.6,43.5 105.7,43.5 106.7,43.5 107.7,42.4 108.8,42.4 109.8,41.3 110.8,41.3 111.9,41.3 112.9,40.3 113.9,40.3 
			115,40.3 116,39.2 117.1,39.2 118.1,39.2 119.1,39.2 120.2,38.1 121.2,38.1 122.2,38.1 123.3,38.1 124.3,37.1 125.3,37.1 
			126.4,37.1 127.4,34.9 128.4,34.9 129.5,34.9 130.5,34.9 131.6,34.9 132.6,34.9 133.6,34.9 134.6,34.9 135.7,34.9 136.7,34.9 
			137.8,34.9 138.8,34.9 139.8,34.9 140.9,34.9 141.9,34.9 142.9,33.8 144,33.8 145,33.8 146,33.8 147.1,33.8 148.1,33.8 
			149.1,33.8 150.2,33.8 151.2,33.8 152.3,33.8 153.3,33.8 154.3,33.8 155.4,33.8 156.4,33.8 157.4,33.8 158.5,33.8 159.5,33.8 
			160.5,33.8 161.6,33.8 162.6,33.8 163.6,33.8 164.7,33.8 165.7,33.8 166.8,33.8 167.8,33.8 168.8,33.8 		"/>
		<polyline class="st9" points="54.9,141.1 56,76.8 57,58.5 58,46.7 59.1,41.3 60.1,34.9 61.1,33.8 62.2,33.8 63.2,33.8 64.2,33.8 
			65.3,33.8 66.3,33.8 67.3,33.8 68.4,33.8 69.4,33.8 70.4,33.8 71.5,33.8 72.5,33.8 73.6,33.8 74.6,33.8 75.6,33.8 76.7,33.8 
			77.7,33.8 78.7,33.8 79.8,33.8 80.8,33.8 81.8,33.8 82.9,33.8 83.9,33.8 84.9,33.8 86,33.8 87,33.8 88.1,33.8 89.1,33.8 
			90.1,33.8 91.2,33.8 92.2,33.8 93.2,33.8 94.3,33.8 95.3,33.8 96.3,33.8 97.4,33.8 98.4,33.8 99.4,33.8 100.5,33.8 101.5,33.8 
			102.6,33.8 103.6,33.8 104.6,33.8 105.7,33.8 106.7,33.8 107.7,33.8 108.8,33.8 109.8,33.8 110.8,33.8 111.9,33.8 112.9,33.8 
			113.9,33.8 115,33.8 116,33.8 117.1,33.8 118.1,33.8 119.1,33.8 120.2,33.8 121.2,33.8 122.2,33.8 123.3,33.8 124.3,33.8 
			125.3,33.8 126.4,33.8 127.4,33.8 128.4,33.8 129.5,33.8 130.5,33.8 131.6,33.8 132.6,33.8 133.6,33.8 134.6,33.8 135.7,33.8 
			136.7,33.8 137.8,33.8 138.8,33.8 139.8,33.8 140.9,33.8 141.9,33.8 142.9,33.8 144,33.8 145,33.8 146,33.8 147.1,33.8 
			148.1,33.8 149.1,33.8 150.2,33.8 151.2,33.8 152.3,33.8 153.3,33.8 154.3,33.8 155.4,33.8 156.4,33.8 157.4,33.8 158.5,33.8 
			159.5,33.8 160.5,33.8 161.6,33.8 162.6,33.8 163.6,33.8 164.7,33.8 165.7,33.8 166.8,33.8 167.8,33.8 168.8,33.8 		"/>
		<polyline class="st10" points="54.9,141.1 56,110 57,92.8 58,82.1 59.1,73.5 60.1,68.2 61.1,62.8 62.2,58.5 63.2,54.2 64.2,51 
			65.3,46.7 66.3,45.6 67.3,42.4 68.4,40.3 69.4,38.1 70.4,34.9 71.5,33.8 72.5,33.8 73.6,33.8 74.6,33.8 75.6,33.8 76.7,33.8 
			77.7,33.8 78.7,33.8 79.8,33.8 80.8,33.8 81.8,33.8 82.9,33.8 83.9,33.8 84.9,33.8 86,33.8 87,33.8 88.1,33.8 89.1,33.8 
			90.1,33.8 91.2,33.8 92.2,33.8 93.2,33.8 94.3,33.8 95.3,33.8 96.3,33.8 97.4,33.8 98.4,33.8 99.4,33.8 100.5,33.8 101.5,33.8 
			102.6,33.8 103.6,33.8 104.6,33.8 105.7,33.8 106.7,33.8 107.7,33.8 108.8,33.8 109.8,33.8 110.8,33.8 111.9,33.8 112.9,33.8 
			113.9,33.8 115,33.8 116,33.8 117.1,33.8 118.1,33.8 119.1,33.8 120.2,33.8 121.2,33.8 122.2,33.8 123.3,33.8 124.3,33.8 
			125.3,33.8 126.4,33.8 127.4,33.8 128.4,33.8 129.5,33.8 130.5,33.8 131.6,33.8 132.6,33.8 133.6,33.8 134.6,33.8 135.7,33.8 
			136.7,33.8 137.8,33.8 138.8,33.8 139.8,33.8 140.9,33.8 141.9,33.8 142.9,33.8 144,33.8 145,33.8 146,33.8 147.1,33.8 
			148.1,33.8 149.1,33.8 150.2,33.8 151.2,33.8 152.3,33.8 153.3,33.8 154.3,33.8 155.4,33.8 156.4,33.8 157.4,33.8 158.5,33.8 
			159.5,33.8 160.5,33.8 161.6,33.8 162.6,33.8 163.6,33.8 164.7,33.8 165.7,33.8 166.8,33.8 167.8,33.8 168.8,33.8 		"/>
	</g>
</g>
<g>
	<defs>
		<rect id="SVGID_00000182522830271961142930000013929964898098964370_" width="360" height="360"/>
	</defs>
	<clipPath id="SVGID_00000080195900401885970400000016392017357034645383_">
		<use xlink:href="#SVGID_00000182522830271961142930000013929964898098964370_"  style="overflow:visible;"/>
	</clipPath>
	<g style="clip-path:url(#SVGID_00000080195900401885970400000016392017357034645383_);">
		<rect x="24.8" y="136.1" class="st1" width="19.5" height="11.8"/>
		<text transform="matrix(1 0 0 1 24.8271 144.6895)" class="st12 st13 st14">0.00</text>
		<rect x="24.8" y="109.3" class="st1" width="19.5" height="11.8"/>
		<text transform="matrix(1 0 0 1 24.8271 117.8696)" class="st12 st13 st14">0.25</text>
		<rect x="24.8" y="82.5" class="st1" width="19.5" height="11.8"/>
		<text transform="matrix(1 0 0 1 24.8271 91.0596)" class="st12 st13 st14">0.50</text>
		<rect x="24.8" y="55.7" class="st1" width="19.5" height="11.8"/>
		<text transform="matrix(1 0 0 1 24.8271 64.2397)" class="st12 st13 st14">0.75</text>
		<rect x="24.8" y="28.8" class="st1" width="19.5" height="11.8"/>
		<text transform="matrix(1 0 0 1 24.8271 37.4297)" class="st12 st13 st14">1.00</text>
		<rect x="52.1" y="150" class="st1" width="5.6" height="11.8"/>
		<text transform="matrix(1 0 0 1 52.1392 158.5596)" class="st12 st13 st14">0</text>
		<rect x="96.4" y="150" class="st1" width="20.6" height="11.8"/>
		<text transform="matrix(1 0 0 1 96.4043 158.5596)" class="st12 st13 st14">0.5K</text>
		<rect x="155.1" y="150" class="st1" width="6.7" height="11.8"/>
		<text transform="matrix(1 0 0 1 155.1353 158.5596)" class="st12 st13 st14">K</text>
		<rect x="9.3" y="29.9" class="st1" width="14.2" height="115.2"/>
		<text transform="matrix(6.123234e-17 -1 1 6.123234e-17 19.5596 145.0605)" class="st15"><tspan x="0" y="0" class="st13 st16">optimal</tspan><tspan x="38.7" y="0" class="st13 st16"> </tspan><tspan x="41.9" y="0" class="st13 st16">removal</tspan><tspan x="84.6" y="0" class="st13 st16"> </tspan><tspan x="87.8" y="0" class="st13 st16">effort</tspan></text>
		<rect x="49.2" y="9.1" class="st1" width="72.2" height="15.4"/>
		<text transform="matrix(1 0 0 1 49.2002 20.2695)" class="st13 st17">A. α = 0.05K</text>
	</g>
</g>
<g>
	<defs>
		<rect id="SVGID_00000135663566765265088120000013306218075910719619_" x="180" y="5.5" width="174.5" height="174.5"/>
	</defs>
	<clipPath id="SVGID_00000154407716193481855240000001679832050798326942_">
		<use xlink:href="#SVGID_00000135663566765265088120000013306218075910719619_"  style="overflow:visible;"/>
	</clipPath>
</g>
<g>
	<defs>
		<rect id="SVGID_00000003068098173712513890000016624670381519478966_" width="360" height="360"/>
	</defs>
	<clipPath id="SVGID_00000098196476012117713750000002724736100280048006_">
		<use xlink:href="#SVGID_00000003068098173712513890000016624670381519478966_"  style="overflow:visible;"/>
	</clipPath>
</g>
<g>
	<defs>
		<rect id="SVGID_00000116224200050986071640000013090204478110163341_" x="223.7" y="28.5" width="125.3" height="118"/>
	</defs>
	<clipPath id="SVGID_00000012435840484205378780000003344558221815423156_">
		<use xlink:href="#SVGID_00000116224200050986071640000013090204478110163341_"  style="overflow:visible;"/>
	</clipPath>
	<g style="clip-path:url(#SVGID_00000012435840484205378780000003344558221815423156_);">
		<line class="st5" x1="223.7" y1="127.7" x2="349" y2="127.7"/>
		<line class="st5" x1="223.7" y1="100.9" x2="349" y2="100.9"/>
		<line class="st5" x1="223.7" y1="74.1" x2="349" y2="74.1"/>
		<line class="st5" x1="223.7" y1="47.2" x2="349" y2="47.2"/>
		<line class="st5" x1="255.3" y1="146.5" x2="255.3" y2="28.5"/>
		<line class="st5" x1="307.1" y1="146.5" x2="307.1" y2="28.5"/>
		<line class="st6" x1="223.7" y1="141.1" x2="349" y2="141.1"/>
		<line class="st6" x1="223.7" y1="114.3" x2="349" y2="114.3"/>
		<line class="st6" x1="223.7" y1="87.5" x2="349" y2="87.5"/>
		<line class="st6" x1="223.7" y1="60.7" x2="349" y2="60.7"/>
		<line class="st6" x1="223.7" y1="33.8" x2="349" y2="33.8"/>
		<line class="st6" x1="229.4" y1="146.5" x2="229.4" y2="28.5"/>
		<line class="st6" x1="281.2" y1="146.5" x2="281.2" y2="28.5"/>
		<line class="st6" x1="333" y1="146.5" x2="333" y2="28.5"/>
		<polyline class="st7" points="229.4,141.1 230.5,113.2 231.5,108.9 232.6,105.7 233.6,103.6 234.6,102.5 235.6,100.3 236.7,99.3 
			237.7,98.2 238.8,97.1 239.8,97.1 240.8,96.1 241.9,95 242.9,95 243.9,93.9 245,93.9 246,92.8 247,92.8 248.1,91.8 249.1,91.8 
			250.1,91.8 251.2,90.7 252.2,90.7 253.3,90.7 254.3,90.7 255.3,89.6 256.4,89.6 257.4,89.6 258.4,89.6 259.5,88.6 260.5,88.6 
			261.5,88.6 262.6,88.6 263.6,88.6 264.6,88.6 265.7,88.6 266.7,87.5 267.8,87.5 268.8,87.5 269.8,87.5 270.9,87.5 271.9,87.5 
			272.9,86.4 274,86.4 275,86.4 276,86.4 277.1,86.4 278.1,86.4 279.1,86.4 280.2,86.4 281.2,86.4 282.2,86.4 283.3,86.4 
			284.3,86.4 285.4,86.4 286.4,86.4 287.4,86.4 288.5,86.4 289.5,86.4 290.5,86.4 291.6,85.3 292.6,85.3 293.6,85.3 294.7,85.3 
			295.7,85.3 296.8,85.3 297.8,85.3 298.8,85.3 299.9,85.3 300.9,85.3 301.9,85.3 303,85.3 304,85.3 305,85.3 306.1,85.3 
			307.1,85.3 308.1,85.3 309.2,85.3 310.2,85.3 311.2,85.3 312.3,85.3 313.3,85.3 314.4,85.3 315.4,85.3 316.4,85.3 317.5,85.3 
			318.5,85.3 319.5,85.3 320.6,85.3 321.6,85.3 322.6,85.3 323.7,85.3 324.7,85.3 325.7,85.3 326.8,85.3 327.8,85.3 328.9,85.3 
			329.9,85.3 330.9,85.3 332,85.3 333,85.3 334,85.3 335.1,85.3 336.1,85.3 337.1,85.3 338.2,85.3 339.2,85.3 340.2,85.3 
			341.3,85.3 342.3,85.3 343.4,85.3 		"/>
		<polyline class="st8" points="229.4,141.1 230.5,106.8 231.5,101.4 232.6,98.2 233.6,96.1 234.6,93.9 235.6,92.8 236.7,90.7 
			237.7,89.6 238.8,88.6 239.8,87.5 240.8,86.4 241.9,86.4 242.9,85.3 243.9,85.3 245,84.3 246,84.3 247,83.2 248.1,83.2 
			249.1,83.2 250.1,82.1 251.2,82.1 252.2,82.1 253.3,81 254.3,81 255.3,81 256.4,81 257.4,81 258.4,80 259.5,80 260.5,80 261.5,80 
			262.6,80 263.6,80 264.6,80 265.7,80 266.7,80 267.8,80 268.8,80 269.8,80 270.9,80 271.9,80 272.9,80 274,80 275,80 276,80 
			277.1,80 278.1,80 279.1,80 280.2,80 281.2,81 282.2,81 283.3,81 284.3,81 285.4,81 286.4,81 287.4,82.1 288.5,82.1 289.5,82.1 
			290.5,82.1 291.6,82.1 292.6,82.1 293.6,83.2 294.7,83.2 295.7,83.2 296.8,83.2 297.8,84.3 298.8,84.3 299.9,84.3 300.9,84.3 
			301.9,85.3 303,85.3 304,85.3 305,85.3 306.1,86.4 307.1,86.4 308.1,86.4 309.2,86.4 310.2,86.4 311.2,87.5 312.3,88.6 
			313.3,88.6 314.4,88.6 315.4,88.6 316.4,89.6 317.5,89.6 318.5,90.7 319.5,90.7 320.6,90.7 321.6,91.8 322.6,91.8 323.7,91.8 
			324.7,92.8 325.7,92.8 326.8,92.8 327.8,92.8 328.9,92.8 329.9,95 330.9,95 332,95 333,96.1 334,96.1 335.1,96.1 336.1,97.1 
			337.1,97.1 338.2,97.1 339.2,98.2 340.2,98.2 341.3,98.2 342.3,98.2 343.4,99.3 		"/>
		<polyline class="st9" points="229.4,141.1 230.5,141.1 231.5,140 232.6,140 233.6,130.4 234.6,125 235.6,120.7 236.7,117.5 
			237.7,114.3 238.8,111.1 239.8,108.9 240.8,106.8 241.9,104.6 242.9,102.5 243.9,101.4 245,99.3 246,98.2 247,97.1 248.1,95 
			249.1,95 250.1,92.8 251.2,92.8 252.2,91.8 253.3,90.7 254.3,89.6 255.3,88.6 256.4,88.6 257.4,88.6 258.4,86.4 259.5,86.4 
			260.5,86.4 261.5,85.3 262.6,85.3 263.6,84.3 264.6,84.3 265.7,83.2 266.7,83.2 267.8,83.2 268.8,82.1 269.8,82.1 270.9,82.1 
			271.9,81 272.9,80 274,80 275,80 276,80 277.1,80 278.1,80 279.1,80 280.2,77.8 281.2,77.8 282.2,77.8 283.3,77.8 284.3,77.8 
			285.4,77.8 286.4,77.8 287.4,77.8 288.5,77.8 289.5,76.8 290.5,76.8 291.6,76.8 292.6,76.8 293.6,76.8 294.7,76.8 295.7,76.8 
			296.8,75.7 297.8,75.7 298.8,75.7 299.9,75.7 300.9,75.7 301.9,75.7 303,75.7 304,75.7 305,75.7 306.1,75.7 307.1,75.7 
			308.1,74.6 309.2,74.6 310.2,74.6 311.2,74.6 312.3,74.6 313.3,74.6 314.4,74.6 315.4,74.6 316.4,74.6 317.5,74.6 318.5,74.6 
			319.5,74.6 320.6,74.6 321.6,74.6 322.6,74.6 323.7,74.6 324.7,74.6 325.7,74.6 326.8,74.6 327.8,74.6 328.9,74.6 329.9,74.6 
			330.9,74.6 332,74.6 333,74.6 334,74.6 335.1,74.6 336.1,74.6 337.1,74.6 338.2,74.6 339.2,74.6 340.2,74.6 341.3,74.6 
			342.3,74.6 343.4,74.6 		"/>
		<polyline class="st10" points="229.4,141.1 230.5,140 231.5,125 232.6,113.2 233.6,105.7 234.6,100.3 235.6,96.1 236.7,92.8 
			237.7,88.6 238.8,86.4 239.8,84.3 240.8,82.1 241.9,80 242.9,77.8 243.9,76.8 245,75.7 246,73.5 247,72.5 248.1,71.4 249.1,70.3 
			250.1,69.2 251.2,68.2 252.2,68.2 253.3,67.1 254.3,67.1 255.3,66 256.4,63.9 257.4,63.9 258.4,63.9 259.5,63.9 260.5,63.9 
			261.5,62.8 262.6,62.8 263.6,62.8 264.6,62.8 265.7,61.7 266.7,61.7 267.8,61.7 268.8,61.7 269.8,61.7 270.9,61.7 271.9,61.7 
			272.9,61.7 274,60.7 275,60.7 276,60.7 277.1,61.7 278.1,61.7 279.1,61.7 280.2,61.7 281.2,61.7 282.2,61.7 283.3,61.7 
			284.3,61.7 285.4,61.7 286.4,62.8 287.4,62.8 288.5,62.8 289.5,62.8 290.5,63.9 291.6,63.9 292.6,63.9 293.6,63.9 294.7,63.9 
			295.7,141.1 296.8,141.1 297.8,141.1 298.8,141.1 299.9,141.1 300.9,141.1 301.9,141.1 303,141.1 304,141.1 305,141.1 
			306.1,141.1 307.1,141.1 308.1,141.1 309.2,141.1 310.2,141.1 311.2,141.1 312.3,141.1 313.3,141.1 314.4,141.1 315.4,141.1 
			316.4,141.1 317.5,141.1 318.5,141.1 319.5,141.1 320.6,141.1 321.6,141.1 322.6,141.1 323.7,141.1 324.7,141.1 325.7,141.1 
			326.8,141.1 327.8,141.1 328.9,141.1 329.9,141.1 330.9,141.1 332,141.1 333,141.1 334,141.1 335.1,141.1 336.1,141.1 
			337.1,141.1 338.2,141.1 339.2,141.1 340.2,141.1 341.3,141.1 342.3,141.1 343.4,141.1 		"/>
	</g>
</g>
<g>
	<defs>
		<rect id="SVGID_00000006701572586020820050000013875820920895619460_" width="360" height="360"/>
	</defs>
	<clipPath id="SVGID_00000066499203796801070780000012748982426853683863_">
		<use xlink:href="#SVGID_00000006701572586020820050000013875820920895619460_"  style="overflow:visible;"/>
	</clipPath>
	<g style="clip-path:url(#SVGID_00000066499203796801070780000012748982426853683863_);">
		<rect x="199.3" y="136.1" class="st1" width="19.5" height="11.8"/>
		<text transform="matrix(1 0 0 1 199.3472 144.6895)" class="st12 st13 st14">0.00</text>
		<rect x="199.3" y="109.3" class="st1" width="19.5" height="11.8"/>
		<text transform="matrix(1 0 0 1 199.3472 117.8696)" class="st12 st13 st14">0.25</text>
		<rect x="199.3" y="82.5" class="st1" width="19.5" height="11.8"/>
		<text transform="matrix(1 0 0 1 199.3472 91.0596)" class="st12 st13 st14">0.50</text>
		<rect x="199.3" y="55.7" class="st1" width="19.5" height="11.8"/>
		<text transform="matrix(1 0 0 1 199.3472 64.2397)" class="st12 st13 st14">0.75</text>
		<rect x="199.3" y="28.8" class="st1" width="19.5" height="11.8"/>
		<text transform="matrix(1 0 0 1 199.3472 37.4297)" class="st12 st13 st14">1.00</text>
		<rect x="226.7" y="150" class="st1" width="5.6" height="11.8"/>
		<text transform="matrix(1 0 0 1 226.6592 158.5596)" class="st12 st13 st14">0</text>
		<rect x="270.9" y="150" class="st1" width="20.6" height="11.8"/>
		<text transform="matrix(1 0 0 1 270.9243 158.5596)" class="st12 st13 st14">0.5K</text>
		<rect x="329.7" y="150" class="st1" width="6.7" height="11.8"/>
		<text transform="matrix(1 0 0 1 329.6553 158.5596)" class="st12 st13 st14">K</text>
		<rect x="223.7" y="9.1" class="st1" width="65" height="15.4"/>
		<text transform="matrix(1 0 0 1 223.7402 20.2695)" class="st13 st17">B. α = 0.5K</text>
	</g>
</g>
<g>
	<defs>
		<rect id="SVGID_00000124845109680655254030000009869525089628656006_" x="5.5" y="180" width="174.5" height="174.5"/>
	</defs>
	<clipPath id="SVGID_00000021802895007686569690000014924504737506992533_">
		<use xlink:href="#SVGID_00000124845109680655254030000009869525089628656006_"  style="overflow:visible;"/>
	</clipPath>
</g>
<g>
	<defs>
		<rect id="SVGID_00000178162844562943349890000010465765761212710324_" width="360" height="360"/>
	</defs>
	<clipPath id="SVGID_00000178190910367211068090000003890806453725253540_">
		<use xlink:href="#SVGID_00000178162844562943349890000010465765761212710324_"  style="overflow:visible;"/>
	</clipPath>
</g>
<g>
	<defs>
		<rect id="SVGID_00000110449859287904288260000013701990639607144872_" x="49.2" y="203" width="125.3" height="118"/>
	</defs>
	<clipPath id="SVGID_00000091718332704822483080000010541992373085968825_">
		<use xlink:href="#SVGID_00000110449859287904288260000013701990639607144872_"  style="overflow:visible;"/>
	</clipPath>
	<g style="clip-path:url(#SVGID_00000091718332704822483080000010541992373085968825_);">
		<line class="st5" x1="49.2" y1="302.2" x2="174.5" y2="302.2"/>
		<line class="st5" x1="49.2" y1="275.4" x2="174.5" y2="275.4"/>
		<line class="st5" x1="49.2" y1="248.6" x2="174.5" y2="248.6"/>
		<line class="st5" x1="49.2" y1="221.8" x2="174.5" y2="221.8"/>
		<line class="st5" x1="80.8" y1="321" x2="80.8" y2="203"/>
		<line class="st5" x1="132.6" y1="321" x2="132.6" y2="203"/>
		<line class="st6" x1="49.2" y1="315.6" x2="174.5" y2="315.6"/>
		<line class="st6" x1="49.2" y1="288.8" x2="174.5" y2="288.8"/>
		<line class="st6" x1="49.2" y1="262" x2="174.5" y2="262"/>
		<line class="st6" x1="49.2" y1="235.2" x2="174.5" y2="235.2"/>
		<line class="st6" x1="49.2" y1="208.4" x2="174.5" y2="208.4"/>
		<line class="st6" x1="54.9" y1="321" x2="54.9" y2="203"/>
		<line class="st6" x1="106.7" y1="321" x2="106.7" y2="203"/>
		<line class="st6" x1="158.5" y1="321" x2="158.5" y2="203"/>
		<polyline class="st7" points="54.9,315.6 56,301.7 57,300.6 58,296.3 59.1,296.3 60.1,295.2 61.1,294.2 62.2,293.1 63.2,292 
			64.2,292 65.3,291 66.3,289.9 67.3,289.9 68.4,289.9 69.4,288.8 70.4,288.8 71.5,288.8 72.5,288.8 73.6,287.7 74.6,287.7 
			75.6,286.7 76.7,286.7 77.7,286.7 78.7,286.7 79.8,285.6 80.8,285.6 81.8,285.6 82.9,285.6 83.9,285.6 84.9,285.6 86,284.5 
			87,284.5 88.1,284.5 89.1,284.5 90.1,284.5 91.2,284.5 92.2,283.5 93.2,283.5 94.3,283.5 95.3,283.5 96.3,283.5 97.4,283.5 
			98.4,283.5 99.4,282.4 100.5,282.4 101.5,282.4 102.6,282.4 103.6,282.4 104.6,282.4 105.7,282.4 106.7,282.4 107.7,282.4 
			108.8,282.4 109.8,282.4 110.8,281.3 111.9,281.3 112.9,281.3 113.9,281.3 115,281.3 116,281.3 117.1,281.3 118.1,281.3 
			119.1,281.3 120.2,281.3 121.2,281.3 122.2,281.3 123.3,281.3 124.3,281.3 125.3,281.3 126.4,280.2 127.4,280.2 128.4,280.2 
			129.5,280.2 130.5,280.2 131.6,280.2 132.6,280.2 133.6,280.2 134.6,280.2 135.7,280.2 136.7,280.2 137.8,280.2 138.8,280.2 
			139.8,280.2 140.9,280.2 141.9,280.2 142.9,280.2 144,280.2 145,280.2 146,280.2 147.1,280.2 148.1,280.2 149.1,280.2 
			150.2,279.2 151.2,279.2 152.3,279.2 153.3,279.2 154.3,279.2 155.4,279.2 156.4,279.2 157.4,279.2 158.5,279.2 159.5,279.2 
			160.5,279.2 161.6,279.2 162.6,279.2 163.6,279.2 164.7,279.2 165.7,279.2 166.8,279.2 167.8,279.2 168.8,279.2 		"/>
		<polyline class="st8" points="54.9,315.6 56,310.3 57,309.2 58,308.1 59.1,308.1 60.1,307 61.1,307 62.2,307 63.2,306 64.2,306 
			65.3,306 66.3,306 67.3,306 68.4,306 69.4,306 70.4,306 71.5,306 72.5,306 73.6,306 74.6,304.9 75.6,304.9 76.7,304.9 77.7,304.9 
			78.7,304.9 79.8,304.9 80.8,304.9 81.8,304.9 82.9,304.9 83.9,304.9 84.9,304.9 86,304.9 87,306 88.1,306 89.1,306 90.1,306 
			91.2,306 92.2,306 93.2,306 94.3,306 95.3,306 96.3,306 97.4,306 98.4,306 99.4,306 100.5,306 101.5,306 102.6,306 103.6,306 
			104.6,306 105.7,306 106.7,306 107.7,306 108.8,306 109.8,306 110.8,306 111.9,306 112.9,306 113.9,306 115,306 116,306 
			117.1,306 118.1,307 119.1,307 120.2,307 121.2,307 122.2,307 123.3,307 124.3,307 125.3,307 126.4,307 127.4,307 128.4,307 
			129.5,307 130.5,307 131.6,307 132.6,307 133.6,307 134.6,307 135.7,307 136.7,307 137.8,307 138.8,307 139.8,307 140.9,307 
			141.9,307 142.9,307 144,307 145,307 146,308.1 147.1,308.1 148.1,308.1 149.1,308.1 150.2,308.1 151.2,308.1 152.3,308.1 
			153.3,308.1 154.3,308.1 155.4,308.1 156.4,308.1 157.4,308.1 158.5,308.1 159.5,308.1 160.5,308.1 161.6,308.1 162.6,308.1 
			163.6,308.1 164.7,308.1 165.7,308.1 166.8,308.1 167.8,308.1 168.8,308.1 		"/>
		<polyline class="st9" points="54.9,315.6 56,315.6 57,315.6 58,315.6 59.1,315.6 60.1,315.6 61.1,315.6 62.2,315.6 63.2,315.6 
			64.2,315.6 65.3,315.6 66.3,315.6 67.3,315.6 68.4,315.6 69.4,315.6 70.4,315.6 71.5,315.6 72.5,315.6 73.6,315.6 74.6,315.6 
			75.6,315.6 76.7,315.6 77.7,315.6 78.7,315.6 79.8,315.6 80.8,315.6 81.8,315.6 82.9,315.6 83.9,315.6 84.9,315.6 86,315.6 
			87,315.6 88.1,315.6 89.1,315.6 90.1,315.6 91.2,315.6 92.2,315.6 93.2,315.6 94.3,315.6 95.3,315.6 96.3,315.6 97.4,315.6 
			98.4,315.6 99.4,315.6 100.5,315.6 101.5,315.6 102.6,315.6 103.6,315.6 104.6,315.6 105.7,315.6 106.7,315.6 107.7,315.6 
			108.8,315.6 109.8,315.6 110.8,315.6 111.9,315.6 112.9,315.6 113.9,315.6 115,315.6 116,315.6 117.1,315.6 118.1,315.6 
			119.1,315.6 120.2,315.6 121.2,315.6 122.2,315.6 123.3,315.6 124.3,315.6 125.3,315.6 126.4,315.6 127.4,315.6 128.4,315.6 
			129.5,315.6 130.5,315.6 131.6,315.6 132.6,315.6 133.6,315.6 134.6,315.6 135.7,315.6 136.7,315.6 137.8,315.6 138.8,315.6 
			139.8,315.6 140.9,315.6 141.9,315.6 142.9,315.6 144,315.6 145,315.6 146,315.6 147.1,315.6 148.1,315.6 149.1,315.6 
			150.2,315.6 151.2,315.6 152.3,315.6 153.3,315.6 154.3,315.6 155.4,315.6 156.4,315.6 157.4,315.6 158.5,315.6 159.5,315.6 
			160.5,315.6 161.6,315.6 162.6,315.6 163.6,315.6 164.7,315.6 165.7,315.6 166.8,315.6 167.8,315.6 168.8,315.6 		"/>
		<polyline class="st10" points="54.9,315.6 56,315.6 57,315.6 58,315.6 59.1,315.6 60.1,315.6 61.1,315.6 62.2,315.6 63.2,315.6 
			64.2,315.6 65.3,315.6 66.3,315.6 67.3,315.6 68.4,315.6 69.4,315.6 70.4,315.6 71.5,315.6 72.5,315.6 73.6,315.6 74.6,315.6 
			75.6,315.6 76.7,315.6 77.7,315.6 78.7,315.6 79.8,315.6 80.8,315.6 81.8,315.6 82.9,315.6 83.9,315.6 84.9,315.6 86,315.6 
			87,315.6 88.1,315.6 89.1,315.6 90.1,315.6 91.2,315.6 92.2,315.6 93.2,315.6 94.3,315.6 95.3,315.6 96.3,315.6 97.4,315.6 
			98.4,315.6 99.4,315.6 100.5,315.6 101.5,315.6 102.6,315.6 103.6,315.6 104.6,315.6 105.7,315.6 106.7,315.6 107.7,315.6 
			108.8,315.6 109.8,315.6 110.8,315.6 111.9,315.6 112.9,315.6 113.9,315.6 115,315.6 116,315.6 117.1,315.6 118.1,315.6 
			119.1,315.6 120.2,315.6 121.2,315.6 122.2,315.6 123.3,315.6 124.3,315.6 125.3,315.6 126.4,315.6 127.4,315.6 128.4,315.6 
			129.5,315.6 130.5,315.6 131.6,315.6 132.6,315.6 133.6,315.6 134.6,315.6 135.7,315.6 136.7,315.6 137.8,315.6 138.8,315.6 
			139.8,315.6 140.9,315.6 141.9,315.6 142.9,315.6 144,315.6 145,315.6 146,315.6 147.1,315.6 148.1,315.6 149.1,315.6 
			150.2,315.6 151.2,315.6 152.3,315.6 153.3,315.6 154.3,315.6 155.4,315.6 156.4,315.6 157.4,315.6 158.5,315.6 159.5,315.6 
			160.5,315.6 161.6,315.6 162.6,315.6 163.6,315.6 164.7,315.6 165.7,315.6 166.8,315.6 167.8,315.6 168.8,315.6 		"/>
	</g>
</g>
<g>
	<defs>
		<rect id="SVGID_00000167365241881836912710000009452532648973281214_" width="360" height="360"/>
	</defs>
	<clipPath id="SVGID_00000163773090813881017080000006406831616342564543_">
		<use xlink:href="#SVGID_00000167365241881836912710000009452532648973281214_"  style="overflow:visible;"/>
	</clipPath>
	<g style="clip-path:url(#SVGID_00000163773090813881017080000006406831616342564543_);">
		<rect x="24.8" y="310.6" class="st1" width="19.5" height="11.8"/>
		<text transform="matrix(1 0 0 1 24.8271 319.209)" class="st12 st13 st14">0.00</text>
		<rect x="24.8" y="283.8" class="st1" width="19.5" height="11.8"/>
		<text transform="matrix(1 0 0 1 24.8271 292.3896)" class="st12 st13 st14">0.25</text>
		<rect x="24.8" y="257" class="st1" width="19.5" height="11.8"/>
		<text transform="matrix(1 0 0 1 24.8271 265.5796)" class="st12 st13 st14">0.50</text>
		<rect x="24.8" y="230.2" class="st1" width="19.5" height="11.8"/>
		<text transform="matrix(1 0 0 1 24.8271 238.7593)" class="st12 st13 st14">0.75</text>
		<rect x="24.8" y="203.4" class="st1" width="19.5" height="11.8"/>
		<text transform="matrix(1 0 0 1 24.8271 211.9497)" class="st12 st13 st14">1.00</text>
		<rect x="52.1" y="324.5" class="st1" width="5.6" height="11.8"/>
		<text transform="matrix(1 0 0 1 52.1392 333.0801)" class="st12 st13 st14">0</text>
		<rect x="96.4" y="324.5" class="st1" width="20.6" height="11.8"/>
		<text transform="matrix(1 0 0 1 96.4043 333.0801)" class="st12 st13 st14">0.5K</text>
		<rect x="155.1" y="324.5" class="st1" width="6.7" height="11.8"/>
		<text transform="matrix(1 0 0 1 155.1353 333.0801)" class="st12 st13 st14">K</text>
		<rect x="64.2" y="336.2" class="st1" width="95.4" height="14.2"/>
		<text transform="matrix(1 0 0 1 64.1836 346.5195)" class="st13 st16">local EGC density</text>
		<rect x="9.3" y="204.4" class="st1" width="14.2" height="115.2"/>
		<text transform="matrix(6.123234e-17 -1 1 6.123234e-17 19.5596 319.5801)" class="st15"><tspan x="0" y="0" class="st13 st16">optimal</tspan><tspan x="38.7" y="0" class="st13 st16"> </tspan><tspan x="41.9" y="0" class="st13 st16">removal</tspan><tspan x="84.6" y="0" class="st13 st16"> </tspan><tspan x="87.8" y="0" class="st13 st16">effort</tspan></text>
		<rect x="49.2" y="183.6" class="st1" width="65.7" height="15.4"/>
		<text transform="matrix(1 0 0 1 49.2202 194.79)" class="st13 st17">C. α = 1.0K</text>
	</g>
</g>
<g>
	<defs>
		<rect id="SVGID_00000025441971336829751510000005000482761079156127_" x="180" y="180" width="174.5" height="174.5"/>
	</defs>
	<clipPath id="SVGID_00000095305087519127452100000016827701683789854645_">
		<use xlink:href="#SVGID_00000025441971336829751510000005000482761079156127_"  style="overflow:visible;"/>
	</clipPath>
</g>
<g>
	<defs>
		<rect id="SVGID_00000019637415196907012750000002219143248095829140_" width="360" height="360"/>
	</defs>
	<clipPath id="SVGID_00000111876204581900263960000005688540172890017414_">
		<use xlink:href="#SVGID_00000019637415196907012750000002219143248095829140_"  style="overflow:visible;"/>
	</clipPath>
</g>
<g>
	<defs>
		<rect id="SVGID_00000072241370925162890650000004576328305561583012_" x="223.7" y="203" width="125.3" height="118"/>
	</defs>
	<clipPath id="SVGID_00000126322519653700943020000002417462199434119094_">
		<use xlink:href="#SVGID_00000072241370925162890650000004576328305561583012_"  style="overflow:visible;"/>
	</clipPath>
	<g style="clip-path:url(#SVGID_00000126322519653700943020000002417462199434119094_);">
		<line class="st5" x1="223.7" y1="302.2" x2="349" y2="302.2"/>
		<line class="st5" x1="223.7" y1="275.4" x2="349" y2="275.4"/>
		<line class="st5" x1="223.7" y1="248.6" x2="349" y2="248.6"/>
		<line class="st5" x1="223.7" y1="221.8" x2="349" y2="221.8"/>
		<line class="st5" x1="255.3" y1="321" x2="255.3" y2="203"/>
		<line class="st5" x1="307.1" y1="321" x2="307.1" y2="203"/>
		<line class="st6" x1="223.7" y1="315.6" x2="349" y2="315.6"/>
		<line class="st6" x1="223.7" y1="288.8" x2="349" y2="288.8"/>
		<line class="st6" x1="223.7" y1="262" x2="349" y2="262"/>
		<line class="st6" x1="223.7" y1="235.2" x2="349" y2="235.2"/>
		<line class="st6" x1="223.7" y1="208.4" x2="349" y2="208.4"/>
		<line class="st6" x1="229.4" y1="321" x2="229.4" y2="203"/>
		<line class="st6" x1="281.2" y1="321" x2="281.2" y2="203"/>
		<line class="st6" x1="333" y1="321" x2="333" y2="203"/>
		<polyline class="st7" points="229.4,315.6 230.5,313.5 231.5,311.3 232.6,312.4 233.6,310.3 234.6,311.3 235.6,310.3 236.7,309.2 
			237.7,309.2 238.8,308.1 239.8,308.1 240.8,308.1 241.9,308.1 242.9,308.1 243.9,309.2 245,308.1 246,308.1 247,307 248.1,307 
			249.1,307 250.1,306 251.2,307 252.2,307 253.3,307 254.3,307 255.3,307 256.4,306 257.4,306 258.4,306 259.5,306 260.5,306 
			261.5,306 262.6,306 263.6,306 264.6,306 265.7,306 266.7,306 267.8,304.9 268.8,304.9 269.8,304.9 270.9,304.9 271.9,304.9 
			272.9,304.9 274,304.9 275,304.9 276,304.9 277.1,304.9 278.1,304.9 279.1,304.9 280.2,304.9 281.2,304.9 282.2,304.9 
			283.3,304.9 284.3,304.9 285.4,304.9 286.4,304.9 287.4,303.8 288.5,303.8 289.5,303.8 290.5,303.8 291.6,303.8 292.6,303.8 
			293.6,303.8 294.7,303.8 295.7,303.8 296.8,303.8 297.8,303.8 298.8,303.8 299.9,303.8 300.9,303.8 301.9,303.8 303,303.8 
			304,303.8 305,303.8 306.1,303.8 307.1,303.8 308.1,303.8 309.2,303.8 310.2,303.8 311.2,302.8 312.3,302.8 313.3,302.8 
			314.4,302.8 315.4,302.8 316.4,302.8 317.5,302.8 318.5,302.8 319.5,302.8 320.6,302.8 321.6,302.8 322.6,302.8 323.7,302.8 
			324.7,302.8 325.7,302.8 326.8,302.8 327.8,302.8 328.9,302.8 329.9,302.8 330.9,302.8 332,302.8 333,302.8 334,302.8 
			335.1,302.8 336.1,302.8 337.1,302.8 338.2,302.8 339.2,302.8 340.2,302.8 341.3,302.8 342.3,302.8 343.4,302.8 		"/>
		<polyline class="st8" points="229.4,315.6 230.5,315.6 231.5,315.6 232.6,315.6 233.6,315.6 234.6,315.6 235.6,314.5 236.7,315.6 
			237.7,314.5 238.8,315.6 239.8,314.5 240.8,314.5 241.9,314.5 242.9,314.5 243.9,314.5 245,314.5 246,314.5 247,314.5 
			248.1,314.5 249.1,314.5 250.1,314.5 251.2,314.5 252.2,314.5 253.3,314.5 254.3,314.5 255.3,314.5 256.4,314.5 257.4,314.5 
			258.4,314.5 259.5,314.5 260.5,314.5 261.5,314.5 262.6,314.5 263.6,314.5 264.6,314.5 265.7,314.5 266.7,314.5 267.8,314.5 
			268.8,314.5 269.8,314.5 270.9,314.5 271.9,314.5 272.9,314.5 274,314.5 275,314.5 276,314.5 277.1,314.5 278.1,314.5 
			279.1,314.5 280.2,314.5 281.2,314.5 282.2,314.5 283.3,314.5 284.3,314.5 285.4,314.5 286.4,314.5 287.4,314.5 288.5,314.5 
			289.5,314.5 290.5,314.5 291.6,314.5 292.6,314.5 293.6,314.5 294.7,314.5 295.7,314.5 296.8,314.5 297.8,314.5 298.8,314.5 
			299.9,314.5 300.9,314.5 301.9,314.5 303,314.5 304,314.5 305,314.5 306.1,314.5 307.1,314.5 308.1,314.5 309.2,314.5 
			310.2,314.5 311.2,314.5 312.3,314.5 313.3,314.5 314.4,314.5 315.4,314.5 316.4,314.5 317.5,314.5 318.5,314.5 319.5,314.5 
			320.6,314.5 321.6,314.5 322.6,314.5 323.7,314.5 324.7,314.5 325.7,314.5 326.8,314.5 327.8,314.5 328.9,314.5 329.9,314.5 
			330.9,314.5 332,314.5 333,314.5 334,314.5 335.1,314.5 336.1,314.5 337.1,314.5 338.2,314.5 339.2,314.5 340.2,314.5 
			341.3,314.5 342.3,314.5 343.4,314.5 		"/>
		<polyline class="st9" points="229.4,315.6 230.5,315.6 231.5,315.6 232.6,315.6 233.6,315.6 234.6,315.6 235.6,315.6 236.7,315.6 
			237.7,315.6 238.8,315.6 239.8,315.6 240.8,315.6 241.9,315.6 242.9,315.6 243.9,315.6 245,315.6 246,315.6 247,315.6 
			248.1,315.6 249.1,315.6 250.1,315.6 251.2,315.6 252.2,315.6 253.3,315.6 254.3,315.6 255.3,315.6 256.4,315.6 257.4,315.6 
			258.4,315.6 259.5,315.6 260.5,315.6 261.5,315.6 262.6,315.6 263.6,315.6 264.6,315.6 265.7,315.6 266.7,315.6 267.8,315.6 
			268.8,315.6 269.8,315.6 270.9,315.6 271.9,315.6 272.9,315.6 274,315.6 275,315.6 276,315.6 277.1,315.6 278.1,315.6 
			279.1,315.6 280.2,315.6 281.2,315.6 282.2,315.6 283.3,315.6 284.3,315.6 285.4,315.6 286.4,315.6 287.4,315.6 288.5,315.6 
			289.5,315.6 290.5,315.6 291.6,315.6 292.6,315.6 293.6,315.6 294.7,315.6 295.7,315.6 296.8,315.6 297.8,315.6 298.8,315.6 
			299.9,315.6 300.9,315.6 301.9,315.6 303,315.6 304,315.6 305,315.6 306.1,315.6 307.1,315.6 308.1,315.6 309.2,315.6 
			310.2,315.6 311.2,315.6 312.3,315.6 313.3,315.6 314.4,315.6 315.4,315.6 316.4,315.6 317.5,315.6 318.5,315.6 319.5,315.6 
			320.6,315.6 321.6,315.6 322.6,315.6 323.7,315.6 324.7,315.6 325.7,315.6 326.8,315.6 327.8,315.6 328.9,315.6 329.9,315.6 
			330.9,315.6 332,315.6 333,315.6 334,315.6 335.1,315.6 336.1,315.6 337.1,315.6 338.2,315.6 339.2,315.6 340.2,315.6 
			341.3,315.6 342.3,315.6 343.4,315.6 		"/>
		<polyline class="st10" points="229.4,315.6 230.5,315.6 231.5,315.6 232.6,315.6 233.6,315.6 234.6,315.6 235.6,315.6 
			236.7,315.6 237.7,315.6 238.8,315.6 239.8,315.6 240.8,315.6 241.9,315.6 242.9,315.6 243.9,315.6 245,315.6 246,315.6 
			247,315.6 248.1,315.6 249.1,315.6 250.1,315.6 251.2,315.6 252.2,315.6 253.3,315.6 254.3,315.6 255.3,315.6 256.4,315.6 
			257.4,315.6 258.4,315.6 259.5,315.6 260.5,315.6 261.5,315.6 262.6,315.6 263.6,315.6 264.6,315.6 265.7,315.6 266.7,315.6 
			267.8,315.6 268.8,315.6 269.8,315.6 270.9,315.6 271.9,315.6 272.9,315.6 274,315.6 275,315.6 276,315.6 277.1,315.6 
			278.1,315.6 279.1,315.6 280.2,315.6 281.2,315.6 282.2,315.6 283.3,315.6 284.3,315.6 285.4,315.6 286.4,315.6 287.4,315.6 
			288.5,315.6 289.5,315.6 290.5,315.6 291.6,315.6 292.6,315.6 293.6,315.6 294.7,315.6 295.7,315.6 296.8,315.6 297.8,315.6 
			298.8,315.6 299.9,315.6 300.9,315.6 301.9,315.6 303,315.6 304,315.6 305,315.6 306.1,315.6 307.1,315.6 308.1,315.6 
			309.2,315.6 310.2,315.6 311.2,315.6 312.3,315.6 313.3,315.6 314.4,315.6 315.4,315.6 316.4,315.6 317.5,315.6 318.5,315.6 
			319.5,315.6 320.6,315.6 321.6,315.6 322.6,315.6 323.7,315.6 324.7,315.6 325.7,315.6 326.8,315.6 327.8,315.6 328.9,315.6 
			329.9,315.6 330.9,315.6 332,315.6 333,315.6 334,315.6 335.1,315.6 336.1,315.6 337.1,315.6 338.2,315.6 339.2,315.6 
			340.2,315.6 341.3,315.6 342.3,315.6 343.4,315.6 		"/>
	</g>
</g>
<g>
	<defs>
		<rect id="SVGID_00000063594466823171271460000012340315625743281034_" width="360" height="360"/>
	</defs>
	<clipPath id="SVGID_00000160165956855303532400000001325797689285663616_">
		<use xlink:href="#SVGID_00000063594466823171271460000012340315625743281034_"  style="overflow:visible;"/>
	</clipPath>
	<g style="clip-path:url(#SVGID_00000160165956855303532400000001325797689285663616_);">
		<rect x="199.3" y="310.6" class="st1" width="19.5" height="11.8"/>
		<text transform="matrix(1 0 0 1 199.3472 319.209)" class="st12 st13 st14">0.00</text>
		<rect x="199.3" y="283.8" class="st1" width="19.5" height="11.8"/>
		<text transform="matrix(1 0 0 1 199.3472 292.3896)" class="st12 st13 st14">0.25</text>
		<rect x="199.3" y="257" class="st1" width="19.5" height="11.8"/>
		<text transform="matrix(1 0 0 1 199.3472 265.5796)" class="st12 st13 st14">0.50</text>
		<rect x="199.3" y="230.2" class="st1" width="19.5" height="11.8"/>
		<text transform="matrix(1 0 0 1 199.3472 238.7593)" class="st12 st13 st14">0.75</text>
		<rect x="199.3" y="203.4" class="st1" width="19.5" height="11.8"/>
		<text transform="matrix(1 0 0 1 199.3472 211.9497)" class="st12 st13 st14">1.00</text>
		<rect x="226.7" y="324.5" class="st1" width="5.6" height="11.8"/>
		<text transform="matrix(1 0 0 1 226.6592 333.0801)" class="st12 st13 st14">0</text>
		<rect x="270.9" y="324.5" class="st1" width="20.6" height="11.8"/>
		<text transform="matrix(1 0 0 1 270.9243 333.0801)" class="st12 st13 st14">0.5K</text>
		<rect x="329.7" y="324.5" class="st1" width="6.7" height="11.8"/>
		<text transform="matrix(1 0 0 1 329.6553 333.0801)" class="st12 st13 st14">K</text>
		<rect x="238.7" y="336.2" class="st1" width="95.4" height="14.2"/>
		<text transform="matrix(1 0 0 1 238.7036 346.5195)" class="st13 st16">local EGC density</text>
		<rect x="223.7" y="183.6" class="st1" width="65.7" height="15.4"/>
		<text transform="matrix(1 0 0 1 223.7402 194.79)" class="st13 st17">D. α = 5.0K</text>
	</g>
</g>
<rect x="376.7" y="200.6" class="st1" width="180" height="108"/>
<g>
	<defs>
		<rect id="SVGID_00000101064378286634722720000010023419855439044506_" x="376.7" y="200.6" width="180" height="108"/>
	</defs>
	<clipPath id="SVGID_00000130636071586212499660000008371148030795274385_">
		<use xlink:href="#SVGID_00000101064378286634722720000010023419855439044506_"  style="overflow:visible;"/>
	</clipPath>
</g>
<g>
	<defs>
		<rect id="SVGID_00000083059813292516052450000006068452551927748783_" x="412.9" y="229.7" width="52.7" height="49.2"/>
	</defs>
	<clipPath id="SVGID_00000168093680366426437710000006676994315373661345_">
		<use xlink:href="#SVGID_00000083059813292516052450000006068452551927748783_"  style="overflow:visible;"/>
	</clipPath>
	<g style="clip-path:url(#SVGID_00000168093680366426437710000006676994315373661345_);">
		<line class="st5" x1="412.9" y1="264.9" x2="465.6" y2="264.9"/>
		<line class="st5" x1="412.9" y1="242.9" x2="465.6" y2="242.9"/>
		<line class="st5" x1="437.1" y1="278.8" x2="437.1" y2="229.7"/>
		<line class="st6" x1="412.9" y1="275.9" x2="465.6" y2="275.9"/>
		<line class="st6" x1="412.9" y1="253.9" x2="465.6" y2="253.9"/>
		<line class="st6" x1="412.9" y1="231.9" x2="465.6" y2="231.9"/>
		<line class="st6" x1="415.3" y1="278.8" x2="415.3" y2="229.7"/>
		<line class="st6" x1="458.8" y1="278.8" x2="458.8" y2="229.7"/>
		<polyline class="st25" points="415.3,231.9 415.7,233.7 416.2,235.3 416.6,237 417,238.5 417.5,240 417.9,241.5 418.3,242.9 
			418.8,244.2 419.2,245.5 419.6,246.7 420.1,247.9 420.5,249 420.9,250.1 421.4,251.2 421.8,252.2 422.3,253.1 422.7,254.1 
			423.1,255 423.6,255.8 424,256.6 424.4,257.4 424.9,258.2 425.3,258.9 425.7,259.6 426.2,260.3 426.6,260.9 427,261.6 
			427.5,262.2 427.9,262.7 428.4,263.3 428.8,263.8 429.2,264.3 429.7,264.8 430.1,265.3 430.5,265.7 431,266.2 431.4,266.6 
			431.8,267 432.3,267.4 432.7,267.8 433.1,268.1 433.6,268.5 434,268.8 434.5,269.1 434.9,269.4 435.3,269.7 435.8,270 
			436.2,270.2 436.6,270.5 437.1,270.7 437.5,271 437.9,271.2 438.4,271.4 438.8,271.6 439.2,271.8 439.7,272 440.1,272.2 
			440.5,272.4 441,272.6 441.4,272.7 441.9,272.9 442.3,273.1 442.7,273.2 443.2,273.4 443.6,273.5 444,273.6 444.5,273.7 
			444.9,273.9 445.3,274 445.8,274.1 446.2,274.2 446.6,274.3 447.1,274.4 447.5,274.5 448,274.6 448.4,274.7 448.8,274.8 
			449.3,274.8 449.7,274.9 450.1,275 450.6,275.1 451,275.1 451.4,275.2 451.9,275.3 452.3,275.3 452.7,275.4 453.2,275.4 
			453.6,275.5 454.1,275.5 454.5,275.6 454.9,275.6 455.4,275.7 455.8,275.7 456.2,275.8 456.7,275.8 457.1,275.9 457.5,275.9 
			458,275.9 458.4,276 458.8,276 459.3,276 459.7,276.1 460.2,276.1 460.6,276.1 461,276.2 461.5,276.2 461.9,276.2 462.3,276.2 
			462.8,276.3 463.2,276.3 		"/>
		<polyline class="st26" points="415.3,232 415.7,232 416.2,232 416.6,232.1 417,232.1 417.5,232.1 417.9,232.2 418.3,232.2 
			418.8,232.2 419.2,232.3 419.6,232.4 420.1,232.5 420.5,232.5 420.9,232.6 421.4,232.8 421.8,232.9 422.3,233.1 422.7,233.2 
			423.1,233.5 423.6,233.7 424,234 424.4,234.3 424.9,234.7 425.3,235.1 425.7,235.6 426.2,236.1 426.6,236.7 427,237.4 
			427.5,238.1 427.9,239 428.4,239.9 428.8,241 429.2,242.1 429.7,243.3 430.1,244.6 430.5,246 431,247.5 431.4,249 431.8,250.6 
			432.3,252.3 432.7,253.9 433.1,255.6 433.6,257.2 434,258.8 434.5,260.3 434.9,261.8 435.3,263.2 435.8,264.5 436.2,265.7 
			436.6,266.9 437.1,267.9 437.5,268.8 437.9,269.7 438.4,270.5 438.8,271.1 439.2,271.7 439.7,272.3 440.1,272.8 440.5,273.2 
			441,273.5 441.4,273.9 441.9,274.1 442.3,274.4 442.7,274.6 443.2,274.8 443.6,274.9 444,275.1 444.5,275.2 444.9,275.3 
			445.3,275.4 445.8,275.5 446.2,275.5 446.6,275.6 447.1,275.6 447.5,275.7 448,275.7 448.4,275.7 448.8,275.8 449.3,275.8 
			449.7,275.8 450.1,275.8 450.6,275.9 451,275.9 451.4,275.9 451.9,275.9 452.3,275.9 452.7,275.9 453.2,275.9 453.6,275.9 
			454.1,275.9 454.5,275.9 454.9,275.9 455.4,275.9 455.8,275.9 456.2,275.9 456.7,275.9 457.1,275.9 457.5,275.9 458,275.9 
			458.4,275.9 458.8,275.9 459.3,275.9 459.7,275.9 460.2,275.9 460.6,275.9 461,275.9 461.5,275.9 461.9,275.9 462.3,275.9 
			462.8,275.9 463.2,275.9 		"/>
	</g>
</g>
<g>
	<defs>
		<rect id="SVGID_00000154427512422699889380000011013040648598055557_" x="376.7" y="200.6" width="180" height="108"/>
	</defs>
	<clipPath id="SVGID_00000093166230260924819020000013514276518725200524_">
		<use xlink:href="#SVGID_00000154427512422699889380000011013040648598055557_"  style="overflow:visible;"/>
	</clipPath>
	<g style="clip-path:url(#SVGID_00000093166230260924819020000013514276518725200524_);">
		<rect x="394.2" y="271.9" class="st1" width="13.8" height="9.5"/>
		<text transform="matrix(1 0 0 1 394.1696 278.8074)" class="st12 st13 st28">-0.2</text>
		<rect x="394.2" y="249.9" class="st1" width="13.8" height="9.5"/>
		<text transform="matrix(1 0 0 1 394.1696 256.7874)" class="st12 st13 st28">-0.1</text>
		<rect x="403.5" y="227.9" class="st1" width="4.4" height="9.5"/>
		<text transform="matrix(1 0 0 1 403.5056 234.7571)" class="st12 st13 st28">0</text>
		<rect x="413.1" y="282.6" class="st1" width="4.4" height="9.5"/>
		<text transform="matrix(1 0 0 1 413.0602 289.4773)" class="st12 st13 st28">0</text>
		<rect x="456.2" y="282.6" class="st1" width="5.3" height="9.5"/>
		<text transform="matrix(1 0 0 1 456.1769 289.4773)" class="st12 st13 st28">K</text>
		<rect x="399.5" y="292.5" class="st1" width="79.5" height="11.8"/>
		<text transform="matrix(1 0 0 1 399.506 301.0667)" class="st15"><tspan x="0" y="0" class="st13 st14">local</tspan><tspan x="20.6" y="0" class="st13 st14"> </tspan><tspan x="23.4" y="0" class="st13 st14">EGC</tspan><tspan x="45" y="0" class="st13 st14"> </tspan><tspan x="47.8" y="0" class="st13 st14">density</tspan></text>
		<rect x="374.7" y="239" class="st1" width="11.8" height="30.6"/>
		<text transform="matrix(6.123234e-17 -1 1 6.123234e-17 383.3175 269.5215)" class="st13 st14">reward</text>
		<line class="st25" x1="476.8" y1="253" x2="490.6" y2="253"/>
		<line class="st26" x1="476.8" y1="270.2" x2="490.6" y2="270.2"/>
		<rect x="497.8" y="249" class="st1" width="40.9" height="9.5"/>
		<text transform="matrix(1 0 0 1 497.7946 255.8372)" class="st13 st28">exponential</text>
		<rect x="497.8" y="266.3" class="st1" width="33.8" height="9.5"/>
		<text transform="matrix(1 0 0 1 497.7946 273.1175)" class="st13 st28">sigmoidal</text>
		<text transform="matrix(1 0 0 1 402.7195 212.5672)" class="st13 st29">Ecological change</text>
		<text transform="matrix(1 0 0 1 423.4837 222.2873)" class="st13 st29">function</text>
	</g>
</g>
<rect x="369.8" y="81.7" class="st1" width="180" height="108"/>
<g>
	<defs>
		<rect id="SVGID_00000080913826342774394850000012122332771977956270_" x="369.8" y="81.7" width="180" height="108"/>
	</defs>
	<clipPath id="SVGID_00000121979909516817392440000007329495488233612435_">
		<use xlink:href="#SVGID_00000080913826342774394850000012122332771977956270_"  style="overflow:visible;"/>
	</clipPath>
</g>
<g>
	<defs>
		<rect id="SVGID_00000178200807924779944610000008513098699369885320_" x="414.9" y="110.7" width="51.8" height="49.2"/>
	</defs>
	<clipPath id="SVGID_00000013192596480860090440000014699789626595986571_">
		<use xlink:href="#SVGID_00000178200807924779944610000008513098699369885320_"  style="overflow:visible;"/>
	</clipPath>
	<g style="clip-path:url(#SVGID_00000013192596480860090440000014699789626595986571_);">
		<line class="st5" x1="414.9" y1="141.2" x2="466.7" y2="141.2"/>
		<line class="st5" x1="414.9" y1="122.3" x2="466.7" y2="122.3"/>
		<line class="st5" x1="440.8" y1="159.8" x2="440.8" y2="110.7"/>
		<line class="st6" x1="414.9" y1="150.6" x2="466.7" y2="150.6"/>
		<line class="st6" x1="414.9" y1="131.8" x2="466.7" y2="131.8"/>
		<line class="st6" x1="414.9" y1="112.9" x2="466.7" y2="112.9"/>
		<line class="st6" x1="417.2" y1="159.8" x2="417.2" y2="110.7"/>
		<line class="st6" x1="464.3" y1="159.8" x2="464.3" y2="110.7"/>
		<polyline class="st31" points="417.2,112.9 417.7,113.1 418.2,113.3 418.6,113.5 419.1,113.7 419.6,113.9 420.1,114 420.5,114.2 
			421,114.4 421.5,114.6 421.9,114.8 422.4,115 422.9,115.2 423.3,115.4 423.8,115.6 424.3,115.7 424.8,115.9 425.2,116.1 
			425.7,116.3 426.2,116.5 426.6,116.7 427.1,116.9 427.6,117.1 428.1,117.3 428.5,117.4 429,117.6 429.5,117.8 429.9,118 
			430.4,118.2 430.9,118.4 431.4,118.6 431.8,118.8 432.3,119 432.8,119.1 433.2,119.3 433.7,119.5 434.2,119.7 434.7,119.9 
			435.1,120.1 435.6,120.3 436.1,120.5 436.5,120.6 437,120.8 437.5,121 438,121.2 438.4,121.4 438.9,121.6 439.4,121.8 439.8,122 
			440.3,122.2 440.8,122.3 441.3,122.5 441.7,122.7 442.2,122.9 442.7,123.1 443.1,123.3 443.6,123.5 444.1,123.7 444.5,123.9 
			445,124 445.5,124.2 446,124.4 446.4,124.6 446.9,124.8 447.4,125 447.8,125.2 448.3,125.4 448.8,125.6 449.3,125.7 449.7,125.9 
			450.2,126.1 450.7,126.3 451.1,126.5 451.6,126.7 452.1,126.9 452.6,127.1 453,127.2 453.5,127.4 454,127.6 454.4,127.8 
			454.9,128 455.4,128.2 455.9,128.4 456.3,128.6 456.8,128.8 457.3,128.9 457.7,129.1 458.2,129.3 458.7,129.5 459.2,129.7 
			459.6,129.9 460.1,130.1 460.6,130.3 461,130.5 461.5,130.6 462,130.8 462.5,131 462.9,131.2 463.4,131.4 463.9,131.6 
			464.3,131.8 		"/>
		<polyline class="st32" points="417.2,112.9 417.7,112.9 418.2,112.9 418.6,112.9 419.1,112.9 419.6,112.9 420.1,112.9 
			420.5,112.9 421,112.9 421.5,112.9 421.9,112.9 422.4,112.9 422.9,112.9 423.3,112.9 423.8,112.9 424.3,112.9 424.8,112.9 
			425.2,113 425.7,113 426.2,113 426.6,113 427.1,113 427.6,113 428.1,113 428.5,113.1 429,113.1 429.5,113.1 429.9,113.2 
			430.4,113.2 430.9,113.2 431.4,113.3 431.8,113.3 432.3,113.4 432.8,113.4 433.2,113.5 433.7,113.6 434.2,113.7 434.7,113.8 
			435.1,113.9 435.6,114 436.1,114.1 436.5,114.2 437,114.3 437.5,114.4 438,114.6 438.4,114.8 438.9,114.9 439.4,115.1 
			439.8,115.3 440.3,115.5 440.8,115.7 441.3,115.9 441.7,116.2 442.2,116.4 442.7,116.7 443.1,117 443.6,117.3 444.1,117.6 
			444.5,118 445,118.3 445.5,118.7 446,119.1 446.4,119.5 446.9,120 447.4,120.4 447.8,120.9 448.3,121.4 448.8,121.9 449.3,122.5 
			449.7,123 450.2,123.6 450.7,124.3 451.1,124.9 451.6,125.6 452.1,126.3 452.6,127.1 453,127.8 453.5,128.6 454,129.5 
			454.4,130.3 454.9,131.2 455.4,132.2 455.9,133.1 456.3,134.1 456.8,135.2 457.3,136.2 457.7,137.4 458.2,138.5 458.7,139.7 
			459.2,141 459.6,142.2 460.1,143.6 460.6,144.9 461,146.3 461.5,147.8 462,149.3 462.5,150.9 462.9,152.5 463.4,154.1 
			463.9,155.8 464.3,157.6 		"/>
	</g>
</g>
<g>
	<defs>
		<rect id="SVGID_00000137817048367136758430000007842284892350509711_" x="369.8" y="81.7" width="180" height="108"/>
	</defs>
	<clipPath id="SVGID_00000150797655107894644760000001029467667228257455_">
		<use xlink:href="#SVGID_00000137817048367136758430000007842284892350509711_"  style="overflow:visible;"/>
	</clipPath>
	<g style="clip-path:url(#SVGID_00000150797655107894644760000001029467667228257455_);">
		<rect x="391.7" y="146.6" class="st1" width="18.2" height="9.5"/>
		<text transform="matrix(1 0 0 1 391.7003 153.4959)" class="st12 st13 st28">-0.01</text>
		<rect x="387.3" y="127.8" class="st1" width="22.7" height="9.5"/>
		<text transform="matrix(1 0 0 1 387.251 134.6361)" class="st12 st13 st28">-0.005</text>
		<rect x="405.5" y="108.9" class="st1" width="4.4" height="9.5"/>
		<text transform="matrix(1 0 0 1 405.4854 115.786)" class="st12 st13 st28">0</text>
		<rect x="415" y="163.6" class="st1" width="4.4" height="9.5"/>
		<text transform="matrix(1 0 0 1 415.0001 170.5062)" class="st12 st13 st28">0</text>
		<rect x="462.1" y="163.6" class="st1" width="4.4" height="9.5"/>
		<text transform="matrix(1 0 0 1 462.1099 170.5062)" class="st12 st13 st28">1</text>
		<rect x="410.3" y="173.5" class="st1" width="61" height="11.8"/>
		<text transform="matrix(1 0 0 1 410.2984 182.0956)" class="st15"><tspan x="0" y="0" class="st13 st14">removal</tspan><tspan x="35.6" y="0" class="st13 st14"> </tspan><tspan x="38.2" y="0" class="st13 st14">effort</tspan></text>
		<rect x="373.8" y="120" class="st1" width="11.8" height="30.6"/>
		<text transform="matrix(6.123234e-17 -1 1 6.123234e-17 382.3976 150.5488)" class="st13 st14">reward</text>
		<line class="st31" x1="479.9" y1="134" x2="493.7" y2="134"/>
		<line class="st32" x1="479.9" y1="151.3" x2="493.7" y2="151.3"/>
		<text transform="matrix(1 0 0 1 500.8847 136.8661)" class="st13 st28">linear</text>
		<text transform="matrix(1 0 0 1 500.8847 154.1461)" class="st13 st28">nonlinear</text>
		<text transform="matrix(1 0 0 1 413.5154 93.5961)" class="st13 st29">Removal cost</text>
		<text transform="matrix(1 0 0 1 425.0137 103.3161)" class="st13 st29">function</text>
	</g>
</g>
<text transform="matrix(1 0 0 1 435.2982 67.0262)" class="st34 st16">Legend</text>
</svg>
