<?xml version="1.0" encoding="UTF-8"?>
<svg id="Layer_1" xmlns="http://www.w3.org/2000/svg" version="1.1" xmlns:xlink="http://www.w3.org/1999/xlink" viewBox="0 0 563.3 360">
  <!-- Generator: Adobe Illustrator 29.1.0, SVG Export Plug-In . SVG Version: 2.1.0 Build 142)  -->
  <defs>
    <style>
      .st0 {
        clip-path: url(#clippath-6);
      }

      .st1 {
        clip-path: url(#clippath-7);
      }

      .st2 {
        font-size: 9px;
      }

      .st2, .st3, .st4, .st5, .st6, .st7, .st8, .st9, .st10 {
        isolation: isolate;
      }

      .st2, .st3, .st4, .st6, .st7, .st9, .st10 {
        font-family: ArialMT, Arial;
      }

      .st11, .st12, .st13, .st14, .st15, .st16, .st17, .st18, .st19, .st20, .st21, .st22, .st23 {
        fill: none;
      }

      .st11, .st12, .st13, .st15, .st16, .st24, .st17, .st18, .st19, .st20, .st21, .st22, .st23 {
        stroke-linejoin: round;
      }

      .st11, .st13, .st17, .st22 {
        stroke-width: 3.2px;
      }

      .st11, .st13, .st19 {
        stroke: #ba55d3;
      }

      .st25 {
        clip-path: url(#clippath-4);
      }

      .st12 {
        stroke-dasharray: 5.7 5.7;
      }

      .st12, .st19, .st20, .st21 {
        stroke-width: 2.1px;
      }

      .st12, .st21 {
        stroke: #000;
      }

      .st26 {
        clip-path: url(#clippath-10);
      }

      .st13, .st17 {
        stroke-dasharray: 4.3 12.8;
      }

      .st3 {
        font-size: 5.6px;
      }

      .st27 {
        letter-spacing: 0em;
      }

      .st28 {
        clip-path: url(#clippath-1);
      }

      .st15 {
        stroke-width: .5px;
      }

      .st15, .st16, .st18, .st23 {
        stroke: #ebebeb;
      }

      .st4 {
        font-size: 13px;
      }

      .st29 {
        clip-path: url(#clippath-5);
      }

      .st30 {
        clip-path: url(#clippath-8);
      }

      .st31 {
        letter-spacing: 0em;
      }

      .st32 {
        clip-path: url(#clippath-3);
      }

      .st33 {
        clip-path: url(#clippath-12);
      }

      .st16, .st24 {
        stroke-width: 1.1px;
      }

      .st24 {
        fill: #fff;
        stroke: #fff;
        stroke-linecap: round;
      }

      .st6, .st8 {
        font-size: 12px;
      }

      .st7 {
        font-size: 10px;
      }

      .st7, .st10 {
        fill: #4d4d4d;
      }

      .st17, .st20, .st22 {
        stroke: #008b00;
      }

      .st18 {
        stroke-width: .5px;
      }

      .st34 {
        clip-path: url(#clippath-2);
      }

      .st8 {
        font-family: Arial-BoldMT, Arial;
        font-weight: 700;
      }

      .st9 {
        font-size: 8px;
      }

      .st10 {
        font-size: 6.4px;
      }

      .st35 {
        clip-path: url(#clippath);
      }

      .st23 {
        stroke-width: 1.1px;
      }

      .st36 {
        fill: #e8e8e8;
      }
    </style>
    <clipPath id="clippath">
      <rect class="st14" width="360" height="360"/>
    </clipPath>
    <clipPath id="clippath-1">
      <rect class="st14" x="49.2" y="28.5" width="125.3" height="118"/>
    </clipPath>
    <clipPath id="clippath-2">
      <rect class="st14" width="360" height="360"/>
    </clipPath>
    <clipPath id="clippath-3">
      <rect class="st14" x="223.7" y="28.5" width="125.3" height="118"/>
    </clipPath>
    <clipPath id="clippath-4">
      <rect class="st14" width="360" height="360"/>
    </clipPath>
    <clipPath id="clippath-5">
      <rect class="st14" x="49.2" y="203" width="125.3" height="118"/>
    </clipPath>
    <clipPath id="clippath-6">
      <rect class="st14" width="360" height="360"/>
    </clipPath>
    <clipPath id="clippath-7">
      <rect class="st14" x="223.7" y="203" width="125.3" height="118"/>
    </clipPath>
    <clipPath id="clippath-8">
      <rect class="st14" width="360" height="360"/>
    </clipPath>
    <clipPath id="clippath-10">
      <rect class="st14" x="411.3" y="231.7" width="60.2" height="52.5"/>
    </clipPath>
    <clipPath id="clippath-12">
      <rect class="st14" x="411.3" y="115.8" width="66.6" height="52.5"/>
    </clipPath>
  </defs>
  <rect class="st14" width="360" height="360"/>
  <g class="st35">
    <rect class="st24" width="360" height="360"/>
  </g>
  <g class="st28">
    <g>
      <line class="st18" x1="49.2" y1="127.7" x2="174.5" y2="127.7"/>
      <line class="st18" x1="49.2" y1="100.9" x2="174.5" y2="100.9"/>
      <line class="st18" x1="49.2" y1="74.1" x2="174.5" y2="74.1"/>
      <line class="st18" x1="49.2" y1="47.2" x2="174.5" y2="47.2"/>
      <line class="st18" x1="80.8" y1="146.5" x2="80.8" y2="28.5"/>
      <line class="st18" x1="132.6" y1="146.5" x2="132.6" y2="28.5"/>
      <line class="st16" x1="49.2" y1="141.1" x2="174.5" y2="141.1"/>
      <line class="st16" x1="49.2" y1="114.3" x2="174.5" y2="114.3"/>
      <line class="st16" x1="49.2" y1="87.5" x2="174.5" y2="87.5"/>
      <line class="st16" x1="49.2" y1="60.7" x2="174.5" y2="60.7"/>
      <line class="st16" x1="49.2" y1="33.8" x2="174.5" y2="33.8"/>
      <line class="st16" x1="54.9" y1="146.5" x2="54.9" y2="28.5"/>
      <line class="st16" x1="106.7" y1="146.5" x2="106.7" y2="28.5"/>
      <line class="st16" x1="158.5" y1="146.5" x2="158.5" y2="28.5"/>
      <polyline class="st22" points="54.9 141.1 56 72.5 57 63.9 58 58.5 59.1 55.3 60.1 52.1 61.1 49.9 62.2 48.9 63.2 46.7 64.2 45.6 65.3 44.6 66.3 43.5 67.3 42.4 68.4 41.3 69.4 40.3 70.4 40.3 71.5 39.2 72.5 38.1 73.6 38.1 74.6 37.1 75.6 34.9 76.7 34.9 77.7 34.9 78.7 34.9 79.8 34.9 80.8 34.9 81.8 34.9 82.9 34.9 83.9 33.8 84.9 33.8 86 33.8 87 33.8 88.1 33.8 89.1 33.8 90.1 33.8 91.2 33.8 92.2 33.8 93.2 33.8 94.3 33.8 95.3 33.8 96.3 33.8 97.4 33.8 98.4 33.8 99.4 33.8 100.5 33.8 101.5 33.8 102.6 33.8 103.6 33.8 104.6 33.8 105.7 33.8 106.7 33.8 107.7 33.8 108.8 33.8 109.8 33.8 110.8 33.8 111.9 33.8 112.9 33.8 113.9 33.8 115 33.8 116 33.8 117.1 33.8 118.1 33.8 119.1 33.8 120.2 33.8 121.2 33.8 122.2 33.8 123.3 33.8 124.3 33.8 125.3 33.8 126.4 33.8 127.4 33.8 128.4 33.8 129.5 33.8 130.5 33.8 131.6 33.8 132.6 33.8 133.6 33.8 134.6 33.8 135.7 33.8 136.7 33.8 137.8 33.8 138.8 33.8 139.8 33.8 140.9 33.8 141.9 33.8 142.9 33.8 144 33.8 145 33.8 146 33.8 147.1 33.8 148.1 33.8 149.1 33.8 150.2 33.8 151.2 33.8 152.3 33.8 153.3 33.8 154.3 33.8 155.4 33.8 156.4 33.8 157.4 33.8 158.5 33.8 159.5 33.8 160.5 33.8 161.6 33.8 162.6 33.8 163.6 33.8 164.7 33.8 165.7 33.8 166.8 33.8 167.8 33.8 168.8 33.8"/>
      <polyline class="st17" points="54.9 141.1 56 87.5 57 80 58 74.6 59.1 70.3 60.1 68.2 61.1 66 62.2 62.8 63.2 61.7 64.2 59.6 65.3 58.5 66.3 56.4 67.3 55.3 68.4 54.2 69.4 53.2 70.4 52.1 71.5 51 72.5 49.9 73.6 48.9 74.6 46.7 75.6 46.7 76.7 45.6 77.7 44.6 78.7 44.6 79.8 43.5 80.8 42.4 81.8 41.3 82.9 41.3 83.9 40.3 84.9 39.2 86 39.2 87 38.1 88.1 37.1 89.1 37.1 90.1 34.9 91.2 34.9 92.2 34.9 93.2 33.8 94.3 33.8 95.3 33.8 96.3 33.8 97.4 33.8 98.4 33.8 99.4 33.8 100.5 33.8 101.5 33.8 102.6 33.8 103.6 33.8 104.6 33.8 105.7 33.8 106.7 33.8 107.7 33.8 108.8 33.8 109.8 33.8 110.8 33.8 111.9 33.8 112.9 33.8 113.9 33.8 115 33.8 116 33.8 117.1 33.8 118.1 33.8 119.1 33.8 120.2 33.8 121.2 33.8 122.2 33.8 123.3 33.8 124.3 33.8 125.3 33.8 126.4 33.8 127.4 33.8 128.4 33.8 129.5 33.8 130.5 33.8 131.6 33.8 132.6 33.8 133.6 33.8 134.6 33.8 135.7 33.8 136.7 33.8 137.8 33.8 138.8 33.8 139.8 33.8 140.9 33.8 141.9 33.8 142.9 33.8 144 33.8 145 33.8 146 33.8 147.1 33.8 148.1 33.8 149.1 33.8 150.2 33.8 151.2 33.8 152.3 33.8 153.3 33.8 154.3 33.8 155.4 33.8 156.4 33.8 157.4 33.8 158.5 33.8 159.5 33.8 160.5 33.8 161.6 33.8 162.6 33.8 163.6 33.8 164.7 33.8 165.7 33.8 166.8 33.8 167.8 33.8 168.8 33.8"/>
      <polyline class="st11" points="54.9 141.1 56 71.4 57 54.2 58 43.5 59.1 34.9 60.1 33.8 61.1 33.8 62.2 33.8 63.2 33.8 64.2 33.8 65.3 33.8 66.3 33.8 67.3 33.8 68.4 33.8 69.4 33.8 70.4 33.8 71.5 33.8 72.5 33.8 73.6 33.8 74.6 33.8 75.6 33.8 76.7 33.8 77.7 33.8 78.7 33.8 79.8 33.8 80.8 33.8 81.8 33.8 82.9 33.8 83.9 33.8 84.9 33.8 86 33.8 87 33.8 88.1 33.8 89.1 33.8 90.1 33.8 91.2 33.8 92.2 33.8 93.2 33.8 94.3 33.8 95.3 33.8 96.3 33.8 97.4 33.8 98.4 33.8 99.4 33.8 100.5 33.8 101.5 33.8 102.6 33.8 103.6 33.8 104.6 33.8 105.7 33.8 106.7 33.8 107.7 33.8 108.8 33.8 109.8 33.8 110.8 33.8 111.9 33.8 112.9 33.8 113.9 33.8 115 33.8 116 33.8 117.1 33.8 118.1 33.8 119.1 33.8 120.2 33.8 121.2 33.8 122.2 33.8 123.3 33.8 124.3 33.8 125.3 33.8 126.4 33.8 127.4 33.8 128.4 33.8 129.5 33.8 130.5 33.8 131.6 33.8 132.6 33.8 133.6 33.8 134.6 33.8 135.7 33.8 136.7 33.8 137.8 33.8 138.8 33.8 139.8 33.8 140.9 33.8 141.9 33.8 142.9 33.8 144 33.8 145 33.8 146 33.8 147.1 33.8 148.1 33.8 149.1 33.8 150.2 33.8 151.2 33.8 152.3 33.8 153.3 33.8 154.3 33.8 155.4 33.8 156.4 33.8 157.4 33.8 158.5 33.8 159.5 33.8 160.5 33.8 161.6 33.8 162.6 33.8 163.6 33.8 164.7 33.8 165.7 33.8 166.8 33.8 167.8 33.8 168.8 33.8"/>
      <polyline class="st13" points="54.9 141.1 56 105.7 57 88.6 58 76.8 59.1 68.2 60.1 62.8 61.1 57.4 62.2 53.2 63.2 49.9 64.2 45.6 65.3 43.5 66.3 40.3 67.3 34.9 68.4 34.9 69.4 33.8 70.4 33.8 71.5 33.8 72.5 33.8 73.6 33.8 74.6 33.8 75.6 33.8 76.7 33.8 77.7 33.8 78.7 33.8 79.8 33.8 80.8 33.8 81.8 33.8 82.9 33.8 83.9 33.8 84.9 33.8 86 33.8 87 33.8 88.1 33.8 89.1 33.8 90.1 33.8 91.2 33.8 92.2 33.8 93.2 33.8 94.3 33.8 95.3 33.8 96.3 33.8 97.4 33.8 98.4 33.8 99.4 33.8 100.5 33.8 101.5 33.8 102.6 33.8 103.6 33.8 104.6 33.8 105.7 33.8 106.7 33.8 107.7 33.8 108.8 33.8 109.8 33.8 110.8 33.8 111.9 33.8 112.9 33.8 113.9 33.8 115 33.8 116 33.8 117.1 33.8 118.1 33.8 119.1 33.8 120.2 33.8 121.2 33.8 122.2 33.8 123.3 33.8 124.3 33.8 125.3 33.8 126.4 33.8 127.4 33.8 128.4 33.8 129.5 33.8 130.5 33.8 131.6 33.8 132.6 33.8 133.6 33.8 134.6 33.8 135.7 33.8 136.7 33.8 137.8 33.8 138.8 33.8 139.8 33.8 140.9 33.8 141.9 33.8 142.9 33.8 144 33.8 145 33.8 146 33.8 147.1 33.8 148.1 33.8 149.1 33.8 150.2 33.8 151.2 33.8 152.3 33.8 153.3 33.8 154.3 33.8 155.4 33.8 156.4 33.8 157.4 33.8 158.5 33.8 159.5 33.8 160.5 33.8 161.6 33.8 162.6 33.8 163.6 33.8 164.7 33.8 165.7 33.8 166.8 33.8 167.8 33.8 168.8 33.8"/>
    </g>
  </g>
  <g class="st34">
    <g>
      <g class="st5">
        <text class="st7" transform="translate(24.8 144.7)"><tspan x="0" y="0">0.00</tspan></text>
      </g>
      <g class="st5">
        <text class="st7" transform="translate(24.8 117.9)"><tspan x="0" y="0">0.25</tspan></text>
      </g>
      <g class="st5">
        <text class="st7" transform="translate(24.8 91.1)"><tspan x="0" y="0">0.50</tspan></text>
      </g>
      <g class="st5">
        <text class="st7" transform="translate(24.8 64.2)"><tspan x="0" y="0">0.75</tspan></text>
      </g>
      <g class="st5">
        <text class="st7" transform="translate(24.8 37.4)"><tspan x="0" y="0">1.00</tspan></text>
      </g>
      <g class="st5">
        <text class="st7" transform="translate(52.1 158.6)"><tspan x="0" y="0">0</tspan></text>
      </g>
      <g class="st5">
        <text class="st7" transform="translate(96.4 158.6)"><tspan x="0" y="0">0.5K</tspan></text>
      </g>
      <g class="st5">
        <text class="st7" transform="translate(155.1 158.6)"><tspan x="0" y="0">K</tspan></text>
      </g>
      <g class="st5">
        <text class="st6" transform="translate(19.6 145.1) rotate(-90)"><tspan x="0" y="0">optimal</tspan></text>
        <text class="st6" transform="translate(19.6 106.4) rotate(-90)"><tspan x="0" y="0"> </tspan></text>
        <text class="st6" transform="translate(19.6 103.2) rotate(-90)"><tspan x="0" y="0">removal</tspan></text>
        <text class="st6" transform="translate(19.6 60.5) rotate(-90)"><tspan x="0" y="0"> </tspan></text>
        <text class="st6" transform="translate(19.6 57.3) rotate(-90)"><tspan x="0" y="0">effort</tspan></text>
      </g>
      <g class="st5">
        <text class="st4" transform="translate(49.2 20.3)"><tspan x="0" y="0">A. α = 0.05K</tspan></text>
      </g>
    </g>
  </g>
  <g class="st32">
    <g>
      <line class="st18" x1="223.7" y1="127.7" x2="349" y2="127.7"/>
      <line class="st18" x1="223.7" y1="100.9" x2="349" y2="100.9"/>
      <line class="st18" x1="223.7" y1="74.1" x2="349" y2="74.1"/>
      <line class="st18" x1="223.7" y1="47.2" x2="349" y2="47.2"/>
      <line class="st18" x1="255.3" y1="146.5" x2="255.3" y2="28.5"/>
      <line class="st18" x1="307.1" y1="146.5" x2="307.1" y2="28.5"/>
      <line class="st16" x1="223.7" y1="141.1" x2="349" y2="141.1"/>
      <line class="st16" x1="223.7" y1="114.3" x2="349" y2="114.3"/>
      <line class="st16" x1="223.7" y1="87.5" x2="349" y2="87.5"/>
      <line class="st16" x1="223.7" y1="60.7" x2="349" y2="60.7"/>
      <line class="st16" x1="223.7" y1="33.8" x2="349" y2="33.8"/>
      <line class="st16" x1="229.4" y1="146.5" x2="229.4" y2="28.5"/>
      <line class="st16" x1="281.2" y1="146.5" x2="281.2" y2="28.5"/>
      <line class="st16" x1="333" y1="146.5" x2="333" y2="28.5"/>
      <polyline class="st22" points="229.4 141.1 230.5 105.7 231.5 100.3 232.6 97.1 233.6 93.9 234.6 91.8 235.6 90.7 236.7 88.6 237.7 87.5 238.8 86.4 239.8 85.3 240.8 84.3 241.9 84.3 242.9 83.2 243.9 82.1 245 82.1 246 81 247 81 248.1 80 249.1 80 250.1 80 251.2 78.9 252.2 78.9 253.3 77.8 254.3 77.8 255.3 77.8 256.4 77.8 257.4 76.8 258.4 76.8 259.5 76.8 260.5 76.8 261.5 75.7 262.6 75.7 263.6 75.7 264.6 75.7 265.7 75.7 266.7 74.6 267.8 74.6 268.8 74.6 269.8 74.6 270.9 74.6 271.9 74.6 272.9 74.6 274 73.5 275 73.5 276 73.5 277.1 73.5 278.1 73.5 279.1 73.5 280.2 73.5 281.2 73.5 282.2 73.5 283.3 73.5 284.3 72.5 285.4 72.5 286.4 72.5 287.4 72.5 288.5 72.5 289.5 72.5 290.5 72.5 291.6 72.5 292.6 72.5 293.6 72.5 294.7 72.5 295.7 72.5 296.8 72.5 297.8 72.5 298.8 72.5 299.9 72.5 300.9 71.4 301.9 71.4 303 71.4 304 71.4 305 71.4 306.1 71.4 307.1 71.4 308.1 71.4 309.2 71.4 310.2 71.4 311.2 71.4 312.3 71.4 313.3 71.4 314.4 71.4 315.4 71.4 316.4 71.4 317.5 71.4 318.5 71.4 319.5 71.4 320.6 71.4 321.6 71.4 322.6 71.4 323.7 71.4 324.7 71.4 325.7 71.4 326.8 71.4 327.8 71.4 328.9 71.4 329.9 71.4 330.9 71.4 332 71.4 333 71.4 334 71.4 335.1 71.4 336.1 71.4 337.1 71.4 338.2 71.4 339.2 71.4 340.2 71.4 341.3 71.4 342.3 71.4 343.4 71.4"/>
      <polyline class="st17" points="229.4 141.1 230.5 98.2 231.5 91.8 232.6 87.5 233.6 85.3 234.6 82.1 235.6 80 236.7 78.9 237.7 77.8 238.8 76.8 239.8 75.7 240.8 74.6 241.9 73.5 242.9 72.5 243.9 72.5 245 71.4 246 70.3 247 70.3 248.1 69.2 249.1 69.2 250.1 68.2 251.2 68.2 252.2 68.2 253.3 68.2 254.3 67.1 255.3 67.1 256.4 67.1 257.4 67.1 258.4 66 259.5 66 260.5 66 261.5 66 262.6 66 263.6 66 264.6 66 265.7 64.9 266.7 64.9 267.8 63.9 268.8 63.9 269.8 63.9 270.9 63.9 271.9 63.9 272.9 63.9 274 63.9 275 63.9 276 63.9 277.1 63.9 278.1 63.9 279.1 63.9 280.2 63.9 281.2 63.9 282.2 63.9 283.3 63.9 284.3 63.9 285.4 63.9 286.4 66 287.4 66 288.5 66 289.5 66 290.5 66 291.6 66 292.6 66 293.6 66 294.7 66 295.7 67.1 296.8 67.1 297.8 67.1 298.8 67.1 299.9 67.1 300.9 67.1 301.9 67.1 303 68.2 304 68.2 305 68.2 306.1 68.2 307.1 68.2 308.1 68.2 309.2 68.2 310.2 68.2 311.2 69.2 312.3 69.2 313.3 69.2 314.4 70.3 315.4 70.3 316.4 70.3 317.5 70.3 318.5 70.3 319.5 71.4 320.6 71.4 321.6 71.4 322.6 71.4 323.7 72.5 324.7 72.5 325.7 72.5 326.8 72.5 327.8 72.5 328.9 73.5 329.9 73.5 330.9 73.5 332 73.5 333 74.6 334 74.6 335.1 74.6 336.1 74.6 337.1 75.7 338.2 75.7 339.2 75.7 340.2 75.7 341.3 76.8 342.3 76.8 343.4 76.8"/>
      <polyline class="st11" points="229.4 141.1 230.5 141.1 231.5 140 232.6 131.4 233.6 125 234.6 119.7 235.6 115.4 236.7 111.1 237.7 107.8 238.8 105.7 239.8 102.5 240.8 100.3 241.9 98.2 242.9 97.1 243.9 95 245 92.8 246 92.8 247 90.7 248.1 89.6 249.1 88.6 250.1 88.6 251.2 86.4 252.2 86.4 253.3 85.3 254.3 84.3 255.3 83.2 256.4 83.2 257.4 82.1 258.4 81 259.5 80 260.5 80 261.5 80 262.6 78.9 263.6 77.8 264.6 77.8 265.7 77.8 266.7 77.8 267.8 76.8 268.8 76.8 269.8 75.7 270.9 75.7 271.9 75.7 272.9 74.6 274 74.6 275 74.6 276 74.6 277.1 73.5 278.1 73.5 279.1 73.5 280.2 73.5 281.2 72.5 282.2 72.5 283.3 72.5 284.3 72.5 285.4 71.4 286.4 71.4 287.4 71.4 288.5 71.4 289.5 71.4 290.5 71.4 291.6 70.3 292.6 70.3 293.6 70.3 294.7 70.3 295.7 70.3 296.8 70.3 297.8 70.3 298.8 70.3 299.9 69.2 300.9 68.2 301.9 68.2 303 68.2 304 68.2 305 68.2 306.1 68.2 307.1 68.2 308.1 68.2 309.2 68.2 310.2 68.2 311.2 68.2 312.3 68.2 313.3 68.2 314.4 68.2 315.4 68.2 316.4 68.2 317.5 68.2 318.5 68.2 319.5 68.2 320.6 68.2 321.6 68.2 322.6 68.2 323.7 68.2 324.7 68.2 325.7 68.2 326.8 68.2 327.8 68.2 328.9 68.2 329.9 68.2 330.9 68.2 332 68.2 333 68.2 334 68.2 335.1 68.2 336.1 68.2 337.1 68.2 338.2 68.2 339.2 68.2 340.2 68.2 341.3 68.2 342.3 68.2 343.4 68.2"/>
      <polyline class="st13" points="229.4 141.1 230.5 140 231.5 117.5 232.6 107.8 233.6 100.3 234.6 95 235.6 90.7 236.7 86.4 237.7 83.2 238.8 80 239.8 77.8 240.8 75.7 241.9 73.5 242.9 72.5 243.9 70.3 245 68.2 246 68.2 247 67.1 248.1 63.9 249.1 63.9 250.1 63.9 251.2 62.8 252.2 61.7 253.3 60.7 254.3 60.7 255.3 59.6 256.4 58.5 257.4 58.5 258.4 58.5 259.5 57.4 260.5 57.4 261.5 56.4 262.6 56.4 263.6 56.4 264.6 55.3 265.7 55.3 266.7 55.3 267.8 55.3 268.8 55.3 269.8 54.2 270.9 54.2 271.9 54.2 272.9 54.2 274 54.2 275 54.2 276 54.2 277.1 54.2 278.1 54.2 279.1 54.2 280.2 54.2 281.2 54.2 282.2 54.2 283.3 54.2 284.3 54.2 285.4 54.2 286.4 55.3 287.4 55.3 288.5 55.3 289.5 55.3 290.5 55.3 291.6 55.3 292.6 56.4 293.6 56.4 294.7 56.4 295.7 56.4 296.8 57.4 297.8 57.4 298.8 57.4 299.9 58.5 300.9 58.5 301.9 58.5 303 59.6 304 59.6 305 59.6 306.1 141.1 307.1 141.1 308.1 141.1 309.2 141.1 310.2 141.1 311.2 141.1 312.3 141.1 313.3 141.1 314.4 141.1 315.4 141.1 316.4 141.1 317.5 141.1 318.5 141.1 319.5 141.1 320.6 141.1 321.6 141.1 322.6 141.1 323.7 141.1 324.7 141.1 325.7 141.1 326.8 141.1 327.8 141.1 328.9 141.1 329.9 141.1 330.9 141.1 332 141.1 333 141.1 334 141.1 335.1 141.1 336.1 141.1 337.1 141.1 338.2 141.1 339.2 141.1 340.2 141.1 341.3 141.1 342.3 141.1 343.4 141.1"/>
    </g>
  </g>
  <g class="st25">
    <g>
      <g class="st5">
        <text class="st7" transform="translate(199.3 144.7)"><tspan x="0" y="0">0.00</tspan></text>
      </g>
      <g class="st5">
        <text class="st7" transform="translate(199.3 117.9)"><tspan x="0" y="0">0.25</tspan></text>
      </g>
      <g class="st5">
        <text class="st7" transform="translate(199.3 91.1)"><tspan x="0" y="0">0.50</tspan></text>
      </g>
      <g class="st5">
        <text class="st7" transform="translate(199.3 64.2)"><tspan x="0" y="0">0.75</tspan></text>
      </g>
      <g class="st5">
        <text class="st7" transform="translate(199.3 37.4)"><tspan x="0" y="0">1.00</tspan></text>
      </g>
      <g class="st5">
        <text class="st7" transform="translate(226.7 158.6)"><tspan x="0" y="0">0</tspan></text>
      </g>
      <g class="st5">
        <text class="st7" transform="translate(270.9 158.6)"><tspan x="0" y="0">0.5K</tspan></text>
      </g>
      <g class="st5">
        <text class="st7" transform="translate(329.7 158.6)"><tspan x="0" y="0">K</tspan></text>
      </g>
      <g class="st5">
        <text class="st4" transform="translate(223.7 20.3)"><tspan x="0" y="0">B. α = 0.5K</tspan></text>
      </g>
    </g>
  </g>
  <g class="st29">
    <g>
      <line class="st18" x1="49.2" y1="302.2" x2="174.5" y2="302.2"/>
      <line class="st18" x1="49.2" y1="275.4" x2="174.5" y2="275.4"/>
      <line class="st18" x1="49.2" y1="248.6" x2="174.5" y2="248.6"/>
      <line class="st18" x1="49.2" y1="221.8" x2="174.5" y2="221.8"/>
      <line class="st18" x1="80.8" y1="321" x2="80.8" y2="203"/>
      <line class="st18" x1="132.6" y1="321" x2="132.6" y2="203"/>
      <line class="st16" x1="49.2" y1="315.6" x2="174.5" y2="315.6"/>
      <line class="st16" x1="49.2" y1="288.8" x2="174.5" y2="288.8"/>
      <line class="st16" x1="49.2" y1="262" x2="174.5" y2="262"/>
      <line class="st16" x1="49.2" y1="235.2" x2="174.5" y2="235.2"/>
      <line class="st16" x1="49.2" y1="208.4" x2="174.5" y2="208.4"/>
      <line class="st16" x1="54.9" y1="321" x2="54.9" y2="203"/>
      <line class="st16" x1="106.7" y1="321" x2="106.7" y2="203"/>
      <line class="st16" x1="158.5" y1="321" x2="158.5" y2="203"/>
      <polyline class="st22" points="54.9 315.6 56 296.3 57 295.2 58 291 59.1 288.8 60.1 288.8 61.1 287.7 62.2 286.7 63.2 285.6 64.2 284.5 65.3 283.5 66.3 282.4 67.3 282.4 68.4 281.3 69.4 281.3 70.4 280.2 71.5 280.2 72.5 280.2 73.6 280.2 74.6 279.2 75.6 279.2 76.7 279.2 77.7 278.1 78.7 278.1 79.8 277 80.8 277 81.8 277 82.9 277 83.9 275.9 84.9 275.9 86 275.9 87 275.9 88.1 275.9 89.1 274.9 90.1 274.9 91.2 274.9 92.2 274.9 93.2 274.9 94.3 274.9 95.3 273.8 96.3 273.8 97.4 273.8 98.4 273.8 99.4 273.8 100.5 273.8 101.5 272.7 102.6 272.7 103.6 272.7 104.6 272.7 105.7 272.7 106.7 272.7 107.7 272.7 108.8 272.7 109.8 272.7 110.8 271.6 111.9 271.6 112.9 271.6 113.9 271.6 115 271.6 116 271.6 117.1 271.6 118.1 271.6 119.1 271.6 120.2 271.6 121.2 270.6 122.2 270.6 123.3 270.6 124.3 270.6 125.3 270.6 126.4 270.6 127.4 270.6 128.4 270.6 129.5 270.6 130.5 270.6 131.6 270.6 132.6 270.6 133.6 269.5 134.6 269.5 135.7 269.5 136.7 269.5 137.8 269.5 138.8 269.5 139.8 269.5 140.9 269.5 141.9 269.5 142.9 269.5 144 269.5 145 269.5 146 269.5 147.1 269.5 148.1 269.5 149.1 269.5 150.2 269.5 151.2 269.5 152.3 269.5 153.3 269.5 154.3 269.5 155.4 269.5 156.4 269.5 157.4 268.4 158.5 268.4 159.5 268.4 160.5 268.4 161.6 268.4 162.6 268.4 163.6 268.4 164.7 268.4 165.7 268.4 166.8 268.4 167.8 268.4 168.8 268.4"/>
      <polyline class="st17" points="54.9 315.6 56 308.1 57 306 58 306 59.1 304.9 60.1 303.8 61.1 303.8 62.2 302.8 63.2 302.8 64.2 302.8 65.3 302.8 66.3 302.8 67.3 301.7 68.4 301.7 69.4 301.7 70.4 301.7 71.5 301.7 72.5 301.7 73.6 301.7 74.6 301.7 75.6 301.7 76.7 301.7 77.7 301.7 78.7 300.6 79.8 300.6 80.8 301.7 81.8 301.7 82.9 301.7 83.9 301.7 84.9 300.6 86 300.6 87 300.6 88.1 301.7 89.1 301.7 90.1 301.7 91.2 301.7 92.2 301.7 93.2 301.7 94.3 301.7 95.3 301.7 96.3 301.7 97.4 301.7 98.4 301.7 99.4 301.7 100.5 301.7 101.5 301.7 102.6 301.7 103.6 301.7 104.6 301.7 105.7 301.7 106.7 301.7 107.7 301.7 108.8 301.7 109.8 301.7 110.8 301.7 111.9 301.7 112.9 301.7 113.9 301.7 115 302.8 116 302.8 117.1 302.8 118.1 302.8 119.1 302.8 120.2 302.8 121.2 302.8 122.2 302.8 123.3 302.8 124.3 302.8 125.3 302.8 126.4 302.8 127.4 302.8 128.4 302.8 129.5 302.8 130.5 302.8 131.6 302.8 132.6 302.8 133.6 302.8 134.6 302.8 135.7 303.8 136.7 303.8 137.8 303.8 138.8 303.8 139.8 303.8 140.9 303.8 141.9 303.8 142.9 303.8 144 303.8 145 303.8 146 303.8 147.1 303.8 148.1 303.8 149.1 303.8 150.2 303.8 151.2 303.8 152.3 303.8 153.3 303.8 154.3 303.8 155.4 303.8 156.4 303.8 157.4 304.9 158.5 304.9 159.5 304.9 160.5 304.9 161.6 304.9 162.6 304.9 163.6 304.9 164.7 304.9 165.7 304.9 166.8 304.9 167.8 304.9 168.8 304.9"/>
      <polyline class="st11" points="54.9 315.6 56 315.6 57 315.6 58 315.6 59.1 315.6 60.1 315.6 61.1 315.6 62.2 315.6 63.2 315.6 64.2 315.6 65.3 315.6 66.3 315.6 67.3 315.6 68.4 315.6 69.4 315.6 70.4 315.6 71.5 315.6 72.5 315.6 73.6 315.6 74.6 315.6 75.6 315.6 76.7 315.6 77.7 315.6 78.7 315.6 79.8 315.6 80.8 315.6 81.8 315.6 82.9 315.6 83.9 315.6 84.9 315.6 86 315.6 87 315.6 88.1 315.6 89.1 315.6 90.1 315.6 91.2 314.5 92.2 314.5 93.2 314.5 94.3 314.5 95.3 314.5 96.3 314.5 97.4 314.5 98.4 314.5 99.4 314.5 100.5 314.5 101.5 314.5 102.6 314.5 103.6 314.5 104.6 314.5 105.7 314.5 106.7 314.5 107.7 314.5 108.8 314.5 109.8 314.5 110.8 314.5 111.9 314.5 112.9 314.5 113.9 314.5 115 314.5 116 314.5 117.1 314.5 118.1 314.5 119.1 314.5 120.2 314.5 121.2 314.5 122.2 314.5 123.3 314.5 124.3 314.5 125.3 314.5 126.4 314.5 127.4 314.5 128.4 314.5 129.5 314.5 130.5 314.5 131.6 314.5 132.6 314.5 133.6 314.5 134.6 314.5 135.7 314.5 136.7 314.5 137.8 314.5 138.8 314.5 139.8 314.5 140.9 314.5 141.9 314.5 142.9 314.5 144 314.5 145 314.5 146 314.5 147.1 314.5 148.1 314.5 149.1 314.5 150.2 314.5 151.2 314.5 152.3 314.5 153.3 314.5 154.3 314.5 155.4 314.5 156.4 314.5 157.4 314.5 158.5 314.5 159.5 314.5 160.5 314.5 161.6 314.5 162.6 314.5 163.6 314.5 164.7 314.5 165.7 314.5 166.8 314.5 167.8 314.5 168.8 314.5"/>
      <polyline class="st13" points="54.9 315.6 56 315.6 57 315.6 58 315.6 59.1 315.6 60.1 315.6 61.1 315.6 62.2 315.6 63.2 315.6 64.2 315.6 65.3 315.6 66.3 315.6 67.3 315.6 68.4 315.6 69.4 315.6 70.4 315.6 71.5 315.6 72.5 315.6 73.6 315.6 74.6 315.6 75.6 315.6 76.7 315.6 77.7 315.6 78.7 315.6 79.8 315.6 80.8 315.6 81.8 315.6 82.9 315.6 83.9 315.6 84.9 315.6 86 315.6 87 315.6 88.1 315.6 89.1 315.6 90.1 315.6 91.2 315.6 92.2 315.6 93.2 315.6 94.3 315.6 95.3 315.6 96.3 315.6 97.4 315.6 98.4 315.6 99.4 315.6 100.5 315.6 101.5 315.6 102.6 315.6 103.6 315.6 104.6 315.6 105.7 315.6 106.7 315.6 107.7 315.6 108.8 315.6 109.8 315.6 110.8 315.6 111.9 315.6 112.9 315.6 113.9 315.6 115 315.6 116 315.6 117.1 315.6 118.1 315.6 119.1 315.6 120.2 315.6 121.2 315.6 122.2 315.6 123.3 315.6 124.3 315.6 125.3 315.6 126.4 315.6 127.4 315.6 128.4 315.6 129.5 315.6 130.5 315.6 131.6 315.6 132.6 315.6 133.6 315.6 134.6 315.6 135.7 315.6 136.7 315.6 137.8 315.6 138.8 315.6 139.8 315.6 140.9 315.6 141.9 315.6 142.9 315.6 144 315.6 145 315.6 146 315.6 147.1 315.6 148.1 315.6 149.1 315.6 150.2 315.6 151.2 315.6 152.3 315.6 153.3 315.6 154.3 315.6 155.4 315.6 156.4 315.6 157.4 315.6 158.5 315.6 159.5 315.6 160.5 315.6 161.6 315.6 162.6 315.6 163.6 315.6 164.7 315.6 165.7 315.6 166.8 315.6 167.8 315.6 168.8 315.6"/>
    </g>
  </g>
  <g class="st0">
    <g>
      <g class="st5">
        <text class="st7" transform="translate(24.8 319.2)"><tspan x="0" y="0">0.00</tspan></text>
      </g>
      <g class="st5">
        <text class="st7" transform="translate(24.8 292.4)"><tspan x="0" y="0">0.25</tspan></text>
      </g>
      <g class="st5">
        <text class="st7" transform="translate(24.8 265.6)"><tspan x="0" y="0">0.50</tspan></text>
      </g>
      <g class="st5">
        <text class="st7" transform="translate(24.8 238.8)"><tspan x="0" y="0">0.75</tspan></text>
      </g>
      <g class="st5">
        <text class="st7" transform="translate(24.8 211.9)"><tspan x="0" y="0">1.00</tspan></text>
      </g>
      <g class="st5">
        <text class="st7" transform="translate(52.1 333.1)"><tspan x="0" y="0">0</tspan></text>
      </g>
      <g class="st5">
        <text class="st7" transform="translate(96.4 333.1)"><tspan x="0" y="0">0.5K</tspan></text>
      </g>
      <g class="st5">
        <text class="st7" transform="translate(155.1 333.1)"><tspan x="0" y="0">K</tspan></text>
      </g>
      <g class="st5">
        <text class="st6" transform="translate(64.2 346.5)"><tspan x="0" y="0">local EGC density</tspan></text>
      </g>
      <g class="st5">
        <text class="st6" transform="translate(19.6 319.6) rotate(-90)"><tspan x="0" y="0">optimal</tspan></text>
        <text class="st6" transform="translate(19.6 280.9) rotate(-90)"><tspan x="0" y="0"> </tspan></text>
        <text class="st6" transform="translate(19.6 277.7) rotate(-90)"><tspan x="0" y="0">removal</tspan></text>
        <text class="st6" transform="translate(19.6 235) rotate(-90)"><tspan x="0" y="0"> </tspan></text>
        <text class="st6" transform="translate(19.6 231.8) rotate(-90)"><tspan x="0" y="0">effort</tspan></text>
      </g>
      <g class="st5">
        <text class="st4" transform="translate(49.2 194.8)"><tspan x="0" y="0">C. α = 1.0K</tspan></text>
      </g>
    </g>
  </g>
  <g class="st1">
    <g>
      <line class="st18" x1="223.7" y1="302.2" x2="349" y2="302.2"/>
      <line class="st18" x1="223.7" y1="275.4" x2="349" y2="275.4"/>
      <line class="st18" x1="223.7" y1="248.6" x2="349" y2="248.6"/>
      <line class="st18" x1="223.7" y1="221.8" x2="349" y2="221.8"/>
      <line class="st18" x1="255.3" y1="321" x2="255.3" y2="203"/>
      <line class="st18" x1="307.1" y1="321" x2="307.1" y2="203"/>
      <line class="st16" x1="223.7" y1="315.6" x2="349" y2="315.6"/>
      <line class="st16" x1="223.7" y1="288.8" x2="349" y2="288.8"/>
      <line class="st16" x1="223.7" y1="262" x2="349" y2="262"/>
      <line class="st16" x1="223.7" y1="235.2" x2="349" y2="235.2"/>
      <line class="st16" x1="223.7" y1="208.4" x2="349" y2="208.4"/>
      <line class="st16" x1="229.4" y1="321" x2="229.4" y2="203"/>
      <line class="st16" x1="281.2" y1="321" x2="281.2" y2="203"/>
      <line class="st16" x1="333" y1="321" x2="333" y2="203"/>
      <polyline class="st22" points="229.4 315.6 230.5 313.5 231.5 311.3 232.6 312.4 233.6 310.3 234.6 311.3 235.6 310.3 236.7 309.2 237.7 309.2 238.8 308.1 239.8 308.1 240.8 308.1 241.9 308.1 242.9 308.1 243.9 309.2 245 308.1 246 308.1 247 307 248.1 307 249.1 307 250.1 306 251.2 307 252.2 307 253.3 307 254.3 307 255.3 307 256.4 306 257.4 306 258.4 306 259.5 306 260.5 306 261.5 306 262.6 306 263.6 306 264.6 306 265.7 306 266.7 306 267.8 304.9 268.8 304.9 269.8 304.9 270.9 304.9 271.9 304.9 272.9 304.9 274 304.9 275 304.9 276 304.9 277.1 304.9 278.1 304.9 279.1 304.9 280.2 304.9 281.2 304.9 282.2 304.9 283.3 304.9 284.3 304.9 285.4 304.9 286.4 304.9 287.4 303.8 288.5 303.8 289.5 303.8 290.5 303.8 291.6 303.8 292.6 303.8 293.6 303.8 294.7 303.8 295.7 303.8 296.8 303.8 297.8 303.8 298.8 303.8 299.9 303.8 300.9 303.8 301.9 303.8 303 303.8 304 303.8 305 303.8 306.1 303.8 307.1 303.8 308.1 303.8 309.2 303.8 310.2 303.8 311.2 302.8 312.3 302.8 313.3 302.8 314.4 302.8 315.4 302.8 316.4 302.8 317.5 302.8 318.5 302.8 319.5 302.8 320.6 302.8 321.6 302.8 322.6 302.8 323.7 302.8 324.7 302.8 325.7 302.8 326.8 302.8 327.8 302.8 328.9 302.8 329.9 302.8 330.9 302.8 332 302.8 333 302.8 334 302.8 335.1 302.8 336.1 302.8 337.1 302.8 338.2 302.8 339.2 302.8 340.2 302.8 341.3 302.8 342.3 302.8 343.4 302.8"/>
      <polyline class="st17" points="229.4 315.6 230.5 315.6 231.5 315.6 232.6 315.6 233.6 315.6 234.6 315.6 235.6 314.5 236.7 315.6 237.7 314.5 238.8 315.6 239.8 314.5 240.8 314.5 241.9 314.5 242.9 314.5 243.9 314.5 245 314.5 246 314.5 247 314.5 248.1 314.5 249.1 314.5 250.1 314.5 251.2 314.5 252.2 314.5 253.3 314.5 254.3 314.5 255.3 314.5 256.4 314.5 257.4 314.5 258.4 314.5 259.5 314.5 260.5 314.5 261.5 314.5 262.6 314.5 263.6 314.5 264.6 314.5 265.7 314.5 266.7 314.5 267.8 314.5 268.8 314.5 269.8 314.5 270.9 314.5 271.9 314.5 272.9 314.5 274 314.5 275 314.5 276 314.5 277.1 314.5 278.1 314.5 279.1 314.5 280.2 314.5 281.2 314.5 282.2 314.5 283.3 314.5 284.3 314.5 285.4 314.5 286.4 314.5 287.4 314.5 288.5 314.5 289.5 314.5 290.5 314.5 291.6 314.5 292.6 314.5 293.6 314.5 294.7 314.5 295.7 314.5 296.8 314.5 297.8 314.5 298.8 314.5 299.9 314.5 300.9 314.5 301.9 314.5 303 314.5 304 314.5 305 314.5 306.1 314.5 307.1 314.5 308.1 314.5 309.2 314.5 310.2 314.5 311.2 314.5 312.3 314.5 313.3 314.5 314.4 314.5 315.4 314.5 316.4 314.5 317.5 314.5 318.5 314.5 319.5 314.5 320.6 314.5 321.6 314.5 322.6 314.5 323.7 314.5 324.7 314.5 325.7 314.5 326.8 314.5 327.8 314.5 328.9 314.5 329.9 314.5 330.9 314.5 332 314.5 333 314.5 334 314.5 335.1 314.5 336.1 314.5 337.1 314.5 338.2 314.5 339.2 314.5 340.2 314.5 341.3 314.5 342.3 314.5 343.4 314.5"/>
      <polyline class="st11" points="229.4 315.6 230.5 315.6 231.5 315.6 232.6 315.6 233.6 315.6 234.6 315.6 235.6 315.6 236.7 315.6 237.7 315.6 238.8 315.6 239.8 315.6 240.8 315.6 241.9 315.6 242.9 315.6 243.9 315.6 245 315.6 246 315.6 247 315.6 248.1 315.6 249.1 315.6 250.1 315.6 251.2 315.6 252.2 315.6 253.3 315.6 254.3 315.6 255.3 315.6 256.4 315.6 257.4 315.6 258.4 315.6 259.5 315.6 260.5 315.6 261.5 315.6 262.6 315.6 263.6 315.6 264.6 315.6 265.7 315.6 266.7 315.6 267.8 315.6 268.8 315.6 269.8 315.6 270.9 315.6 271.9 315.6 272.9 315.6 274 315.6 275 315.6 276 315.6 277.1 315.6 278.1 315.6 279.1 315.6 280.2 315.6 281.2 315.6 282.2 315.6 283.3 315.6 284.3 315.6 285.4 315.6 286.4 315.6 287.4 315.6 288.5 315.6 289.5 315.6 290.5 315.6 291.6 315.6 292.6 315.6 293.6 315.6 294.7 315.6 295.7 315.6 296.8 315.6 297.8 315.6 298.8 315.6 299.9 315.6 300.9 315.6 301.9 315.6 303 315.6 304 315.6 305 315.6 306.1 315.6 307.1 315.6 308.1 315.6 309.2 315.6 310.2 315.6 311.2 315.6 312.3 315.6 313.3 315.6 314.4 315.6 315.4 315.6 316.4 315.6 317.5 315.6 318.5 315.6 319.5 315.6 320.6 315.6 321.6 315.6 322.6 315.6 323.7 315.6 324.7 315.6 325.7 315.6 326.8 315.6 327.8 315.6 328.9 315.6 329.9 315.6 330.9 315.6 332 315.6 333 315.6 334 315.6 335.1 315.6 336.1 315.6 337.1 315.6 338.2 315.6 339.2 315.6 340.2 315.6 341.3 315.6 342.3 315.6 343.4 315.6"/>
      <polyline class="st13" points="229.4 315.6 230.5 315.6 231.5 315.6 232.6 315.6 233.6 315.6 234.6 315.6 235.6 315.6 236.7 315.6 237.7 315.6 238.8 315.6 239.8 315.6 240.8 315.6 241.9 315.6 242.9 315.6 243.9 315.6 245 315.6 246 315.6 247 315.6 248.1 315.6 249.1 315.6 250.1 315.6 251.2 315.6 252.2 315.6 253.3 315.6 254.3 315.6 255.3 315.6 256.4 315.6 257.4 315.6 258.4 315.6 259.5 315.6 260.5 315.6 261.5 315.6 262.6 315.6 263.6 315.6 264.6 315.6 265.7 315.6 266.7 315.6 267.8 315.6 268.8 315.6 269.8 315.6 270.9 315.6 271.9 315.6 272.9 315.6 274 315.6 275 315.6 276 315.6 277.1 315.6 278.1 315.6 279.1 315.6 280.2 315.6 281.2 315.6 282.2 315.6 283.3 315.6 284.3 315.6 285.4 315.6 286.4 315.6 287.4 315.6 288.5 315.6 289.5 315.6 290.5 315.6 291.6 315.6 292.6 315.6 293.6 315.6 294.7 315.6 295.7 315.6 296.8 315.6 297.8 315.6 298.8 315.6 299.9 315.6 300.9 315.6 301.9 315.6 303 315.6 304 315.6 305 315.6 306.1 315.6 307.1 315.6 308.1 315.6 309.2 315.6 310.2 315.6 311.2 315.6 312.3 315.6 313.3 315.6 314.4 315.6 315.4 315.6 316.4 315.6 317.5 315.6 318.5 315.6 319.5 315.6 320.6 315.6 321.6 315.6 322.6 315.6 323.7 315.6 324.7 315.6 325.7 315.6 326.8 315.6 327.8 315.6 328.9 315.6 329.9 315.6 330.9 315.6 332 315.6 333 315.6 334 315.6 335.1 315.6 336.1 315.6 337.1 315.6 338.2 315.6 339.2 315.6 340.2 315.6 341.3 315.6 342.3 315.6 343.4 315.6"/>
    </g>
  </g>
  <g class="st30">
    <g>
      <g class="st5">
        <text class="st7" transform="translate(199.3 319.2)"><tspan x="0" y="0">0.00</tspan></text>
      </g>
      <g class="st5">
        <text class="st7" transform="translate(199.3 292.4)"><tspan x="0" y="0">0.25</tspan></text>
      </g>
      <g class="st5">
        <text class="st7" transform="translate(199.3 265.6)"><tspan x="0" y="0">0.50</tspan></text>
      </g>
      <g class="st5">
        <text class="st7" transform="translate(199.3 238.8)"><tspan x="0" y="0">0.75</tspan></text>
      </g>
      <g class="st5">
        <text class="st7" transform="translate(199.3 211.9)"><tspan x="0" y="0">1.00</tspan></text>
      </g>
      <g class="st5">
        <text class="st7" transform="translate(226.7 333.1)"><tspan x="0" y="0">0</tspan></text>
      </g>
      <g class="st5">
        <text class="st7" transform="translate(270.9 333.1)"><tspan x="0" y="0">0.5K</tspan></text>
      </g>
      <g class="st5">
        <text class="st7" transform="translate(329.7 333.1)"><tspan x="0" y="0">K</tspan></text>
      </g>
      <g class="st5">
        <text class="st6" transform="translate(238.7 346.5)"><tspan x="0" y="0">local EGC density</tspan></text>
      </g>
      <g class="st5">
        <text class="st4" transform="translate(223.7 194.8)"><tspan x="0" y="0">D. α = 5.0K</tspan></text>
      </g>
    </g>
  </g>
  <rect class="st36" x="371.7" y="48.7" width="184.4" height="266.9"/>
  <rect class="st14" x="374.4" y="83.3" width="180" height="108"/>
  <g class="st5">
    <text class="st8" transform="translate(439.9 68.6)"><tspan x="0" y="0">Legend</tspan></text>
  </g>
  <rect class="st14" x="376.1" y="83.5" width="180" height="108"/>
  <rect class="st14" x="374.4" y="202.7" width="180" height="108"/>
  <g class="st26">
    <g>
      <line class="st15" x1="411.3" y1="257.9" x2="471.5" y2="257.9"/>
      <line class="st15" x1="438.9" y1="284.2" x2="438.9" y2="231.7"/>
      <line class="st23" x1="411.3" y1="234.1" x2="471.5" y2="234.1"/>
      <line class="st23" x1="411.3" y1="281.7" x2="471.5" y2="281.7"/>
      <line class="st23" x1="414.1" y1="284.2" x2="414.1" y2="231.7"/>
      <line class="st23" x1="463.8" y1="284.2" x2="463.8" y2="231.7"/>
      <polyline class="st21" points="414.1 234.1 414.6 235.9 415.1 237.8 415.6 239.5 416.1 241.2 416.6 242.7 417.1 244.3 417.5 245.8 418 247.2 418.5 248.5 419 249.9 419.5 251.1 420 252.3 420.5 253.5 421 254.6 421.5 255.7 422 256.7 422.5 257.7 423 258.6 423.5 259.6 424 260.4 424.5 261.3 425 262.1 425.5 262.9 426 263.6 426.5 264.3 427 265 427.5 265.7 428 266.3 428.5 266.9 429 267.5 429.5 268.1 430 268.6 430.5 269.2 431 269.7 431.5 270.1 432 270.6 432.5 271.1 433 271.5 433.5 271.9 434 272.3 434.5 272.7 435 273 435.5 273.4 436 273.7 436.5 274 437 274.3 437.5 274.6 438 274.9 438.4 275.2 438.9 275.5 439.4 275.7 439.9 276 440.4 276.2 440.9 276.4 441.4 276.6 441.9 276.9 442.4 277.1 442.9 277.2 443.4 277.4 443.9 277.6 444.4 277.8 444.9 277.9 445.4 278.1 445.9 278.2 446.4 278.4 446.9 278.5 447.4 278.7 447.9 278.8 448.4 278.9 448.9 279 449.4 279.2 449.9 279.3 450.4 279.4 450.9 279.5 451.4 279.6 451.9 279.7 452.4 279.7 452.9 279.8 453.4 279.9 453.9 280 454.4 280.1 454.9 280.1 455.4 280.2 455.9 280.3 456.4 280.4 456.9 280.4 457.4 280.5 457.9 280.5 458.4 280.6 458.9 280.6 459.3 280.7 459.8 280.7 460.3 280.8 460.8 280.8 461.3 280.9 461.8 280.9 462.3 281 462.8 281 463.3 281 463.8 281.1 464.3 281.1 464.8 281.1 465.3 281.2 465.8 281.2 466.3 281.2 466.8 281.3 467.3 281.3 467.8 281.3 468.3 281.3 468.8 281.4"/>
      <polyline class="st12" points="414.1 234.2 414.6 234.2 415.1 234.2 415.6 234.3 416.1 234.3 416.6 234.3 417.1 234.4 417.5 234.4 418 234.5 418.5 234.5 419 234.6 419.5 234.7 420 234.8 420.5 234.9 421 235 421.5 235.2 422 235.3 422.5 235.5 423 235.8 423.5 236 424 236.3 424.5 236.7 425 237.1 425.5 237.5 426 238 426.5 238.6 427 239.3 427.5 240 428 240.8 428.5 241.8 429 242.8 429.5 243.9 430 245.1 430.5 246.4 431 247.9 431.5 249.4 432 251 432.5 252.7 433 254.4 433.5 256.2 434 257.9 434.5 259.7 435 261.5 435.5 263.2 436 264.9 436.5 266.5 437 268 437.5 269.4 438 270.8 438.4 272 438.9 273.1 439.4 274.1 439.9 275 440.4 275.9 440.9 276.6 441.4 277.3 441.9 277.8 442.4 278.3 442.9 278.8 443.4 279.2 443.9 279.5 444.4 279.8 444.9 280.1 445.4 280.3 445.9 280.5 446.4 280.7 446.9 280.9 447.4 281 447.9 281.1 448.4 281.2 448.9 281.3 449.4 281.4 449.9 281.4 450.4 281.5 450.9 281.5 451.4 281.6 451.9 281.6 452.4 281.6 452.9 281.6 453.4 281.7 453.9 281.7 454.4 281.7 454.9 281.7 455.4 281.7 455.9 281.7 456.4 281.7 456.9 281.8 457.4 281.8 457.9 281.8 458.4 281.8 458.9 281.8 459.3 281.8 459.8 281.8 460.3 281.8 460.8 281.8 461.3 281.8 461.8 281.8 462.3 281.8 462.8 281.8 463.3 281.8 463.8 281.8 464.3 281.8 464.8 281.8 465.3 281.8 465.8 281.8 466.3 281.8 466.8 281.8 467.3 281.8 467.8 281.8 468.3 281.8 468.8 281.8"/>
    </g>
  </g>
  <rect class="st14" x="374.4" y="202.7" width="180" height="108"/>
  <text class="st10" transform="translate(402.8 236.4)"><tspan x="0" y="0">0</tspan></text>
  <text class="st10" transform="translate(391.8 284)"><tspan x="0" y="0">-0.98</tspan></text>
  <text class="st10" transform="translate(412.3 293.7)"><tspan x="0" y="0">0</tspan></text>
  <text class="st10" transform="translate(461.7 293.7)"><tspan x="0" y="0">K</tspan></text>
  <text class="st9" transform="translate(403.9 303.5)"><tspan x="0" y="0">local EGC density (s)</tspan></text>
  <text class="st9" transform="translate(385.7 298.2) rotate(-90)"><tspan x="0" y="0">weighted value (</tspan></text>
  <text class="st9" transform="translate(385.7 239.9) rotate(-90)"><tspan x="0" y="0">w</tspan></text>
  <text class="st3" transform="translate(387.2 234.1) rotate(-90)"><tspan x="0" y="0">d</tspan></text>
  <text class="st9" transform="translate(385.7 228.8) rotate(-90)"><tspan x="0" y="0">V</tspan></text>
  <text class="st3" transform="translate(387.2 223.5) rotate(-90)"><tspan x="0" y="0">d</tspan></text>
  <text class="st9" transform="translate(385.7 220.4) rotate(-90)"><tspan x="0" y="0">)</tspan></text>
  <line class="st21" x1="484.7" y1="255.7" x2="498.5" y2="255.7"/>
  <line class="st12" x1="484.7" y1="273" x2="498.5" y2="273"/>
  <text class="st9" transform="translate(505.7 258)"><tspan x="0" y="0">exponential</tspan></text>
  <text class="st9" transform="translate(505.7 275.3)"><tspan x="0" y="0">sigmoidal</tspan></text>
  <text class="st2" transform="translate(404.9 214.6)"><tspan x="0" y="0">Ecological change</tspan></text>
  <text class="st2" transform="translate(425.7 224.3)"><tspan x="0" y="0">function</tspan></text>
  <rect class="st14" x="374.4" y="86.8" width="180" height="108"/>
  <g class="st33">
    <g>
      <line class="st15" x1="411.3" y1="142.1" x2="477.9" y2="142.1"/>
      <line class="st15" x1="444.6" y1="168.3" x2="444.6" y2="115.8"/>
      <line class="st23" x1="411.3" y1="118.2" x2="477.9" y2="118.2"/>
      <line class="st23" x1="411.3" y1="166" x2="477.9" y2="166"/>
      <line class="st23" x1="414.4" y1="168.3" x2="414.4" y2="115.8"/>
      <line class="st23" x1="474.9" y1="168.3" x2="474.9" y2="115.8"/>
      <polyline class="st19" points="414.4 118.2 415 118.7 415.6 119.2 416.2 119.7 416.8 120.1 417.4 120.6 418 121.1 418.6 121.6 419.2 122 419.8 122.5 420.4 123 421 123.5 421.6 124 422.2 124.4 422.8 124.9 423.4 125.4 424 125.9 424.7 126.3 425.3 126.8 425.9 127.3 426.5 127.8 427.1 128.3 427.7 128.7 428.3 129.2 428.9 129.7 429.5 130.2 430.1 130.6 430.7 131.1 431.3 131.6 431.9 132.1 432.5 132.6 433.1 133 433.7 133.5 434.3 134 434.9 134.5 435.6 134.9 436.2 135.4 436.8 135.9 437.4 136.4 438 136.8 438.6 137.3 439.2 137.8 439.8 138.3 440.4 138.8 441 139.2 441.6 139.7 442.2 140.2 442.8 140.7 443.4 141.1 444 141.6 444.6 142.1 445.2 142.6 445.8 143.1 446.5 143.5 447.1 144 447.7 144.5 448.3 145 448.9 145.4 449.5 145.9 450.1 146.4 450.7 146.9 451.3 147.3 451.9 147.8 452.5 148.3 453.1 148.8 453.7 149.3 454.3 149.7 454.9 150.2 455.5 150.7 456.1 151.2 456.7 151.6 457.4 152.1 458 152.6 458.6 153.1 459.2 153.6 459.8 154 460.4 154.5 461 155 461.6 155.5 462.2 155.9 462.8 156.4 463.4 156.9 464 157.4 464.6 157.8 465.2 158.3 465.8 158.8 466.4 159.3 467 159.8 467.6 160.2 468.3 160.7 468.9 161.2 469.5 161.7 470.1 162.1 470.7 162.6 471.3 163.1 471.9 163.6 472.5 164.1 473.1 164.5 473.7 165 474.3 165.5 474.9 166"/>
      <polyline class="st20" points="414.4 118.2 415 118.2 415.6 118.2 416.2 118.2 416.8 118.2 417.4 118.2 418 118.2 418.6 118.2 419.2 118.2 419.8 118.2 420.4 118.2 421 118.2 421.6 118.2 422.2 118.2 422.8 118.2 423.4 118.3 424 118.3 424.7 118.3 425.3 118.3 425.9 118.3 426.5 118.3 427.1 118.3 427.7 118.3 428.3 118.4 428.9 118.4 429.5 118.4 430.1 118.4 430.7 118.5 431.3 118.5 431.9 118.6 432.5 118.6 433.1 118.7 433.7 118.7 434.3 118.8 434.9 118.9 435.6 118.9 436.2 119 436.8 119.1 437.4 119.2 438 119.3 438.6 119.5 439.2 119.6 439.8 119.7 440.4 119.9 441 120 441.6 120.2 442.2 120.4 442.8 120.6 443.4 120.8 444 121 444.6 121.2 445.2 121.5 445.8 121.7 446.5 122 447.1 122.3 447.7 122.6 448.3 122.9 448.9 123.3 449.5 123.6 450.1 124 450.7 124.4 451.3 124.8 451.9 125.3 452.5 125.8 453.1 126.2 453.7 126.8 454.3 127.3 454.9 127.8 455.5 128.4 456.1 129.1 456.7 129.7 457.4 130.4 458 131.1 458.6 131.8 459.2 132.5 459.8 133.3 460.4 134.2 461 135 461.6 135.9 462.2 136.8 462.8 137.8 463.4 138.8 464 139.8 464.6 140.9 465.2 142 465.8 143.1 466.4 144.3 467 145.6 467.6 146.9 468.3 148.2 468.9 149.5 469.5 151 470.1 152.4 470.7 153.9 471.3 155.5 471.9 157.1 472.5 158.8 473.1 160.5 473.7 162.3 474.3 164.1 474.9 166"/>
    </g>
  </g>
  <rect class="st14" x="374.4" y="86.8" width="180" height="108"/>
  <text class="st10" transform="translate(402.8 120.5)"><tspan x="0" y="0">0</tspan></text>
  <text class="st10" transform="translate(391.8 168.3)"><tspan x="0" y="0">-0.02</tspan></text>
  <text class="st10" transform="translate(412.6 177.9)"><tspan x="0" y="0">0</tspan></text>
  <text class="st10" transform="translate(473.1 177.9)"><tspan x="0" y="0">1</tspan></text>
  <text class="st9" transform="translate(414.2 187.7)"><tspan x="0" y="0">removal</tspan><tspan class="st27" x="28.5" y="0"> </tspan><tspan x="30.6" y="0">effort</tspan><tspan class="st31" x="48.8" y="0"> </tspan><tspan x="51" y="0">(a)</tspan></text>
  <text class="st9" transform="translate(385.7 182) rotate(-90)"><tspan x="0" y="0">weighted value (</tspan></text>
  <text class="st9" transform="translate(385.7 123.7) rotate(-90)"><tspan x="0" y="0">w</tspan></text>
  <text class="st3" transform="translate(387.2 118) rotate(-90)"><tspan x="0" y="0">c</tspan></text>
  <text class="st9" transform="translate(385.7 113) rotate(-90)"><tspan x="0" y="0">V</tspan></text>
  <text class="st3" transform="translate(387.2 107.6) rotate(-90)"><tspan x="0" y="0">c</tspan></text>
  <text class="st9" transform="translate(385.7 104.8) rotate(-90)"><tspan x="0" y="0">)</tspan></text>
  <line class="st19" x1="488.1" y1="139.9" x2="501.9" y2="139.9"/>
  <line class="st20" x1="488.1" y1="157.2" x2="501.9" y2="157.2"/>
  <text class="st9" transform="translate(509.1 142.2)"><tspan x="0" y="0">linear</tspan></text>
  <text class="st9" transform="translate(509.1 159.5)"><tspan x="0" y="0">nonlinear</tspan></text>
  <text class="st2" transform="translate(417.4 98.8)"><tspan x="0" y="0">Removal cost</tspan></text>
  <text class="st2" transform="translate(428.9 108.5)"><tspan x="0" y="0">function</tspan></text>
</svg>