<?xml version="1.0" encoding="UTF-8"?>
<svg id="Layer_1" xmlns="http://www.w3.org/2000/svg" version="1.1" xmlns:xlink="http://www.w3.org/1999/xlink" viewBox="0 0 499.7 180">
  <!-- Generator: Adobe Illustrator 29.1.0, SVG Export Plug-In . SVG Version: 2.1.0 Build 142)  -->
  <defs>
    <style>
      .st0 {
        fill: #9c9c9c;
      }

      .st1 {
        font-size: 11px;
      }

      .st1, .st2, .st3, .st4 {
        font-family: ArialMT, Arial;
        isolation: isolate;
      }

      .st5 {
        letter-spacing: 0em;
      }

      .st6 {
        clip-path: url(#clippath-11);
      }

      .st7, .st8, .st9, .st10, .st11 {
        fill: none;
      }

      .st8 {
        stroke-width: .5px;
      }

      .st8, .st12, .st9, .st10, .st11 {
        stroke-linejoin: round;
      }

      .st8, .st11 {
        stroke: #ebebeb;
      }

      .st13 {
        clip-path: url(#clippath-5);
      }

      .st14 {
        clip-path: url(#clippath-8);
      }

      .st15 {
        letter-spacing: 0em;
      }

      .st12 {
        fill: #fff;
        stroke: #fff;
        stroke-linecap: round;
      }

      .st12, .st11 {
        stroke-width: 1.1px;
      }

      .st16 {
        clip-path: url(#clippath-12);
      }

      .st2 {
        font-size: 12px;
      }

      .st17 {
        clip-path: url(#clippath-14);
      }

      .st9 {
        stroke-width: 3.2px;
      }

      .st9, .st10 {
        stroke: #000;
      }

      .st18 {
        fill: #d4d4d4;
      }

      .st3 {
        font-size: 10px;
      }

      .st4 {
        fill: #4d4d4d;
        font-size: 9px;
      }

      .st19 {
        clip-path: url(#clippath-13);
      }

      .st20 {
        clip-path: url(#clippath);
      }

      .st10 {
        stroke-width: 4.3px;
      }
    </style>
    <clipPath id="clippath">
      <rect class="st7" width="432" height="180"/>
    </clipPath>
    <clipPath id="clippath-5">
      <rect class="st7" width="432" height="180"/>
    </clipPath>
    <clipPath id="clippath-8">
      <rect class="st7" width="432" height="180"/>
    </clipPath>
    <clipPath id="clippath-11">
      <rect class="st7" width="432" height="180"/>
    </clipPath>
    <clipPath id="clippath-12">
      <rect class="st7" x="327" y="27.6" width="94" height="115.3"/>
    </clipPath>
    <clipPath id="clippath-13">
      <rect class="st7" x="186.7" y="27.6" width="94" height="115.3"/>
    </clipPath>
    <clipPath id="clippath-14">
      <rect class="st7" x="46.3" y="27.6" width="94" height="115.3"/>
    </clipPath>
  </defs>
  <rect class="st7" width="432" height="180"/>
  <g class="st20">
    <rect class="st12" width="432" height="180"/>
  </g>
  <g class="st13">
    <text class="st4" transform="translate(23.9 140.8)"><tspan x="0" y="0">0.00</tspan></text>
    <text class="st4" transform="translate(23.9 114.6)"><tspan x="0" y="0">0.25</tspan></text>
    <text class="st4" transform="translate(23.9 88.4)"><tspan x="0" y="0">0.50</tspan></text>
    <text class="st4" transform="translate(23.9 62.2)"><tspan x="0" y="0">0.75</tspan></text>
    <text class="st4" transform="translate(23.9 36)"><tspan x="0" y="0">1.00</tspan></text>
    <text class="st4" transform="translate(48.1 154.2)"><tspan x="0" y="0">0</tspan></text>
    <text class="st4" transform="translate(80.2 154.2)"><tspan x="0" y="0">0.5K</tspan></text>
    <text class="st4" transform="translate(125.3 154.2)"><tspan x="0" y="0">K</tspan></text>
    <text class="st1" transform="translate(49.6 166.7)"><tspan x="0" y="0">local EGC density</tspan></text>
    <text class="st1" transform="translate(18.8 138) rotate(-90)"><tspan x="0" y="0">optimal</tspan><tspan class="st15" x="35.5" y="0"> </tspan><tspan x="38.4" y="0">removal</tspan><tspan class="st5" x="77.5" y="0"> </tspan><tspan x="80.5" y="0">effort</tspan></text>
    <text class="st2" transform="translate(46.3 19.6)"><tspan x="0" y="0">A. α = 0.05K</tspan></text>
  </g>
  <g class="st14">
    <text class="st4" transform="translate(164.2 140.8)"><tspan x="0" y="0">0.00</tspan></text>
    <text class="st4" transform="translate(164.2 114.6)"><tspan x="0" y="0">0.25</tspan></text>
    <text class="st4" transform="translate(164.2 88.4)"><tspan x="0" y="0">0.50</tspan></text>
    <text class="st4" transform="translate(164.2 62.2)"><tspan x="0" y="0">0.75</tspan></text>
    <text class="st4" transform="translate(164.2 36)"><tspan x="0" y="0">1.00</tspan></text>
    <text class="st4" transform="translate(188.5 154.2)"><tspan x="0" y="0">0</tspan></text>
    <text class="st4" transform="translate(220.5 154.2)"><tspan x="0" y="0">0.5K</tspan></text>
    <text class="st4" transform="translate(265.6 154.2)"><tspan x="0" y="0">K</tspan></text>
    <text class="st1" transform="translate(190 166.7)"><tspan x="0" y="0">local EGC density</tspan></text>
    <text class="st2" transform="translate(186.7 19.6)"><tspan x="0" y="0">B. α = 0.5K</tspan></text>
  </g>
  <g class="st6">
    <text class="st4" transform="translate(304.6 140.8)"><tspan x="0" y="0">0.00</tspan></text>
    <text class="st4" transform="translate(304.6 114.6)"><tspan x="0" y="0">0.25</tspan></text>
    <text class="st4" transform="translate(304.6 88.4)"><tspan x="0" y="0">0.50</tspan></text>
    <text class="st4" transform="translate(304.6 62.2)"><tspan x="0" y="0">0.75</tspan></text>
    <text class="st4" transform="translate(304.6 36)"><tspan x="0" y="0">1.00</tspan></text>
    <text class="st4" transform="translate(328.8 154.2)"><tspan x="0" y="0">0</tspan></text>
    <text class="st4" transform="translate(360.9 154.2)"><tspan x="0" y="0">0.5K</tspan></text>
    <text class="st4" transform="translate(406 154.2)"><tspan x="0" y="0">K</tspan></text>
    <text class="st1" transform="translate(330.3 166.7)"><tspan x="0" y="0">local EGC density</tspan></text>
    <text class="st2" transform="translate(327 19.6)"><tspan x="0" y="0">C. α = 0.75K</tspan></text>
  </g>
  <rect class="st0" x="437.2" y="88.5" width="16.3" height="16.3"/>
  <rect class="st18" x="437.1" y="65.7" width="16.4" height="16.4"/>
  <text class="st3" transform="translate(458.6 77.7)"><tspan x="0" y="0">Resist</tspan></text>
  <text class="st3" transform="translate(459.4 99.9)"><tspan x="0" y="0">Accept</tspan></text>
  <rect class="st0" x="331.4" y="32.7" width="85.2" height="105.1"/>
  <g class="st16">
    <line class="st8" x1="327" y1="124.5" x2="421" y2="124.5"/>
    <line class="st8" x1="327" y1="98.3" x2="421" y2="98.3"/>
    <line class="st8" x1="327" y1="72.1" x2="421" y2="72.1"/>
    <line class="st8" x1="327" y1="45.9" x2="421" y2="45.9"/>
    <line class="st8" x1="350.7" y1="142.8" x2="350.7" y2="27.6"/>
    <line class="st8" x1="389.6" y1="142.8" x2="389.6" y2="27.6"/>
    <line class="st11" x1="327" y1="137.6" x2="421" y2="137.6"/>
    <line class="st11" x1="327" y1="111.4" x2="421" y2="111.4"/>
    <line class="st11" x1="327" y1="85.2" x2="421" y2="85.2"/>
    <line class="st11" x1="327" y1="59" x2="421" y2="59"/>
    <line class="st11" x1="327" y1="32.8" x2="421" y2="32.8"/>
    <line class="st11" x1="331.3" y1="142.8" x2="331.3" y2="27.6"/>
    <line class="st11" x1="370.1" y1="142.8" x2="370.1" y2="27.6"/>
    <line class="st11" x1="409" y1="142.8" x2="409" y2="27.6"/>
    <polyline class="st10" points="331.3 137.6 332.1 137.6 332.9 137.6 333.6 137.6 334.4 137.6 335.2 137.6 336 137.6 336.7 137.6 337.5 137.6 338.3 137.6 339.1 137.6 339.9 137.6 340.6 137.6 341.4 137.6 342.2 137.6 343 137.6 343.7 137.6 344.5 137.6 345.3 137.6 346.1 137.6 346.8 137.6 347.6 137.6 348.4 137.6 349.2 137.6 350 137.6 350.7 137.6 351.5 137.6 352.3 137.6 353.1 137.6 353.8 137.6 354.6 137.6 355.4 137.6 356.2 137.6 356.9 137.6 357.7 137.6 358.5 137.6 359.3 137.6 360 137.6 360.8 137.6 361.6 137.6 362.4 137.6 363.2 137.6 363.9 137.6 364.7 137.6 365.5 137.6 366.3 137.6 367 137.6 367.8 137.6 368.6 137.6 369.4 137.6 370.1 137.6 370.9 137.6 371.7 137.6 372.5 137.6 373.3 137.6 374 137.6 374.8 137.6 375.6 137.6 376.4 137.6 377.1 137.6 377.9 137.6 378.7 137.6 379.5 137.6 380.2 137.6 381 137.6 381.8 137.6 382.6 137.6 383.4 137.6 384.1 137.6 384.9 137.6 385.7 137.6 386.5 137.6 387.2 137.6 388 137.6 388.8 137.6 389.6 137.6 390.4 137.6 391.1 137.6 391.9 137.6 392.7 137.6 393.5 137.6 394.2 137.6 395 137.6 395.8 137.6 396.6 137.6 397.3 137.6 398.1 137.6 398.9 137.6 399.7 137.6 400.5 137.6 401.2 137.6 402 137.6 402.8 137.6 403.6 137.6 404.3 137.6 405.1 137.6 405.9 137.6 406.7 137.6 407.4 137.6 408.2 137.6 409 137.6 409.8 137.6 410.5 137.6 411.3 137.6 412.1 137.6 412.9 137.6 413.7 137.6 414.4 137.6 415.2 137.6 416 137.6 416.8 137.6"/>
  </g>
  <rect class="st18" x="190.6" y="32.7" width="57.3" height="105.1"/>
  <rect class="st0" x="247.9" y="32.7" width="28.6" height="105.1"/>
  <g class="st19">
    <line class="st8" x1="186.7" y1="124.5" x2="280.7" y2="124.5"/>
    <line class="st8" x1="186.7" y1="98.3" x2="280.7" y2="98.3"/>
    <line class="st8" x1="186.7" y1="72.1" x2="280.7" y2="72.1"/>
    <line class="st8" x1="186.7" y1="45.9" x2="280.7" y2="45.9"/>
    <line class="st8" x1="210.4" y1="142.8" x2="210.4" y2="27.6"/>
    <line class="st8" x1="249.2" y1="142.8" x2="249.2" y2="27.6"/>
    <line class="st11" x1="186.7" y1="137.6" x2="280.7" y2="137.6"/>
    <line class="st11" x1="186.7" y1="111.4" x2="280.7" y2="111.4"/>
    <line class="st11" x1="186.7" y1="85.2" x2="280.7" y2="85.2"/>
    <line class="st11" x1="186.7" y1="59" x2="280.7" y2="59"/>
    <line class="st11" x1="186.7" y1="32.8" x2="280.7" y2="32.8"/>
    <line class="st11" x1="191" y1="142.8" x2="191" y2="27.6"/>
    <line class="st11" x1="229.8" y1="142.8" x2="229.8" y2="27.6"/>
    <line class="st11" x1="268.6" y1="142.8" x2="268.6" y2="27.6"/>
    <polyline class="st9" points="191 137.6 191.7 136.6 192.5 114.6 193.3 105.1 194.1 97.8 194.8 92.5 195.6 88.3 196.4 84.2 197.2 81 197.9 77.9 198.7 75.8 199.5 73.7 200.3 71.6 201.1 70.5 201.8 68.4 202.6 66.3 203.4 66.3 204.2 65.3 204.9 62.1 205.7 62.1 206.5 62.1 207.3 61.1 208.1 60 208.8 59 209.6 59 210.4 58 211.2 56.9 211.9 56.9 212.7 56.9 213.5 55.8 214.3 55.8 215 54.8 215.8 54.8 216.6 54.8 217.4 53.8 218.1 53.8 218.9 53.8 219.7 53.8 220.5 53.8 221.3 52.7 222 52.7 222.8 52.7 223.6 52.7 224.4 52.7 225.1 52.7 225.9 52.7 226.7 52.7 227.5 52.7 228.2 52.7 229 52.7 229.8 52.7 230.6 52.7 231.4 52.7 232.1 52.7 232.9 52.7 233.7 53.8 234.5 53.8 235.2 53.8 236 53.8 236.8 53.8 237.6 53.8 238.4 54.8 239.1 54.8 239.9 54.8 240.7 54.8 241.5 55.8 242.2 55.8 243 55.8 243.8 56.9 244.6 56.9 245.3 56.9 246.1 58 246.9 58 247.7 58 248.4 137.6 249.2 137.6 250 137.6 250.8 137.6 251.6 137.6 252.3 137.6 253.1 137.6 253.9 137.6 254.7 137.6 255.4 137.6 256.2 137.6 257 137.6 257.8 137.6 258.5 137.6 259.3 137.6 260.1 137.6 260.9 137.6 261.7 137.6 262.4 137.6 263.2 137.6 264 137.6 264.8 137.6 265.5 137.6 266.3 137.6 267.1 137.6 267.9 137.6 268.6 137.6 269.4 137.6 270.2 137.6 271 137.6 271.8 137.6 272.5 137.6 273.3 137.6 274.1 137.6 274.9 137.6 275.6 137.6 276.4 137.6"/>
  </g>
  <rect class="st18" x="50.3" y="32.7" width="85.5" height="105.1"/>
  <g class="st17">
    <line class="st8" x1="46.3" y1="124.5" x2="140.4" y2="124.5"/>
    <line class="st8" x1="46.3" y1="98.3" x2="140.4" y2="98.3"/>
    <line class="st8" x1="46.3" y1="72.1" x2="140.4" y2="72.1"/>
    <line class="st8" x1="46.3" y1="45.9" x2="140.4" y2="45.9"/>
    <line class="st8" x1="70" y1="142.8" x2="70" y2="27.6"/>
    <line class="st8" x1="108.9" y1="142.8" x2="108.9" y2="27.6"/>
    <line class="st11" x1="46.3" y1="137.6" x2="140.4" y2="137.6"/>
    <line class="st11" x1="46.3" y1="111.4" x2="140.4" y2="111.4"/>
    <line class="st11" x1="46.3" y1="85.2" x2="140.4" y2="85.2"/>
    <line class="st11" x1="46.3" y1="59" x2="140.4" y2="59"/>
    <line class="st11" x1="46.3" y1="32.8" x2="140.4" y2="32.8"/>
    <line class="st11" x1="50.6" y1="142.8" x2="50.6" y2="27.6"/>
    <line class="st11" x1="89.5" y1="142.8" x2="89.5" y2="27.6"/>
    <line class="st11" x1="128.3" y1="142.8" x2="128.3" y2="27.6"/>
    <polyline class="st9" points="50.6 137.6 51.4 103 52.2 86.2 52.9 74.7 53.7 66.3 54.5 61.1 55.3 55.8 56 51.7 56.8 48.5 57.6 44.3 58.4 42.2 59.2 39.1 59.9 33.8 60.7 33.8 61.5 32.8 62.3 32.8 63 32.8 63.8 32.8 64.6 32.8 65.4 32.8 66.2 32.8 66.9 32.8 67.7 32.8 68.5 32.8 69.3 32.8 70 32.8 70.8 32.8 71.6 32.8 72.4 32.8 73.1 32.8 73.9 32.8 74.7 32.8 75.5 32.8 76.2 32.8 77 32.8 77.8 32.8 78.6 32.8 79.4 32.8 80.1 32.8 80.9 32.8 81.7 32.8 82.5 32.8 83.2 32.8 84 32.8 84.8 32.8 85.6 32.8 86.3 32.8 87.1 32.8 87.9 32.8 88.7 32.8 89.5 32.8 90.2 32.8 91 32.8 91.8 32.8 92.6 32.8 93.3 32.8 94.1 32.8 94.9 32.8 95.7 32.8 96.4 32.8 97.2 32.8 98 32.8 98.8 32.8 99.6 32.8 100.3 32.8 101.1 32.8 101.9 32.8 102.7 32.8 103.4 32.8 104.2 32.8 105 32.8 105.8 32.8 106.6 32.8 107.3 32.8 108.1 32.8 108.9 32.8 109.7 32.8 110.4 32.8 111.2 32.8 112 32.8 112.8 32.8 113.5 32.8 114.3 32.8 115.1 32.8 115.9 32.8 116.7 32.8 117.4 32.8 118.2 32.8 119 32.8 119.8 32.8 120.5 32.8 121.3 32.8 122.1 32.8 122.9 32.8 123.6 32.8 124.4 32.8 125.2 32.8 126 32.8 126.8 32.8 127.5 32.8 128.3 32.8 129.1 32.8 129.9 32.8 130.6 32.8 131.4 32.8 132.2 32.8 133 32.8 133.7 32.8 134.5 32.8 135.3 32.8 136.1 32.8"/>
  </g>
</svg>