<?xml version="1.0" encoding="utf-8"?>
<!-- Generator: Adobe Illustrator 26.3.1, SVG Export Plug-In . SVG Version: 6.00 Build 0)  -->
<svg version="1.1" id="Layer_1" xmlns="http://www.w3.org/2000/svg" xmlns:xlink="http://www.w3.org/1999/xlink" x="0px" y="0px"
	 viewBox="0 0 550.8 890.9" style="enable-background:new 0 0 550.8 890.9;" xml:space="preserve">
<style type="text/css">
	.st0{fill:#FFFFFF;}
	.st1{clip-path:url(#SVGID_00000158719760044678754520000001628263112193940639_);}
	.st2{fill:#FFFFFF;stroke:#FFFFFF;stroke-width:1.07;stroke-linecap:round;stroke-linejoin:round;stroke-miterlimit:10;}
	.st3{clip-path:url(#SVGID_00000127044776427644044200000008865808724101962160_);}
	.st4{fill:none;}
	.st5{fill:#4D4D4D;}
	.st6{font-family:'ArialMT';}
	.st7{font-size:12px;}
	.st8{font-size:15px;}
	.st9{clip-path:url(#SVGID_00000016039441604111479500000016681637441065696909_);}
	.st10{fill:none;stroke:#EBEBEB;stroke-width:0.53;stroke-linejoin:round;stroke-miterlimit:10;}
	.st11{fill:none;stroke:#EBEBEB;stroke-width:1.07;stroke-linejoin:round;stroke-miterlimit:10;}
	.st12{fill:none;stroke:#C7E9B4;stroke-width:3.2;stroke-linejoin:round;stroke-miterlimit:10;}
	.st13{fill:none;stroke:#7FCDBB;stroke-width:3.2;stroke-linejoin:round;stroke-miterlimit:10;}
	.st14{fill:none;stroke:#41B6C4;stroke-width:3.2;stroke-linejoin:round;stroke-miterlimit:10;}
	.st15{fill:none;stroke:#225EA8;stroke-width:3.2;stroke-linejoin:round;stroke-miterlimit:10;}
	.st16{fill:none;stroke:#081D58;stroke-width:3.2;stroke-linejoin:round;stroke-miterlimit:10;}
	.st17{clip-path:url(#SVGID_00000117667448793809359740000000546414386891003018_);}
	.st18{clip-path:url(#SVGID_00000095324638110876623920000007373633837262299545_);}
	.st19{clip-path:url(#SVGID_00000109746309275841534610000009327653738252925838_);}
	.st20{fill:none;stroke:#1D91C0;stroke-width:3.2;stroke-linejoin:round;stroke-miterlimit:10;}
	.st21{fill:none;stroke:#253494;stroke-width:3.2;stroke-linejoin:round;stroke-miterlimit:10;}
	.st22{fill:#28AAE1;}
	.st23{fill:#F59120;}
	.st24{font-size:13px;}
	.st25{font-size:20px;}
	
		.st26{clip-path:url(#SVGID_00000093857455160659061350000012633404244286017676_);fill:none;stroke:#EBEBEB;stroke-width:0.53;stroke-linejoin:round;stroke-miterlimit:10;}
	
		.st27{clip-path:url(#SVGID_00000030456356850300473690000003834872146256186779_);fill:none;stroke:#EBEBEB;stroke-width:0.53;stroke-linejoin:round;stroke-miterlimit:10;}
	
		.st28{clip-path:url(#SVGID_00000140702471258183394800000002951889355592320906_);fill:none;stroke:#EBEBEB;stroke-width:0.53;stroke-linejoin:round;stroke-miterlimit:10;}
	
		.st29{clip-path:url(#SVGID_00000070110727008745146430000000749214790058635447_);fill:none;stroke:#EBEBEB;stroke-width:0.53;stroke-linejoin:round;stroke-miterlimit:10;}
	
		.st30{clip-path:url(#SVGID_00000183932887757958741800000012997831001782214564_);fill:none;stroke:#EBEBEB;stroke-width:1.07;stroke-linejoin:round;stroke-miterlimit:10;}
	
		.st31{clip-path:url(#SVGID_00000054266145912079345340000016032720756800530848_);fill:none;stroke:#EBEBEB;stroke-width:1.07;stroke-linejoin:round;stroke-miterlimit:10;}
	
		.st32{clip-path:url(#SVGID_00000007399217878976848310000000845285989478448786_);fill:none;stroke:#EBEBEB;stroke-width:1.07;stroke-linejoin:round;stroke-miterlimit:10;}
	
		.st33{clip-path:url(#SVGID_00000099634234385437070820000011115315167499313816_);fill:none;stroke:#EBEBEB;stroke-width:1.07;stroke-linejoin:round;stroke-miterlimit:10;}
	
		.st34{clip-path:url(#SVGID_00000182502063001074938750000007986915359785526419_);fill:none;stroke:#EBEBEB;stroke-width:1.07;stroke-linejoin:round;stroke-miterlimit:10;}
	
		.st35{clip-path:url(#SVGID_00000170276360363161741520000012303434432168753086_);fill:none;stroke:#C7E9B4;stroke-width:3.2;stroke-linejoin:round;stroke-miterlimit:10;}
	
		.st36{clip-path:url(#SVGID_00000132066710413030809010000013115107278229691787_);fill:none;stroke:#7FCDBB;stroke-width:3.2;stroke-linejoin:round;stroke-miterlimit:10;}
	
		.st37{clip-path:url(#SVGID_00000148631395349214074430000017025369353883528328_);fill:none;stroke:#41B6C4;stroke-width:3.2;stroke-linejoin:round;stroke-miterlimit:10;}
	
		.st38{clip-path:url(#SVGID_00000039854880924859640240000010394997650154379136_);fill:none;stroke:#225EA8;stroke-width:3.2;stroke-linejoin:round;stroke-miterlimit:10;}
	
		.st39{clip-path:url(#SVGID_00000160183929970229030720000015751763405303880077_);fill:none;stroke:#081D58;stroke-width:3.2;stroke-linejoin:round;stroke-miterlimit:10;}
</style>
<rect x="194.4" class="st0" width="324" height="864"/>
<g>
	<g>
		<g>
			<defs>
				<rect id="SVGID_1_" x="194.4" width="324" height="864"/>
			</defs>
			<clipPath id="SVGID_00000050644109990378218950000003853909042313745055_">
				<use xlink:href="#SVGID_1_"  style="overflow:visible;"/>
			</clipPath>
			<g style="clip-path:url(#SVGID_00000050644109990378218950000003853909042313745055_);">
				<rect x="194.4" class="st2" width="324" height="864"/>
			</g>
		</g>
	</g>
</g>
<g>
	<g>
		<g>
			<defs>
				<rect id="SVGID_00000144325926922944481680000014074019175230801073_" x="442" y="276.9" width="70.8" height="269.7"/>
			</defs>
			<clipPath id="SVGID_00000073713101779817456610000008545946227103599288_">
				<use xlink:href="#SVGID_00000144325926922944481680000014074019175230801073_"  style="overflow:visible;"/>
			</clipPath>
			<g style="clip-path:url(#SVGID_00000073713101779817456610000008545946227103599288_);">
				<rect x="442" y="276.9" class="st2" width="70.8" height="269.7"/>
			</g>
		</g>
	</g>
</g>
<rect x="194.4" class="st4" width="324" height="864"/>
<rect x="228.6" y="165.3" class="st4" width="23.4" height="14.2"/>
<text transform="matrix(1 0 0 1 228.6397 175.5498)" class="st5 st6 st7">0.00</text>
<rect x="228.6" y="125.7" class="st4" width="23.4" height="14.2"/>
<text transform="matrix(1 0 0 1 228.6397 135.98)" class="st5 st6 st7">0.05</text>
<rect x="228.6" y="86.1" class="st4" width="23.4" height="14.2"/>
<text transform="matrix(1 0 0 1 228.6397 96.4102)" class="st5 st6 st7">0.10</text>
<rect x="228.6" y="46.5" class="st4" width="23.4" height="14.2"/>
<text transform="matrix(1 0 0 1 228.6397 56.8398)" class="st5 st6 st7">0.15</text>
<text transform="matrix(1 0 0 1 261.7584 191.36)" class="st5 st6 st7">0</text>
<rect x="386" y="181.1" class="st4" width="8" height="14.2"/>
<text transform="matrix(1 0 0 1 386.0435 191.3599)" class="st5 st6 st7">K</text>
<text transform="matrix(6.123234e-17 -1 1 6.123234e-17 216.0653 139.666)" class="st6 st8">probability</text>
<g>
	<g>
		<g>
			<defs>
				<rect id="SVGID_00000003077101693398101730000002747237745124855218_" x="256.9" y="243.6" width="179.6" height="150.2"/>
			</defs>
			<clipPath id="SVGID_00000082342414751073873620000012903269185389934766_">
				<use xlink:href="#SVGID_00000003077101693398101730000002747237745124855218_"  style="overflow:visible;"/>
			</clipPath>
			<g style="clip-path:url(#SVGID_00000082342414751073873620000012903269185389934766_);">
				<line class="st10" x1="256.9" y1="369.1" x2="436.6" y2="369.1"/>
				<line class="st10" x1="256.9" y1="333.2" x2="436.6" y2="333.2"/>
				<line class="st10" x1="256.9" y1="297.4" x2="436.6" y2="297.4"/>
				<line class="st10" x1="256.9" y1="261.5" x2="436.6" y2="261.5"/>
				<line class="st10" x1="327.6" y1="393.8" x2="327.6" y2="243.6"/>
				<line class="st11" x1="256.9" y1="387" x2="436.6" y2="387"/>
				<line class="st11" x1="256.9" y1="351.1" x2="436.6" y2="351.1"/>
				<line class="st11" x1="256.9" y1="315.3" x2="436.6" y2="315.3"/>
				<line class="st11" x1="256.9" y1="279.4" x2="436.6" y2="279.4"/>
				<line class="st11" x1="265.1" y1="393.8" x2="265.1" y2="243.6"/>
				<line class="st11" x1="390" y1="393.8" x2="390" y2="243.6"/>
				<polyline class="st12" points="266.3,387 267.6,387 268.8,387 270,387 271.3,387 272.5,387 273.8,387 275,387 276.2,387 
					277.5,387 278.7,387 279.9,387 281.2,387 282.4,387 283.7,387 284.9,387 286.1,387 287.4,387 288.6,387 289.8,387 291.1,387 
					292.3,387 293.6,387 294.8,387 296,387 297.3,387 298.5,387 299.7,387 301,387 302.2,387 303.4,387 304.7,387 305.9,387 
					307.2,387 308.4,387 309.6,387 310.9,387 312.1,387 313.3,387 314.6,387 315.8,387 317.1,387 318.3,387 319.5,387 320.8,387 
					322,387 323.2,387 324.5,387 325.7,387 327,387 328.2,387 329.4,387 330.7,387 331.9,387 333.1,387 334.4,387 335.6,387 
					336.9,387 338.1,387 339.3,387 340.6,387 341.8,387 343,387 344.3,387 345.5,387 346.7,387 348,387 349.2,387 350.5,387 
					351.7,387 352.9,387 354.2,387 355.4,387 356.6,387 357.9,387 359.1,387 360.4,387 361.6,387 362.8,387 364.1,387 365.3,387 
					366.5,387 367.8,387 369,387 370.3,387 371.5,387 372.7,387 374,387 375.2,386.9 376.4,386.5 377.7,385.3 378.9,382 
					380.2,374.1 381.4,359.1 382.6,336.5 383.9,307.3 385.1,280.9 386.3,261.9 387.6,250.5 388.8,250.6 390,257 391.3,268.5 
					392.5,282.8 393.8,298.5 395,313.2 396.2,327.3 397.5,339.8 398.7,350.6 399.9,359.6 401.2,366.7 402.4,372.4 403.7,376.6 
					404.9,379.8 406.1,382.1 407.4,383.7 408.6,384.9 409.8,385.6 411.1,386.1 412.3,386.5 413.6,386.7 414.8,386.8 416,386.9 
					417.3,386.9 418.5,387 419.7,387 421,387 422.2,387 423.5,387 424.7,387 425.9,387 427.2,387 428.4,387 				"/>
				<polyline class="st13" points="266.3,387 267.6,387 268.8,387 270,387 271.3,387 272.5,387 273.8,387 275,387 276.2,387 
					277.5,387 278.7,387 279.9,387 281.2,387 282.4,387 283.7,387 284.9,387 286.1,387 287.4,387 288.6,387 289.8,387 291.1,387 
					292.3,387 293.6,387 294.8,387 296,387 297.3,387 298.5,387 299.7,387 301,387 302.2,387 303.4,387 304.7,387 305.9,387 
					307.2,387 308.4,387 309.6,387 310.9,387 312.1,387 313.3,386.9 314.6,386.9 315.8,386.9 317.1,386.8 318.3,386.7 319.5,386.5 
					320.8,386.4 322,386.1 323.2,385.8 324.5,385.3 325.7,384.7 327,384 328.2,383.1 329.4,382 330.7,380.7 331.9,379.2 
					333.1,377.4 334.4,375.2 335.6,373 336.9,370.3 338.1,367.5 339.3,364.5 340.6,361.4 341.8,358.2 343,354.8 344.3,351.6 
					345.5,348.5 346.7,345.5 348,342.9 349.2,340.4 350.5,338.4 351.7,336.8 352.9,335.5 354.2,334.9 355.4,334.3 356.6,334.6 
					357.9,335.1 359.1,335.8 360.4,337.2 361.6,338.8 362.8,340.7 364.1,342.8 365.3,345 366.5,347.5 367.8,350 369,352.6 
					370.3,355.2 371.5,357.9 372.7,360.4 374,362.9 375.2,365.4 376.4,367.7 377.7,369.9 378.9,372 380.2,373.9 381.4,375.7 
					382.6,377.3 383.9,378.8 385.1,380.1 386.3,381.2 387.6,382.3 388.8,383.1 390,383.9 391.3,384.5 392.5,385.1 393.8,385.5 
					395,385.9 396.2,386.1 397.5,386.4 398.7,386.5 399.9,386.7 401.2,386.8 402.4,386.8 403.7,386.9 404.9,386.9 406.1,387 
					407.4,387 408.6,387 409.8,387 411.1,387 412.3,387 413.6,387 414.8,387 416,387 417.3,387 418.5,387 419.7,387 421,387 
					422.2,387 423.5,387 424.7,387 425.9,387 427.2,387 428.4,387 				"/>
				<polyline class="st14" points="266.3,387 267.6,387 268.8,387 270,387 271.3,387 272.5,387 273.8,387 275,387 276.2,387 
					277.5,387 278.7,387 279.9,387 281.2,387 282.4,387 283.7,387 284.9,387 286.1,387 287.4,386.9 288.6,386.9 289.8,386.8 
					291.1,386.7 292.3,386.6 293.6,386.5 294.8,386.3 296,386.1 297.3,385.8 298.5,385.4 299.7,385 301,384.5 302.2,383.9 
					303.4,383.2 304.7,382.4 305.9,381.4 307.2,380.4 308.4,379.2 309.6,377.9 310.9,376.6 312.1,375 313.3,373.4 314.6,371.8 
					315.8,370.1 317.1,368.2 318.3,366.5 319.5,364.6 320.8,362.9 322,361.1 323.2,359.3 324.5,357.8 325.7,356.3 327,354.8 
					328.2,353.5 329.4,352.4 330.7,351.2 331.9,350.5 333.1,349.7 334.4,349.1 335.6,348.8 336.9,348.6 338.1,348.6 339.3,348.7 
					340.6,348.9 341.8,349.3 343,349.7 344.3,350.6 345.5,351.3 346.7,352.2 348,353.1 349.2,354.2 350.5,355.3 351.7,356.6 
					352.9,357.8 354.2,359.2 355.4,360.5 356.6,361.9 357.9,363.2 359.1,364.7 360.4,366.1 361.6,367.4 362.8,368.8 364.1,370.1 
					365.3,371.5 366.5,372.8 367.8,374 369,375.2 370.3,376.3 371.5,377.4 372.7,378.4 374,379.3 375.2,380.2 376.4,381 
					377.7,381.8 378.9,382.5 380.2,383.1 381.4,383.7 382.6,384.2 383.9,384.7 385.1,385.1 386.3,385.4 387.6,385.7 388.8,386 
					390,386.2 391.3,386.3 392.5,386.5 393.8,386.6 395,386.7 396.2,386.8 397.5,386.8 398.7,386.9 399.9,386.9 401.2,387 
					402.4,387 403.7,387 404.9,387 406.1,387 407.4,387 408.6,387 409.8,387 411.1,387 412.3,387 413.6,387 414.8,387 416,387 
					417.3,387 418.5,387 419.7,387 421,387 422.2,387 423.5,387 424.7,387 425.9,387 427.2,387 428.4,387 				"/>
				<polyline class="st15" points="266.3,387 267.6,387 268.8,387 270,387 271.3,387 272.5,387 273.8,387 275,387 276.2,387 
					277.5,387 278.7,386.9 279.9,386.9 281.2,386.8 282.4,386.7 283.7,386.5 284.9,386.4 286.1,386.2 287.4,386 288.6,385.7 
					289.8,385.3 291.1,384.9 292.3,384.4 293.6,383.8 294.8,383.1 296,382.3 297.3,381.4 298.5,380.4 299.7,379.3 301,378.1 
					302.2,376.8 303.4,375.4 304.7,374.1 305.9,372.5 307.2,371.1 308.4,369.5 309.6,368.1 310.9,366.5 312.1,364.9 313.3,363.5 
					314.6,362.1 315.8,360.8 317.1,359.4 318.3,358.3 319.5,357 320.8,356.1 322,355.3 323.2,354.3 324.5,353.8 325.7,353.3 
					327,352.9 328.2,352.4 329.4,352.3 330.7,352.1 331.9,352.3 333.1,352.4 334.4,352.6 335.6,353 336.9,353.3 338.1,354 
					339.3,354.5 340.6,355.3 341.8,356 343,356.8 344.3,357.7 345.5,358.6 346.7,359.6 348,360.7 349.2,361.7 350.5,362.8 
					351.7,363.9 352.9,365 354.2,366.2 355.4,367.3 356.6,368.5 357.9,369.5 359.1,370.7 360.4,371.8 361.6,372.9 362.8,373.9 
					364.1,375 365.3,376 366.5,376.9 367.8,377.8 369,378.7 370.3,379.5 371.5,380.3 372.7,381 374,381.7 375.2,382.3 376.4,382.9 
					377.7,383.5 378.9,383.9 380.2,384.4 381.4,384.8 382.6,385.1 383.9,385.4 385.1,385.7 386.3,385.9 387.6,386.1 388.8,386.3 
					390,386.4 391.3,386.6 392.5,386.7 393.8,386.7 395,386.8 396.2,386.9 397.5,386.9 398.7,386.9 399.9,387 401.2,387 402.4,387 
					403.7,387 404.9,387 406.1,387 407.4,387 408.6,387 409.8,387 411.1,387 412.3,387 413.6,387 414.8,387 416,387 417.3,387 
					418.5,387 419.7,387 421,387 422.2,387 423.5,387 424.7,387 425.9,387 427.2,387 428.4,387 				"/>
				<polyline class="st16" points="266.3,387 267.6,387 268.8,387 270,387 271.3,387 272.5,387 273.8,387 275,387 276.2,386.9 
					277.5,386.9 278.7,386.8 279.9,386.6 281.2,386.5 282.4,386.3 283.7,386 284.9,385.8 286.1,385.5 287.4,385.1 288.6,384.6 
					289.8,384.1 291.1,383.5 292.3,382.7 293.6,381.8 294.8,380.9 296,379.8 297.3,378.7 298.5,377.5 299.7,376.2 301,374.9 
					302.2,373.5 303.4,372.1 304.7,370.7 305.9,369.1 307.2,367.8 308.4,366.2 309.6,364.9 310.9,363.5 312.1,362.1 313.3,360.9 
					314.6,359.9 315.8,358.8 317.1,357.7 318.3,356.9 319.5,355.9 320.8,355.3 322,354.8 323.2,354.2 324.5,353.9 325.7,353.7 
					327,353.5 328.2,353.3 329.4,353.4 330.7,353.5 331.9,353.8 333.1,354.1 334.4,354.4 335.6,355 336.9,355.4 338.1,356.1 
					339.3,356.8 340.6,357.6 341.8,358.3 343,359.1 344.3,360.1 345.5,361 346.7,362 348,363 349.2,364 350.5,365 351.7,366.1 
					352.9,367.1 354.2,368.2 355.4,369.3 356.6,370.3 357.9,371.4 359.1,372.4 360.4,373.4 361.6,374.4 362.8,375.4 364.1,376.3 
					365.3,377.2 366.5,378 367.8,378.9 369,379.6 370.3,380.4 371.5,381.1 372.7,381.7 374,382.3 375.2,382.9 376.4,383.4 
					377.7,383.9 378.9,384.3 380.2,384.7 381.4,385 382.6,385.3 383.9,385.6 385.1,385.9 386.3,386.1 387.6,386.2 388.8,386.4 
					390,386.5 391.3,386.6 392.5,386.7 393.8,386.8 395,386.8 396.2,386.9 397.5,386.9 398.7,386.9 399.9,387 401.2,387 402.4,387 
					403.7,387 404.9,387 406.1,387 407.4,387 408.6,387 409.8,387 411.1,387 412.3,387 413.6,387 414.8,387 416,387 417.3,387 
					418.5,387 419.7,387 421,387 422.2,387 423.5,387 424.7,387 425.9,387 427.2,387 428.4,387 				"/>
			</g>
		</g>
	</g>
</g>
<rect x="194.4" class="st4" width="324" height="864"/>
<rect x="222" y="381" class="st4" width="30" height="14.2"/>
<text transform="matrix(1 0 0 1 221.9659 391.2998)" class="st5 st6 st7">0.000</text>
<rect x="222" y="345.1" class="st4" width="30" height="14.2"/>
<text transform="matrix(1 0 0 1 221.9659 355.4404)" class="st5 st6 st7">0.025</text>
<rect x="222" y="309.3" class="st4" width="30" height="14.2"/>
<text transform="matrix(1 0 0 1 221.9659 319.5801)" class="st5 st6 st7">0.050</text>
<rect x="222" y="273.4" class="st4" width="30" height="14.2"/>
<text transform="matrix(1 0 0 1 221.9659 283.71)" class="st5 st6 st7">0.075</text>
<text transform="matrix(1 0 0 1 261.7584 407.36)" class="st5 st6 st7">0</text>
<rect x="386" y="397.1" class="st4" width="8" height="14.2"/>
<text transform="matrix(1 0 0 1 386.0435 407.3604)" class="st5 st6 st7">K</text>
<text transform="matrix(6.123234e-17 -1 1 6.123234e-17 216.0653 352.9258)" class="st6 st8">probability</text>
<g>
	<g>
		<g>
			<defs>
				<rect id="SVGID_00000156552229349803851370000007385747299387028618_" x="256.9" y="459.6" width="179.6" height="150.2"/>
			</defs>
			<clipPath id="SVGID_00000128465028405617847570000010630697644626059924_">
				<use xlink:href="#SVGID_00000156552229349803851370000007385747299387028618_"  style="overflow:visible;"/>
			</clipPath>
			<g style="clip-path:url(#SVGID_00000128465028405617847570000010630697644626059924_);">
				<line class="st10" x1="256.9" y1="585.4" x2="436.6" y2="585.4"/>
				<line class="st10" x1="256.9" y1="550.2" x2="436.6" y2="550.2"/>
				<line class="st10" x1="256.9" y1="515" x2="436.6" y2="515"/>
				<line class="st10" x1="256.9" y1="479.8" x2="436.6" y2="479.8"/>
				<line class="st10" x1="327.6" y1="609.8" x2="327.6" y2="459.6"/>
				<line class="st11" x1="256.9" y1="603" x2="436.6" y2="603"/>
				<line class="st11" x1="256.9" y1="567.8" x2="436.6" y2="567.8"/>
				<line class="st11" x1="256.9" y1="532.6" x2="436.6" y2="532.6"/>
				<line class="st11" x1="256.9" y1="497.4" x2="436.6" y2="497.4"/>
				<line class="st11" x1="256.9" y1="462.2" x2="436.6" y2="462.2"/>
				<line class="st11" x1="265.1" y1="609.8" x2="265.1" y2="459.6"/>
				<line class="st11" x1="390" y1="609.8" x2="390" y2="459.6"/>
				<polyline class="st12" points="266.3,603 267.6,603 268.8,603 270,603 271.3,603 272.5,603 273.8,603 275,603 276.2,603 
					277.5,603 278.7,603 279.9,603 281.2,603 282.4,603 283.7,603 284.9,603 286.1,603 287.4,603 288.6,603 289.8,603 291.1,603 
					292.3,603 293.6,603 294.8,603 296,603 297.3,603 298.5,603 299.7,603 301,603 302.2,603 303.4,603 304.7,603 305.9,603 
					307.2,603 308.4,603 309.6,603 310.9,603 312.1,603 313.3,603 314.6,603 315.8,603 317.1,603 318.3,603 319.5,603 320.8,603 
					322,603 323.2,603 324.5,603 325.7,603 327,603 328.2,603 329.4,603 330.7,603 331.9,603 333.1,603 334.4,603 335.6,603 
					336.9,603 338.1,603 339.3,603 340.6,603 341.8,603 343,603 344.3,603 345.5,603 346.7,603 348,603 349.2,603 350.5,603 
					351.7,603 352.9,603 354.2,603 355.4,603 356.6,603 357.9,603 359.1,603 360.4,603 361.6,603 362.8,603 364.1,603 365.3,603 
					366.5,603 367.8,603 369,603 370.3,603 371.5,603 372.7,603 374,603 375.2,603 376.4,603 377.7,603 378.9,603 380.2,603 
					381.4,603 382.6,603 383.9,602.8 385.1,602.2 386.3,600.8 387.6,597.7 388.8,591.9 390,582.7 391.3,569.7 392.5,553.8 
					393.8,535.5 395,517 396.2,499.2 397.5,484.9 398.7,473.7 399.9,468.2 401.2,466.5 402.4,470.1 403.7,478.1 404.9,489.2 
					406.1,502.6 407.4,516.8 408.6,531.1 409.8,544.8 411.1,557.1 412.3,567.6 413.6,576.4 414.8,583.4 416,588.9 417.3,593 
					418.5,596 419.7,598.2 421,599.8 422.2,600.8 423.5,601.5 424.7,602 425.9,602.4 427.2,602.6 428.4,602.7 				"/>
				<polyline class="st13" points="266.3,603 267.6,603 268.8,603 270,603 271.3,603 272.5,603 273.8,603 275,603 276.2,603 
					277.5,603 278.7,603 279.9,603 281.2,603 282.4,603 283.7,603 284.9,603 286.1,603 287.4,603 288.6,603 289.8,603 291.1,603 
					292.3,603 293.6,603 294.8,603 296,603 297.3,603 298.5,603 299.7,603 301,603 302.2,603 303.4,603 304.7,603 305.9,603 
					307.2,603 308.4,603 309.6,603 310.9,603 312.1,603 313.3,603 314.6,603 315.8,603 317.1,603 318.3,603 319.5,603 320.8,603 
					322,603 323.2,603 324.5,603 325.7,603 327,603 328.2,603 329.4,603 330.7,603 331.9,603 333.1,603 334.4,603 335.6,603 
					336.9,603 338.1,602.9 339.3,602.9 340.6,602.9 341.8,602.8 343,602.7 344.3,602.6 345.5,602.4 346.7,602.1 348,601.8 
					349.2,601.4 350.5,600.9 351.7,600.2 352.9,599.4 354.2,598.3 355.4,597.1 356.6,595.6 357.9,593.9 359.1,591.8 360.4,589.6 
					361.6,586.9 362.8,584 364.1,580.8 365.3,577.3 366.5,573.7 367.8,569.7 369,565.8 370.3,561.7 371.5,557.4 372.7,553.5 
					374,549.6 375.2,545.8 376.4,542.3 377.7,539.4 378.9,536.7 380.2,534.5 381.4,533.3 382.6,532 383.9,531.9 385.1,532.3 
					386.3,533.4 387.6,535.3 388.8,537.5 390,540.6 391.3,544.1 392.5,548.1 393.8,552.4 395,556.9 396.2,561.7 397.5,566.4 
					398.7,571.1 399.9,575.6 401.2,579.8 402.4,583.7 403.7,587.2 404.9,590.3 406.1,593 407.4,595.2 408.6,597.1 409.8,598.6 
					411.1,599.8 412.3,600.7 413.6,601.4 414.8,601.9 416,602.2 417.3,602.5 418.5,602.7 419.7,602.8 421,602.9 422.2,602.9 
					423.5,603 424.7,603 425.9,603 427.2,603 428.4,603 				"/>
				<polyline class="st14" points="266.3,603 267.6,603 268.8,603 270,603 271.3,603 272.5,603 273.8,603 275,603 276.2,603 
					277.5,603 278.7,603 279.9,603 281.2,603 282.4,603 283.7,603 284.9,603 286.1,603 287.4,603 288.6,603 289.8,603 291.1,603 
					292.3,603 293.6,603 294.8,603 296,603 297.3,603 298.5,603 299.7,603 301,603 302.2,603 303.4,603 304.7,603 305.9,603 
					307.2,603 308.4,603 309.6,603 310.9,603 312.1,603 313.3,603 314.6,603 315.8,602.9 317.1,602.9 318.3,602.9 319.5,602.8 
					320.8,602.8 322,602.7 323.2,602.6 324.5,602.4 325.7,602.3 327,602.1 328.2,601.9 329.4,601.6 330.7,601.2 331.9,600.8 
					333.1,600.4 334.4,599.8 335.6,599.2 336.9,598.5 338.1,597.7 339.3,596.7 340.6,595.7 341.8,594.5 343,593.3 344.3,591.9 
					345.5,590.4 346.7,588.7 348,587.1 349.2,585.2 350.5,583.1 351.7,581.3 352.9,579 354.2,576.9 355.4,574.6 356.6,572.4 
					357.9,570 359.1,567.6 360.4,565.5 361.6,563.1 362.8,561 364.1,558.8 365.3,556.9 366.5,555 367.8,553.4 369,551.7 
					370.3,550.7 371.5,549.7 372.7,548.7 374,548.4 375.2,548.2 376.4,548.4 377.7,548.8 378.9,549.4 380.2,550.6 381.4,551.9 
					382.6,553.5 383.9,555.5 385.1,557.8 386.3,560.1 387.6,562.8 388.8,565.6 390,568.5 391.3,571.5 392.5,574.5 393.8,577.5 
					395,580.5 396.2,583.3 397.5,586 398.7,588.5 399.9,590.8 401.2,592.9 402.4,594.8 403.7,596.4 404.9,597.8 406.1,599 
					407.4,599.9 408.6,600.7 409.8,601.3 411.1,601.8 412.3,602.1 413.6,602.4 414.8,602.6 416,602.7 417.3,602.8 418.5,602.9 
					419.7,602.9 421,603 422.2,603 423.5,603 424.7,603 425.9,603 427.2,603 428.4,603 				"/>
				<polyline class="st15" points="266.3,603 267.6,603 268.8,603 270,603 271.3,603 272.5,603 273.8,603 275,603 276.2,603 
					277.5,603 278.7,603 279.9,603 281.2,603 282.4,603 283.7,603 284.9,603 286.1,603 287.4,603 288.6,603 289.8,603 291.1,603 
					292.3,603 293.6,603 294.8,603 296,603 297.3,603 298.5,603 299.7,603 301,603 302.2,603 303.4,603 304.7,603 305.9,603 
					307.2,602.9 308.4,602.9 309.6,602.9 310.9,602.8 312.1,602.7 313.3,602.7 314.6,602.6 315.8,602.5 317.1,602.3 318.3,602.2 
					319.5,602 320.8,601.7 322,601.5 323.2,601.1 324.5,600.8 325.7,600.3 327,599.9 328.2,599.3 329.4,598.7 330.7,598 
					331.9,597.2 333.1,596.5 334.4,595.4 335.6,594.5 336.9,593.4 338.1,592.2 339.3,590.9 340.6,589.7 341.8,588.1 343,586.6 
					344.3,585.1 345.5,583.5 346.7,581.5 348,580.1 349.2,578.2 350.5,576.2 351.7,574.5 352.9,572.6 354.2,570.5 355.4,568.8 
					356.6,567 357.9,565.2 359.1,563.4 360.4,561.9 361.6,560.1 362.8,558.8 364.1,557.5 365.3,556.2 366.5,555.2 367.8,554.6 
					369,553.6 370.3,553.4 371.5,553.2 372.7,553.1 374,553.3 375.2,553.8 376.4,554.6 377.7,555.6 378.9,556.7 380.2,558.1 
					381.4,559.7 382.6,561.7 383.9,563.6 385.1,565.9 386.3,568.2 387.6,570.7 388.8,573.1 390,575.7 391.3,578.3 392.5,580.8 
					393.8,583.3 395,585.7 396.2,588 397.5,590.2 398.7,592.1 399.9,593.9 401.2,595.5 402.4,597 403.7,598.2 404.9,599.2 
					406.1,600.1 407.4,600.8 408.6,601.3 409.8,601.8 411.1,602.1 412.3,602.4 413.6,602.6 414.8,602.7 416,602.8 417.3,602.9 
					418.5,602.9 419.7,603 421,603 422.2,603 423.5,603 424.7,603 425.9,603 427.2,603 428.4,603 				"/>
				<polyline class="st16" points="266.3,603 267.6,603 268.8,603 270,603 271.3,603 272.5,603 273.8,603 275,603 276.2,603 
					277.5,603 278.7,603 279.9,603 281.2,603 282.4,603 283.7,603 284.9,603 286.1,603 287.4,603 288.6,603 289.8,603 291.1,603 
					292.3,603 293.6,603 294.8,603 296,603 297.3,603 298.5,603 299.7,603 301,603 302.2,603 303.4,602.9 304.7,602.9 305.9,602.9 
					307.2,602.8 308.4,602.8 309.6,602.7 310.9,602.6 312.1,602.5 313.3,602.4 314.6,602.2 315.8,602.1 317.1,601.9 318.3,601.6 
					319.5,601.3 320.8,601 322,600.6 323.2,600.2 324.5,599.7 325.7,599.2 327,598.6 328.2,598 329.4,597.2 330.7,596.4 
					331.9,595.5 333.1,594.6 334.4,593.5 335.6,592.5 336.9,591.2 338.1,590 339.3,588.6 340.6,587.4 341.8,585.8 343,584.3 
					344.3,582.8 345.5,581.2 346.7,579.2 348,577.9 349.2,576 350.5,574.2 351.7,572.5 352.9,570.9 354.2,568.9 355.4,567.4 
					356.6,565.8 357.9,564.2 359.1,562.7 360.4,561.3 361.6,559.8 362.8,558.7 364.1,557.7 365.3,556.7 366.5,555.9 367.8,555.5 
					369,554.8 370.3,554.8 371.5,554.8 372.7,555 374,555.4 375.2,556.1 376.4,557 377.7,558.1 378.9,559.3 380.2,560.8 
					381.4,562.5 382.6,564.4 383.9,566.4 385.1,568.5 386.3,570.8 387.6,573.2 388.8,575.5 390,578 391.3,580.4 392.5,582.7 
					393.8,585.1 395,587.3 396.2,589.4 397.5,591.4 398.7,593.2 399.9,594.8 401.2,596.3 402.4,597.6 403.7,598.7 404.9,599.6 
					406.1,600.4 407.4,601 408.6,601.5 409.8,601.9 411.1,602.2 412.3,602.5 413.6,602.6 414.8,602.8 416,602.8 417.3,602.9 
					418.5,602.9 419.7,603 421,603 422.2,603 423.5,603 424.7,603 425.9,603 427.2,603 428.4,603 				"/>
			</g>
		</g>
	</g>
</g>
<rect x="194.4" class="st4" width="324" height="864"/>
<rect x="228.6" y="597" class="st4" width="23.4" height="14.2"/>
<text transform="matrix(1 0 0 1 228.6397 607.2998)" class="st5 st6 st7">0.00</text>
<rect x="228.6" y="561.8" class="st4" width="23.4" height="14.2"/>
<text transform="matrix(1 0 0 1 228.6397 572.1104)" class="st5 st6 st7">0.02</text>
<rect x="228.6" y="526.6" class="st4" width="23.4" height="14.2"/>
<text transform="matrix(1 0 0 1 228.6397 536.9102)" class="st5 st6 st7">0.04</text>
<rect x="228.6" y="491.4" class="st4" width="23.4" height="14.2"/>
<text transform="matrix(1 0 0 1 228.6397 501.71)" class="st5 st6 st7">0.06</text>
<rect x="228.6" y="456.2" class="st4" width="23.4" height="14.2"/>
<text transform="matrix(1 0 0 1 228.6397 466.5195)" class="st5 st6 st7">0.08</text>
<text transform="matrix(1 0 0 1 261.7584 623.36)" class="st5 st6 st7">0</text>
<rect x="386" y="613.1" class="st4" width="8" height="14.2"/>
<text transform="matrix(1 0 0 1 386.0435 623.3604)" class="st5 st6 st7">K</text>
<text transform="matrix(6.123234e-17 -1 1 6.123234e-17 216.0653 568.9258)" class="st6 st8">probability</text>
<g>
	<g>
		<g>
			<defs>
				<rect id="SVGID_00000106107498466170939470000002481019704795754370_" x="256.9" y="675.6" width="179.6" height="144.7"/>
			</defs>
			<clipPath id="SVGID_00000165193366867720659390000008020555983207521947_">
				<use xlink:href="#SVGID_00000106107498466170939470000002481019704795754370_"  style="overflow:visible;"/>
			</clipPath>
			<g style="clip-path:url(#SVGID_00000165193366867720659390000008020555983207521947_);">
				<line class="st10" x1="256.9" y1="800.2" x2="436.6" y2="800.2"/>
				<line class="st10" x1="256.9" y1="773" x2="436.6" y2="773"/>
				<line class="st10" x1="256.9" y1="745.7" x2="436.6" y2="745.7"/>
				<line class="st10" x1="256.9" y1="718.5" x2="436.6" y2="718.5"/>
				<line class="st10" x1="256.9" y1="691.3" x2="436.6" y2="691.3"/>
				<line class="st10" x1="327.6" y1="820.3" x2="327.6" y2="675.6"/>
				<line class="st11" x1="256.9" y1="813.8" x2="436.6" y2="813.8"/>
				<line class="st11" x1="256.9" y1="786.6" x2="436.6" y2="786.6"/>
				<line class="st11" x1="256.9" y1="759.3" x2="436.6" y2="759.3"/>
				<line class="st11" x1="256.9" y1="732.1" x2="436.6" y2="732.1"/>
				<line class="st11" x1="256.9" y1="704.9" x2="436.6" y2="704.9"/>
				<line class="st11" x1="256.9" y1="677.7" x2="436.6" y2="677.7"/>
				<line class="st11" x1="265.1" y1="820.3" x2="265.1" y2="675.6"/>
				<line class="st11" x1="390" y1="820.3" x2="390" y2="675.6"/>
				<polyline class="st12" points="266.3,813.8 267.6,813.8 268.8,813.8 270,813.8 271.3,813.8 272.5,813.8 273.8,813.8 275,813.8 
					276.2,813.8 277.5,813.8 278.7,813.8 279.9,813.8 281.2,813.8 282.4,813.8 283.7,813.8 284.9,813.8 286.1,813.8 287.4,813.8 
					288.6,813.8 289.8,813.8 291.1,813.8 292.3,813.8 293.6,813.8 294.8,813.8 296,813.8 297.3,813.8 298.5,813.8 299.7,813.8 
					301,813.8 302.2,813.8 303.4,813.8 304.7,813.8 305.9,813.8 307.2,813.8 308.4,813.8 309.6,813.8 310.9,813.8 312.1,813.8 
					313.3,813.8 314.6,813.8 315.8,813.8 317.1,813.8 318.3,813.8 319.5,813.8 320.8,813.8 322,813.8 323.2,813.8 324.5,813.8 
					325.7,813.8 327,813.8 328.2,813.8 329.4,813.8 330.7,813.8 331.9,813.8 333.1,813.8 334.4,813.8 335.6,813.8 336.9,813.8 
					338.1,813.8 339.3,813.8 340.6,813.8 341.8,813.8 343,813.8 344.3,813.8 345.5,813.8 346.7,813.8 348,813.8 349.2,813.8 
					350.5,813.8 351.7,813.8 352.9,813.8 354.2,813.8 355.4,813.8 356.6,813.8 357.9,813.8 359.1,813.8 360.4,813.8 361.6,813.8 
					362.8,813.8 364.1,813.8 365.3,813.8 366.5,813.8 367.8,813.8 369,813.8 370.3,813.8 371.5,813.8 372.7,813.8 374,813.8 
					375.2,813.8 376.4,813.8 377.7,813.8 378.9,813.8 380.2,813.8 381.4,813.8 382.6,813.8 383.9,813.8 385.1,813.8 386.3,813.8 
					387.6,813.8 388.8,813.8 390,813.8 391.3,813.8 392.5,813.8 393.8,813.8 395,813.8 396.2,813.8 397.5,813.8 398.7,813.8 
					399.9,813.8 401.2,813.7 402.4,813.1 403.7,811.2 404.9,805.5 406.1,793.4 407.4,772.4 408.6,744.3 409.8,715.3 411.1,692.5 
					412.3,682.2 413.6,685 414.8,697.8 416,718.2 417.3,738.2 418.5,757.8 419.7,773.6 421,785.9 422.2,794.9 423.5,801.2 
					424.7,805.5 425.9,808.5 427.2,810.3 428.4,811.6 				"/>
				<polyline class="st13" points="266.3,813.8 267.6,813.8 268.8,813.8 270,813.8 271.3,813.8 272.5,813.8 273.8,813.8 275,813.8 
					276.2,813.8 277.5,813.8 278.7,813.8 279.9,813.8 281.2,813.8 282.4,813.8 283.7,813.8 284.9,813.8 286.1,813.8 287.4,813.8 
					288.6,813.8 289.8,813.8 291.1,813.8 292.3,813.8 293.6,813.8 294.8,813.8 296,813.8 297.3,813.8 298.5,813.8 299.7,813.8 
					301,813.8 302.2,813.8 303.4,813.8 304.7,813.8 305.9,813.8 307.2,813.8 308.4,813.8 309.6,813.8 310.9,813.8 312.1,813.8 
					313.3,813.8 314.6,813.8 315.8,813.8 317.1,813.8 318.3,813.8 319.5,813.8 320.8,813.8 322,813.8 323.2,813.8 324.5,813.8 
					325.7,813.8 327,813.8 328.2,813.8 329.4,813.8 330.7,813.8 331.9,813.8 333.1,813.8 334.4,813.8 335.6,813.8 336.9,813.8 
					338.1,813.8 339.3,813.8 340.6,813.8 341.8,813.8 343,813.8 344.3,813.8 345.5,813.8 346.7,813.8 348,813.8 349.2,813.8 
					350.5,813.8 351.7,813.8 352.9,813.8 354.2,813.8 355.4,813.8 356.6,813.8 357.9,813.8 359.1,813.8 360.4,813.8 361.6,813.8 
					362.8,813.8 364.1,813.8 365.3,813.8 366.5,813.8 367.8,813.8 369,813.8 370.3,813.8 371.5,813.8 372.7,813.8 374,813.8 
					375.2,813.8 376.4,813.8 377.7,813.8 378.9,813.8 380.2,813.8 381.4,813.8 382.6,813.7 383.9,813.7 385.1,813.6 386.3,813.5 
					387.6,813.1 388.8,812.5 390,811.3 391.3,809.2 392.5,805.7 393.8,800.1 395,791.7 396.2,780 397.5,764.8 398.7,747.5 
					399.9,729.6 401.2,714 402.4,703.8 403.7,701 404.9,706.3 406.1,718.2 407.4,734.3 408.6,751.7 409.8,768 411.1,781.7 
					412.3,792.2 413.6,799.8 414.8,805 416,808.4 417.3,810.6 418.5,811.9 419.7,812.7 421,813.1 422.2,813.4 423.5,813.6 
					424.7,813.7 425.9,813.7 427.2,813.7 428.4,813.8 				"/>
				<polyline class="st14" points="266.3,813.8 267.6,813.8 268.8,813.8 270,813.8 271.3,813.8 272.5,813.8 273.8,813.8 275,813.8 
					276.2,813.8 277.5,813.8 278.7,813.8 279.9,813.8 281.2,813.8 282.4,813.8 283.7,813.8 284.9,813.8 286.1,813.8 287.4,813.8 
					288.6,813.8 289.8,813.8 291.1,813.8 292.3,813.8 293.6,813.8 294.8,813.8 296,813.8 297.3,813.8 298.5,813.8 299.7,813.8 
					301,813.8 302.2,813.8 303.4,813.8 304.7,813.8 305.9,813.8 307.2,813.8 308.4,813.8 309.6,813.8 310.9,813.8 312.1,813.8 
					313.3,813.8 314.6,813.8 315.8,813.8 317.1,813.8 318.3,813.8 319.5,813.8 320.8,813.8 322,813.8 323.2,813.8 324.5,813.8 
					325.7,813.8 327,813.8 328.2,813.8 329.4,813.8 330.7,813.8 331.9,813.8 333.1,813.8 334.4,813.8 335.6,813.8 336.9,813.8 
					338.1,813.8 339.3,813.8 340.6,813.8 341.8,813.8 343,813.8 344.3,813.8 345.5,813.8 346.7,813.8 348,813.8 349.2,813.8 
					350.5,813.8 351.7,813.8 352.9,813.8 354.2,813.8 355.4,813.8 356.6,813.8 357.9,813.8 359.1,813.8 360.4,813.8 361.6,813.8 
					362.8,813.8 364.1,813.8 365.3,813.8 366.5,813.8 367.8,813.8 369,813.8 370.3,813.8 371.5,813.8 372.7,813.7 374,813.7 
					375.2,813.7 376.4,813.6 377.7,813.5 378.9,813.2 380.2,812.9 381.4,812.3 382.6,811.3 383.9,809.9 385.1,807.8 386.3,804.7 
					387.6,800.3 388.8,794.3 390,786.6 391.3,776.9 392.5,765.5 393.8,753.1 395,740.5 396.2,729.2 397.5,720.6 398.7,716.4 
					399.9,717.1 401.2,723 402.4,733.3 403.7,746.4 404.9,760.4 406.1,773.7 407.4,785.2 408.6,794.3 409.8,801.1 411.1,805.8 
					412.3,808.9 413.6,810.9 414.8,812.1 416,812.8 417.3,813.2 418.5,813.5 419.7,813.6 421,813.7 422.2,813.7 423.5,813.7 
					424.7,813.8 425.9,813.8 427.2,813.8 428.4,813.8 				"/>
				<polyline class="st15" points="266.3,813.8 267.6,813.8 268.8,813.8 270,813.8 271.3,813.8 272.5,813.8 273.8,813.8 275,813.8 
					276.2,813.8 277.5,813.8 278.7,813.8 279.9,813.8 281.2,813.8 282.4,813.8 283.7,813.8 284.9,813.8 286.1,813.8 287.4,813.8 
					288.6,813.8 289.8,813.8 291.1,813.8 292.3,813.8 293.6,813.8 294.8,813.8 296,813.8 297.3,813.8 298.5,813.8 299.7,813.8 
					301,813.8 302.2,813.8 303.4,813.8 304.7,813.8 305.9,813.8 307.2,813.8 308.4,813.8 309.6,813.8 310.9,813.8 312.1,813.8 
					313.3,813.8 314.6,813.8 315.8,813.8 317.1,813.8 318.3,813.8 319.5,813.8 320.8,813.8 322,813.8 323.2,813.8 324.5,813.8 
					325.7,813.8 327,813.8 328.2,813.8 329.4,813.8 330.7,813.8 331.9,813.8 333.1,813.8 334.4,813.8 335.6,813.8 336.9,813.8 
					338.1,813.8 339.3,813.8 340.6,813.8 341.8,813.8 343,813.8 344.3,813.8 345.5,813.8 346.7,813.8 348,813.8 349.2,813.8 
					350.5,813.8 351.7,813.8 352.9,813.8 354.2,813.8 355.4,813.8 356.6,813.8 357.9,813.8 359.1,813.8 360.4,813.8 361.6,813.8 
					362.8,813.8 364.1,813.8 365.3,813.8 366.5,813.8 367.8,813.8 369,813.7 370.3,813.7 371.5,813.7 372.7,813.6 374,813.5 
					375.2,813.3 376.4,813 377.7,812.5 378.9,811.8 380.2,810.8 381.4,809.3 382.6,807.1 383.9,804.1 385.1,800.1 386.3,794.8 
					387.6,788 388.8,779.8 390,770.2 391.3,759.6 392.5,748.6 393.8,738.3 395,729.6 396.2,723.9 397.5,722 398.7,724.4 399.9,731 
					401.2,741 402.4,753.1 403.7,765.7 404.9,777.6 406.1,787.9 407.4,796.1 408.6,802.2 409.8,806.5 411.1,809.3 412.3,811.2 
					413.6,812.2 414.8,812.9 416,813.3 417.3,813.5 418.5,813.6 419.7,813.7 421,813.7 422.2,813.8 423.5,813.8 424.7,813.8 
					425.9,813.8 427.2,813.8 428.4,813.8 				"/>
				<polyline class="st16" points="266.3,813.8 267.6,813.8 268.8,813.8 270,813.8 271.3,813.8 272.5,813.8 273.8,813.8 275,813.8 
					276.2,813.8 277.5,813.8 278.7,813.8 279.9,813.8 281.2,813.8 282.4,813.8 283.7,813.8 284.9,813.8 286.1,813.8 287.4,813.8 
					288.6,813.8 289.8,813.8 291.1,813.8 292.3,813.8 293.6,813.8 294.8,813.8 296,813.8 297.3,813.8 298.5,813.8 299.7,813.8 
					301,813.8 302.2,813.8 303.4,813.8 304.7,813.8 305.9,813.8 307.2,813.8 308.4,813.8 309.6,813.8 310.9,813.8 312.1,813.8 
					313.3,813.8 314.6,813.8 315.8,813.8 317.1,813.8 318.3,813.8 319.5,813.8 320.8,813.8 322,813.8 323.2,813.8 324.5,813.8 
					325.7,813.8 327,813.8 328.2,813.8 329.4,813.8 330.7,813.8 331.9,813.8 333.1,813.8 334.4,813.8 335.6,813.8 336.9,813.8 
					338.1,813.8 339.3,813.8 340.6,813.8 341.8,813.8 343,813.8 344.3,813.8 345.5,813.8 346.7,813.8 348,813.8 349.2,813.8 
					350.5,813.8 351.7,813.8 352.9,813.8 354.2,813.8 355.4,813.8 356.6,813.8 357.9,813.8 359.1,813.8 360.4,813.8 361.6,813.8 
					362.8,813.8 364.1,813.8 365.3,813.8 366.5,813.7 367.8,813.7 369,813.7 370.3,813.6 371.5,813.6 372.7,813.4 374,813.2 
					375.2,812.9 376.4,812.5 377.7,811.8 378.9,810.8 380.2,809.4 381.4,807.5 382.6,804.7 383.9,801 385.1,796.2 386.3,790.2 
					387.6,782.7 388.8,774 390,764.2 391.3,753.8 392.5,743.7 393.8,734.7 395,728 396.2,724.5 397.5,724.8 398.7,729.3 
					399.9,737.3 401.2,748 402.4,760 403.7,772 404.9,782.9 406.1,792 407.4,799.2 408.6,804.3 409.8,807.9 411.1,810.2 
					412.3,811.7 413.6,812.6 414.8,813.1 416,813.4 417.3,813.6 418.5,813.7 419.7,813.7 421,813.7 422.2,813.8 423.5,813.8 
					424.7,813.8 425.9,813.8 427.2,813.8 428.4,813.8 				"/>
			</g>
		</g>
	</g>
</g>
<rect x="194.4" class="st4" width="324" height="864"/>
<rect x="222" y="807.8" class="st4" width="30" height="14.2"/>
<text transform="matrix(1 0 0 1 221.9659 818.0703)" class="st5 st6 st7">0.000</text>
<rect x="222" y="780.6" class="st4" width="30" height="14.2"/>
<text transform="matrix(1 0 0 1 221.9659 790.8496)" class="st5 st6 st7">0.025</text>
<rect x="222" y="753.3" class="st4" width="30" height="14.2"/>
<text transform="matrix(1 0 0 1 221.9659 763.6396)" class="st5 st6 st7">0.050</text>
<rect x="222" y="726.1" class="st4" width="30" height="14.2"/>
<text transform="matrix(1 0 0 1 221.9659 736.4199)" class="st5 st6 st7">0.075</text>
<rect x="222" y="698.9" class="st4" width="30" height="14.2"/>
<text transform="matrix(1 0 0 1 221.9659 709.21)" class="st5 st6 st7">0.100</text>
<rect x="222" y="671.7" class="st4" width="30" height="14.2"/>
<text transform="matrix(1 0 0 1 221.9659 681.9902)" class="st5 st6 st7">0.125</text>
<text transform="matrix(1 0 0 1 261.7584 833.88)" class="st5 st6 st7">0</text>
<rect x="386" y="823.6" class="st4" width="8" height="14.2"/>
<text transform="matrix(1 0 0 1 386.0435 833.8799)" class="st5 st6 st7">K</text>
<text transform="matrix(6.123234e-17 -1 1 6.123234e-17 216.0653 782.1855)" class="st6 st8">probability</text>
<g>
	<g>
		<g>
			<defs>
				<rect id="SVGID_00000173128318205641023550000007835414129032962729_" x="203.4" y="-101" width="324" height="864"/>
			</defs>
			<clipPath id="SVGID_00000101078330421179363380000007454769541273344428_">
				<use xlink:href="#SVGID_00000173128318205641023550000007835414129032962729_"  style="overflow:visible;"/>
			</clipPath>
			<g style="clip-path:url(#SVGID_00000101078330421179363380000007454769541273344428_);">
				<text transform="matrix(1 0 0 1 476.4118 268.97)" class="st6 st8">action</text>
				<text transform="matrix(1 0 0 1 467.2529 285.17)" class="st6 st8">(removal</text>
				<text transform="matrix(1 0 0 1 476.9721 301.37)" class="st6 st8">effort)</text>
				<line class="st12" x1="475.1" y1="317" x2="488.9" y2="317"/>
				<line class="st14" x1="475.1" y1="334.3" x2="488.9" y2="334.3"/>
				<line class="st20" x1="475.1" y1="351.5" x2="488.9" y2="351.5"/>
				<line class="st21" x1="475.1" y1="368.8" x2="488.9" y2="368.8"/>
				<line class="st16" x1="475.1" y1="386.1" x2="488.9" y2="386.1"/>
				<text transform="matrix(1 0 0 1 496.0852 321.29)" class="st6 st7">0</text>
				<rect x="496.1" y="328.3" class="st4" width="23.4" height="14.2"/>
				<text transform="matrix(1 0 0 1 496.0855 338.5703)" class="st6 st7">0.25</text>
				<text transform="matrix(1 0 0 1 496.0852 355.85)" class="st6 st7">0.5</text>
				<rect x="496.1" y="362.8" class="st4" width="23.4" height="14.2"/>
				<text transform="matrix(1 0 0 1 496.0855 373.1299)" class="st6 st7">0.75</text>
				<text transform="matrix(1 0 0 1 496.0852 390.41)" class="st6 st7">1</text>
			</g>
		</g>
	</g>
</g>
<g>
	<g>
		<g>
			<path class="st22" d="M465.8,507.9c-3.5-0.2-7-0.2-10.6-0.2c-1.3,0-2.6,1.1-2.5,2.5c0.1,1.3,1.1,2.5,2.5,2.5c3.5,0,7,0,10.6,0.2
				c1.3,0.1,2.6-1.2,2.5-2.5C468.3,509,467.2,507.9,465.8,507.9L465.8,507.9z"/>
		</g>
	</g>
	<g>
		<g>
			<path class="st22" d="M461,503.6c2.6,2.3,5.1,4.5,7.7,6.8c0.5,0.4,1.1,0.7,1.8,0.7c0.6,0,1.3-0.3,1.8-0.7c0.9-0.9,1-2.6,0-3.5
				c-2.6-2.3-5.1-4.5-7.7-6.8c-0.5-0.4-1.1-0.7-1.8-0.7c-0.6,0-1.3,0.3-1.8,0.7C460.1,501,460,502.7,461,503.6L461,503.6z"/>
		</g>
	</g>
	<g>
		<g>
			<path class="st22" d="M468.7,507.6c-2,3.1-4.1,6.2-6.4,9.1c-0.4,0.5-0.4,1.4-0.3,1.9c0.2,0.6,0.6,1.2,1.1,1.5
				c0.6,0.3,1.3,0.5,1.9,0.3c0.7-0.2,1.1-0.6,1.5-1.1c2.2-3,4.4-6,6.4-9.1c0.7-1.1,0.3-2.8-0.9-3.4
				C470.9,506.1,469.4,506.5,468.7,507.6L468.7,507.6z"/>
		</g>
	</g>
</g>
<g>
	<g>
		<g>
			<path class="st23" d="M466.3,537.4c-3.5-0.3-7-0.4-10.6-0.4c-1.3,0-2.6,1.2-2.5,2.5c0.1,1.4,1.1,2.5,2.5,2.5
				c3.5,0,7.1,0.2,10.6,0.4c1.3,0.1,2.6-1.2,2.5-2.5C468.8,538.5,467.7,537.5,466.3,537.4L466.3,537.4z"/>
		</g>
	</g>
	<g>
		<g>
			<path class="st23" d="M461.3,533.1c2.6,2.3,5.3,4.6,7.9,7c0.5,0.4,1.1,0.7,1.8,0.7c0.6,0,1.3-0.3,1.8-0.7c0.9-0.9,1-2.6,0-3.5
				c-2.6-2.3-5.3-4.6-7.9-7c-0.5-0.4-1.1-0.7-1.8-0.7c-0.6,0-1.3,0.3-1.8,0.7C460.4,530.5,460.3,532.1,461.3,533.1L461.3,533.1z"/>
		</g>
	</g>
	<g>
		<g>
			<path class="st23" d="M469.1,537.3c-1.9,3.1-4,6.1-6.2,9c-0.4,0.5-0.4,1.4-0.3,1.9c0.2,0.6,0.6,1.2,1.1,1.5
				c0.6,0.3,1.3,0.5,1.9,0.3c0.7-0.2,1.1-0.6,1.5-1.1c2.2-2.9,4.3-5.9,6.2-9c0.7-1.1,0.3-2.8-0.9-3.4
				C471.3,535.7,469.9,536.1,469.1,537.3L469.1,537.3z"/>
		</g>
	</g>
</g>
<text transform="matrix(1 0 0 1 463.8655 468.7066)" class="st6 st8">propagule </text>
<text transform="matrix(1 0 0 1 463.8655 486.7066)" class="st6 st8">     type</text>
<text transform="matrix(1 0 0 1 482.6883 513.5177)" class="st6 st24">local</text>
<text transform="matrix(1 0 0 1 483.6376 543.2422)" class="st6 st24">nonlocal</text>
<text transform="matrix(1 0 0 1 28.2605 665.2116)" class="st6 st25">D.</text>
<text transform="matrix(1 0 0 1 26.7206 449.2113)" class="st6 st25">C.</text>
<text transform="matrix(1 0 0 1 28.2608 233.2116)" class="st6 st25">B.</text>
<text transform="matrix(1 0 0 1 28.2607 22.6914)" class="st6 st25">A.</text>
<image style="overflow:visible;enable-background:new    ;" width="3338" height="3257" xlink:href="../../../figures/regimes/recruitment_icon_regime3_paper-01.png"  transform="matrix(5.142858e-02 0 0 5.142855e-02 17.5235 444.8201)">
</image>
<image style="overflow:visible;enable-background:new    ;" width="3338" height="3257" xlink:href="../../../figures/regimes/recruitment_icon_regime4-01.png"  transform="matrix(5.142858e-02 0 0 5.142855e-02 17.5235 663.2756)">
</image>
<image style="overflow:visible;enable-background:new    ;" width="3338" height="3257" xlink:href="../../../figures/regimes/recruitment_icon_regime2a_paper-01.png"  transform="matrix(5.142858e-02 0 0 5.142855e-02 17.5235 22.8148)">
</image>
<image style="overflow:visible;enable-background:new    ;" width="3338" height="3257" xlink:href="../../../figures/regimes/recruitment_icon_regime2b_paper-01.png"  transform="matrix(5.142858e-02 0 0 5.142855e-02 17.5235 235.6095)">
</image>
<g>
	<g>
		<defs>
			<rect id="SVGID_00000166642953051177220640000016903223260819849898_" x="256.9" y="32.1" width="179.6" height="144.7"/>
		</defs>
		<clipPath id="SVGID_00000049917134364778373200000016210320370327413682_">
			<use xlink:href="#SVGID_00000166642953051177220640000016903223260819849898_"  style="overflow:visible;"/>
		</clipPath>
		
			<line style="clip-path:url(#SVGID_00000049917134364778373200000016210320370327413682_);fill:none;stroke:#EBEBEB;stroke-width:0.53;stroke-linejoin:round;stroke-miterlimit:10;" x1="256.9" y1="144.7" x2="436.5" y2="144.7"/>
	</g>
	<g>
		<defs>
			<rect id="SVGID_00000111149937002534576540000003690547601990273173_" x="256.9" y="32.1" width="179.6" height="144.7"/>
		</defs>
		<clipPath id="SVGID_00000135654626264802364500000016749971858619902359_">
			<use xlink:href="#SVGID_00000111149937002534576540000003690547601990273173_"  style="overflow:visible;"/>
		</clipPath>
		
			<line style="clip-path:url(#SVGID_00000135654626264802364500000016749971858619902359_);fill:none;stroke:#EBEBEB;stroke-width:0.53;stroke-linejoin:round;stroke-miterlimit:10;" x1="256.9" y1="93.9" x2="436.5" y2="93.9"/>
	</g>
	<g>
		<defs>
			<rect id="SVGID_00000123417399770696782240000002116928880490465703_" x="256.9" y="32.1" width="179.6" height="144.7"/>
		</defs>
		<clipPath id="SVGID_00000103981445761644970860000002235637737708599702_">
			<use xlink:href="#SVGID_00000123417399770696782240000002116928880490465703_"  style="overflow:visible;"/>
		</clipPath>
		
			<line style="clip-path:url(#SVGID_00000103981445761644970860000002235637737708599702_);fill:none;stroke:#EBEBEB;stroke-width:0.53;stroke-linejoin:round;stroke-miterlimit:10;" x1="256.9" y1="43" x2="436.5" y2="43"/>
	</g>
	<g>
		<defs>
			<rect id="SVGID_00000050649804986633636470000010686110736412053685_" x="256.9" y="32.1" width="179.6" height="144.7"/>
		</defs>
		<clipPath id="SVGID_00000044144905765439126270000016582881966857817777_">
			<use xlink:href="#SVGID_00000050649804986633636470000010686110736412053685_"  style="overflow:visible;"/>
		</clipPath>
		
			<line style="clip-path:url(#SVGID_00000044144905765439126270000016582881966857817777_);fill:none;stroke:#EBEBEB;stroke-width:0.53;stroke-linejoin:round;stroke-miterlimit:10;" x1="327.5" y1="176.8" x2="327.5" y2="32.1"/>
	</g>
	<g>
		<defs>
			<rect id="SVGID_00000109752717094273884160000015974974334862421140_" x="256.9" y="32.1" width="179.6" height="144.7"/>
		</defs>
		<clipPath id="SVGID_00000118355255167626189330000013357413490761677186_">
			<use xlink:href="#SVGID_00000109752717094273884160000015974974334862421140_"  style="overflow:visible;"/>
		</clipPath>
		
			<line style="clip-path:url(#SVGID_00000118355255167626189330000013357413490761677186_);fill:none;stroke:#EBEBEB;stroke-width:1.07;stroke-linejoin:round;stroke-miterlimit:10;" x1="256.9" y1="170.2" x2="436.5" y2="170.2"/>
	</g>
	<g>
		<defs>
			<rect id="SVGID_00000019642517993118158920000012185112592084804501_" x="256.9" y="32.1" width="179.6" height="144.7"/>
		</defs>
		<clipPath id="SVGID_00000172407962944808094270000004696454201502945959_">
			<use xlink:href="#SVGID_00000019642517993118158920000012185112592084804501_"  style="overflow:visible;"/>
		</clipPath>
		
			<line style="clip-path:url(#SVGID_00000172407962944808094270000004696454201502945959_);fill:none;stroke:#EBEBEB;stroke-width:1.07;stroke-linejoin:round;stroke-miterlimit:10;" x1="256.9" y1="119.3" x2="436.5" y2="119.3"/>
	</g>
	<g>
		<defs>
			<rect id="SVGID_00000113321768433319634870000010962393824906326957_" x="256.9" y="32.1" width="179.6" height="144.7"/>
		</defs>
		<clipPath id="SVGID_00000027586582067218297580000009818701558117841042_">
			<use xlink:href="#SVGID_00000113321768433319634870000010962393824906326957_"  style="overflow:visible;"/>
		</clipPath>
		
			<line style="clip-path:url(#SVGID_00000027586582067218297580000009818701558117841042_);fill:none;stroke:#EBEBEB;stroke-width:1.07;stroke-linejoin:round;stroke-miterlimit:10;" x1="256.9" y1="68.4" x2="436.5" y2="68.4"/>
	</g>
	<g>
		<defs>
			<rect id="SVGID_00000158735539655835342380000005594225779839527066_" x="256.9" y="32.1" width="179.6" height="144.7"/>
		</defs>
		<clipPath id="SVGID_00000027573102533374136090000001006833443809425792_">
			<use xlink:href="#SVGID_00000158735539655835342380000005594225779839527066_"  style="overflow:visible;"/>
		</clipPath>
		
			<line style="clip-path:url(#SVGID_00000027573102533374136090000001006833443809425792_);fill:none;stroke:#EBEBEB;stroke-width:1.07;stroke-linejoin:round;stroke-miterlimit:10;" x1="265" y1="176.8" x2="265" y2="32.1"/>
	</g>
	<g>
		<defs>
			<rect id="SVGID_00000056427883653161863300000013198060204128908953_" x="256.9" y="32.1" width="179.6" height="144.7"/>
		</defs>
		<clipPath id="SVGID_00000080168782534091534730000000266149624387357106_">
			<use xlink:href="#SVGID_00000056427883653161863300000013198060204128908953_"  style="overflow:visible;"/>
		</clipPath>
		
			<line style="clip-path:url(#SVGID_00000080168782534091534730000000266149624387357106_);fill:none;stroke:#EBEBEB;stroke-width:1.07;stroke-linejoin:round;stroke-miterlimit:10;" x1="390" y1="176.8" x2="390" y2="32.1"/>
	</g>
	<g>
		<defs>
			<rect id="SVGID_00000075152065697854805830000000769476640756949635_" x="256.9" y="32.1" width="179.6" height="144.7"/>
		</defs>
		<clipPath id="SVGID_00000151521765436563604450000005053528813635533481_">
			<use xlink:href="#SVGID_00000075152065697854805830000000769476640756949635_"  style="overflow:visible;"/>
		</clipPath>
		
			<polyline style="clip-path:url(#SVGID_00000151521765436563604450000005053528813635533481_);fill:none;stroke:#C7E9B4;stroke-width:3.2;stroke-linejoin:round;stroke-miterlimit:10;" points="
			266.3,170.2 267.5,170.2 268.8,170.2 270,170.2 271.2,170.2 272.5,170.2 273.7,170.2 274.9,170.2 276.2,170.2 277.4,170.2 
			278.7,170.2 279.9,170.2 281.1,170.2 282.4,170.2 283.6,170.2 284.8,170.2 286.1,170.2 287.3,170.2 288.6,170.2 289.8,170.2 
			291,170.2 292.3,170.2 293.5,170.2 294.7,170.2 296,170.2 297.2,170.2 298.4,170.2 299.7,170.2 300.9,170.2 302.2,170.2 
			303.4,170.2 304.6,170.2 305.9,170.2 307.1,170.2 308.4,170.2 309.6,170.2 310.8,170.2 312.1,170.2 313.3,170.2 314.5,170.2 
			315.8,170.2 317,170.2 318.2,170.2 319.5,170.2 320.7,170.2 322,170.2 323.2,170.2 324.4,170.2 325.7,170.2 326.9,170.2 
			328.1,170.2 329.4,170.2 330.6,170.2 331.9,170.2 333.1,170.2 334.3,170.2 335.6,170.2 336.8,170.2 338,170.2 339.3,170.2 
			340.5,170.2 341.8,170.2 343,170.2 344.2,170.2 345.5,170.2 346.7,170.2 347.9,170.2 349.2,170.2 350.4,170.2 351.6,170.2 
			352.9,170.2 354.1,170.2 355.4,170.2 356.6,170.2 357.8,170.2 359.1,170.2 360.3,170.2 361.5,170.2 362.8,170.2 364,170.2 
			365.3,170.2 366.5,170.2 367.7,170.2 369,170.2 370.2,170 371.5,169.5 372.7,167.6 373.9,161.4 375.2,144.3 376.4,109.3 
			377.6,64.1 378.9,38.6 380.1,67.7 381.3,121.1 382.6,154.8 383.8,166.2 385.1,169.1 386.3,169.9 387.5,170.1 388.8,170.2 
			390,170.2 391.2,170.2 392.5,170.2 393.7,170.2 395,170.2 396.2,170.2 397.4,170.2 398.7,170.2 399.9,170.2 401.1,170.2 
			402.4,170.2 403.6,170.2 404.9,170.2 406.1,170.2 407.3,170.2 408.6,170.2 409.8,170.2 411,170.2 412.3,170.2 413.5,170.2 
			414.8,170.2 416,170.2 417.2,170.2 418.5,170.2 419.7,170.2 420.9,170.2 422.2,170.2 423.4,170.2 424.6,170.2 425.9,170.2 
			427.1,170.2 428.4,170.2 		"/>
	</g>
	<g>
		<defs>
			<rect id="SVGID_00000060013447334031119560000004337946064292519811_" x="256.9" y="32.1" width="179.6" height="144.7"/>
		</defs>
		<clipPath id="SVGID_00000051350207616367122650000004680240014687164306_">
			<use xlink:href="#SVGID_00000060013447334031119560000004337946064292519811_"  style="overflow:visible;"/>
		</clipPath>
		
			<polyline style="clip-path:url(#SVGID_00000051350207616367122650000004680240014687164306_);fill:none;stroke:#7FCDBB;stroke-width:3.2;stroke-linejoin:round;stroke-miterlimit:10;" points="
			266.3,170.2 267.5,170.2 268.8,170.2 270,170.2 271.2,170.2 272.5,170.2 273.7,170.2 274.9,170.2 276.2,170.2 277.4,170.2 
			278.7,170.2 279.9,170.2 281.1,170.2 282.4,170.2 283.6,170.2 284.8,170.2 286.1,170.2 287.3,170.2 288.6,170.2 289.8,170.2 
			291,170.2 292.3,170.1 293.5,170.1 294.7,170 296,169.8 297.2,169.5 298.4,169 299.7,168.3 300.9,167.3 302.2,165.9 303.4,164.1 
			304.6,161.8 305.9,158.9 307.1,155.9 308.4,152.4 309.6,149 310.8,145.7 312.1,142.2 313.3,139.7 314.5,137.8 315.8,136.4 
			317,136.6 318.2,137.4 319.5,138.9 320.7,141 322,143.8 323.2,147.1 324.4,150.3 325.7,153.5 326.9,156.6 328.1,159.3 
			329.4,161.7 330.6,163.7 331.9,165.3 333.1,166.6 334.3,167.6 335.6,168.4 336.8,168.9 338,169.3 339.3,169.6 340.5,169.8 
			341.8,169.9 343,170 344.2,170.1 345.5,170.1 346.7,170.1 347.9,170.2 349.2,170.2 350.4,170.2 351.6,170.2 352.9,170.2 
			354.1,170.2 355.4,170.2 356.6,170.2 357.8,170.2 359.1,170.2 360.3,170.2 361.5,170.2 362.8,170.2 364,170.2 365.3,170.2 
			366.5,170.2 367.7,170.2 369,170.2 370.2,170.2 371.5,170.2 372.7,170.2 373.9,170.2 375.2,170.2 376.4,170.2 377.6,170.2 
			378.9,170.2 380.1,170.2 381.3,170.2 382.6,170.2 383.8,170.2 385.1,170.2 386.3,170.2 387.5,170.2 388.8,170.2 390,170.2 
			391.2,170.2 392.5,170.2 393.7,170.2 395,170.2 396.2,170.2 397.4,170.2 398.7,170.2 399.9,170.2 401.1,170.2 402.4,170.2 
			403.6,170.2 404.9,170.2 406.1,170.2 407.3,170.2 408.6,170.2 409.8,170.2 411,170.2 412.3,170.2 413.5,170.2 414.8,170.2 
			416,170.2 417.2,170.2 418.5,170.2 419.7,170.2 420.9,170.2 422.2,170.2 423.4,170.2 424.6,170.2 425.9,170.2 427.1,170.2 
			428.4,170.2 		"/>
	</g>
	<g>
		<defs>
			<rect id="SVGID_00000181076342768559489100000010345459940476635573_" x="256.9" y="32.1" width="179.6" height="144.7"/>
		</defs>
		<clipPath id="SVGID_00000014635590908308080780000017671682845689065393_">
			<use xlink:href="#SVGID_00000181076342768559489100000010345459940476635573_"  style="overflow:visible;"/>
		</clipPath>
		
			<polyline style="clip-path:url(#SVGID_00000014635590908308080780000017671682845689065393_);fill:none;stroke:#41B6C4;stroke-width:3.2;stroke-linejoin:round;stroke-miterlimit:10;" points="
			266.3,170.2 267.5,170.2 268.8,170.2 270,170.2 271.2,170.2 272.5,170.2 273.7,169.8 274.9,168.1 276.2,163.9 277.4,157.1 
			278.7,148.8 279.9,140.6 281.1,134 282.4,129.6 283.6,128 284.8,128.1 286.1,130.2 287.3,133.5 288.6,137.3 289.8,141.4 
			291,145.4 292.3,149.2 293.5,152.7 294.7,155.7 296,158.3 297.2,160.5 298.4,162.4 299.7,164 300.9,165.2 302.2,166.2 303.4,167 
			304.6,167.7 305.9,168.2 307.1,168.7 308.4,169 309.6,169.3 310.8,169.5 312.1,169.6 313.3,169.7 314.5,169.8 315.8,169.9 
			317,170 318.2,170 319.5,170.1 320.7,170.1 322,170.1 323.2,170.1 324.4,170.1 325.7,170.2 326.9,170.2 328.1,170.2 329.4,170.2 
			330.6,170.2 331.9,170.2 333.1,170.2 334.3,170.2 335.6,170.2 336.8,170.2 338,170.2 339.3,170.2 340.5,170.2 341.8,170.2 
			343,170.2 344.2,170.2 345.5,170.2 346.7,170.2 347.9,170.2 349.2,170.2 350.4,170.2 351.6,170.2 352.9,170.2 354.1,170.2 
			355.4,170.2 356.6,170.2 357.8,170.2 359.1,170.2 360.3,170.2 361.5,170.2 362.8,170.2 364,170.2 365.3,170.2 366.5,170.2 
			367.7,170.2 369,170.2 370.2,170.2 371.5,170.2 372.7,170.2 373.9,170.2 375.2,170.2 376.4,170.2 377.6,170.2 378.9,170.2 
			380.1,170.2 381.3,170.2 382.6,170.2 383.8,170.2 385.1,170.2 386.3,170.2 387.5,170.2 388.8,170.2 390,170.2 391.2,170.2 
			392.5,170.2 393.7,170.2 395,170.2 396.2,170.2 397.4,170.2 398.7,170.2 399.9,170.2 401.1,170.2 402.4,170.2 403.6,170.2 
			404.9,170.2 406.1,170.2 407.3,170.2 408.6,170.2 409.8,170.2 411,170.2 412.3,170.2 413.5,170.2 414.8,170.2 416,170.2 
			417.2,170.2 418.5,170.2 419.7,170.2 420.9,170.2 422.2,170.2 423.4,170.2 424.6,170.2 425.9,170.2 427.1,170.2 428.4,170.2 		"/>
	</g>
	<g>
		<defs>
			<rect id="SVGID_00000095310525249038170840000013357148837622360712_" x="256.9" y="32.1" width="179.6" height="144.7"/>
		</defs>
		<clipPath id="SVGID_00000061437843669015691390000014192581574479458705_">
			<use xlink:href="#SVGID_00000095310525249038170840000013357148837622360712_"  style="overflow:visible;"/>
		</clipPath>
		
			<polyline style="clip-path:url(#SVGID_00000061437843669015691390000014192581574479458705_);fill:none;stroke:#225EA8;stroke-width:3.2;stroke-linejoin:round;stroke-miterlimit:10;" points="
			266.3,170.2 267.5,170.2 268.8,170.2 270,170.2 271.2,169.5 272.5,163.4 273.7,147.9 274.9,131.4 276.2,121.5 277.4,118.1 
			278.7,119 279.9,123.2 281.1,128.5 282.4,134.3 283.6,139.9 284.8,145 286.1,149.3 287.3,153.2 288.6,156.3 289.8,159 291,161.1 
			292.3,162.9 293.5,164.3 294.7,165.5 296,166.4 297.2,167.2 298.4,167.8 299.7,168.3 300.9,168.7 302.2,169 303.4,169.2 
			304.6,169.4 305.9,169.6 307.1,169.7 308.4,169.8 309.6,169.9 310.8,169.9 312.1,170 313.3,170 314.5,170.1 315.8,170.1 
			317,170.1 318.2,170.1 319.5,170.1 320.7,170.2 322,170.2 323.2,170.2 324.4,170.2 325.7,170.2 326.9,170.2 328.1,170.2 
			329.4,170.2 330.6,170.2 331.9,170.2 333.1,170.2 334.3,170.2 335.6,170.2 336.8,170.2 338,170.2 339.3,170.2 340.5,170.2 
			341.8,170.2 343,170.2 344.2,170.2 345.5,170.2 346.7,170.2 347.9,170.2 349.2,170.2 350.4,170.2 351.6,170.2 352.9,170.2 
			354.1,170.2 355.4,170.2 356.6,170.2 357.8,170.2 359.1,170.2 360.3,170.2 361.5,170.2 362.8,170.2 364,170.2 365.3,170.2 
			366.5,170.2 367.7,170.2 369,170.2 370.2,170.2 371.5,170.2 372.7,170.2 373.9,170.2 375.2,170.2 376.4,170.2 377.6,170.2 
			378.9,170.2 380.1,170.2 381.3,170.2 382.6,170.2 383.8,170.2 385.1,170.2 386.3,170.2 387.5,170.2 388.8,170.2 390,170.2 
			391.2,170.2 392.5,170.2 393.7,170.2 395,170.2 396.2,170.2 397.4,170.2 398.7,170.2 399.9,170.2 401.1,170.2 402.4,170.2 
			403.6,170.2 404.9,170.2 406.1,170.2 407.3,170.2 408.6,170.2 409.8,170.2 411,170.2 412.3,170.2 413.5,170.2 414.8,170.2 
			416,170.2 417.2,170.2 418.5,170.2 419.7,170.2 420.9,170.2 422.2,170.2 423.4,170.2 424.6,170.2 425.9,170.2 427.1,170.2 
			428.4,170.2 		"/>
	</g>
	<g>
		<defs>
			<rect id="SVGID_00000025442006377959504350000013826300136472172950_" x="256.9" y="32.1" width="179.6" height="144.7"/>
		</defs>
		<clipPath id="SVGID_00000066514810657095578260000015003810603119092914_">
			<use xlink:href="#SVGID_00000025442006377959504350000013826300136472172950_"  style="overflow:visible;"/>
		</clipPath>
		
			<polyline style="clip-path:url(#SVGID_00000066514810657095578260000015003810603119092914_);fill:none;stroke:#081D58;stroke-width:3.2;stroke-linejoin:round;stroke-miterlimit:10;" points="
			266.3,170.2 267.5,170.2 268.8,170.2 270,170.1 271.2,166.6 272.5,149.8 273.7,126.6 274.9,115.4 276.2,113.7 277.4,116.5 
			278.7,122.1 279.9,129 281.1,135.3 282.4,141.3 283.6,146.5 284.8,150.9 286.1,154.5 287.3,157.5 288.6,160 289.8,161.9 
			291,163.6 292.3,164.8 293.5,165.9 294.7,166.7 296,167.4 297.2,168 298.4,168.4 299.7,168.8 300.9,169.1 302.2,169.3 
			303.4,169.5 304.6,169.6 305.9,169.7 307.1,169.8 308.4,169.9 309.6,170 310.8,170 312.1,170 313.3,170.1 314.5,170.1 
			315.8,170.1 317,170.1 318.2,170.1 319.5,170.2 320.7,170.2 322,170.2 323.2,170.2 324.4,170.2 325.7,170.2 326.9,170.2 
			328.1,170.2 329.4,170.2 330.6,170.2 331.9,170.2 333.1,170.2 334.3,170.2 335.6,170.2 336.8,170.2 338,170.2 339.3,170.2 
			340.5,170.2 341.8,170.2 343,170.2 344.2,170.2 345.5,170.2 346.7,170.2 347.9,170.2 349.2,170.2 350.4,170.2 351.6,170.2 
			352.9,170.2 354.1,170.2 355.4,170.2 356.6,170.2 357.8,170.2 359.1,170.2 360.3,170.2 361.5,170.2 362.8,170.2 364,170.2 
			365.3,170.2 366.5,170.2 367.7,170.2 369,170.2 370.2,170.2 371.5,170.2 372.7,170.2 373.9,170.2 375.2,170.2 376.4,170.2 
			377.6,170.2 378.9,170.2 380.1,170.2 381.3,170.2 382.6,170.2 383.8,170.2 385.1,170.2 386.3,170.2 387.5,170.2 388.8,170.2 
			390,170.2 391.2,170.2 392.5,170.2 393.7,170.2 395,170.2 396.2,170.2 397.4,170.2 398.7,170.2 399.9,170.2 401.1,170.2 
			402.4,170.2 403.6,170.2 404.9,170.2 406.1,170.2 407.3,170.2 408.6,170.2 409.8,170.2 411,170.2 412.3,170.2 413.5,170.2 
			414.8,170.2 416,170.2 417.2,170.2 418.5,170.2 419.7,170.2 420.9,170.2 422.2,170.2 423.4,170.2 424.6,170.2 425.9,170.2 
			427.1,170.2 428.4,170.2 		"/>
	</g>
</g>
<text transform="matrix(1 0 0 1 287.6031 855.8999)" class="st6 st8">local equilibrium</text>
<text transform="matrix(1 0 0 1 291.3422 872.0999)" class="st6 st8">population size</text>
</svg>
