<?xml version="1.0" encoding="UTF-8"?>
<svg id="Layer_1" xmlns="http://www.w3.org/2000/svg" version="1.1" xmlns:xlink="http://www.w3.org/1999/xlink" viewBox="0 0 695.8 576">
  <!-- Generator: Adobe Illustrator 29.1.0, SVG Export Plug-In . SVG Version: 2.1.0 Build 142)  -->
  <defs>
    <style>
      .st0 {
        clip-path: url(#clippath-34);
      }

      .st1 {
        clip-path: url(#clippath-38);
      }

      .st2 {
        clip-path: url(#clippath-21);
      }

      .st3 {
        clip-path: url(#clippath-6);
      }

      .st4 {
        clip-path: url(#clippath-17);
      }

      .st5 {
        font-size: 9px;
      }

      .st5, .st6, .st7, .st8, .st9, .st10, .st11, .st12 {
        isolation: isolate;
      }

      .st5, .st6, .st7, .st10, .st11, .st12 {
        font-family: ArialMT, Arial;
      }

      .st13, .st14, .st15, .st16, .st17, .st18, .st19, .st20, .st21, .st22, .st23 {
        fill: none;
      }

      .st13, .st14, .st16, .st17, .st24, .st18, .st19, .st20, .st21, .st22, .st23 {
        stroke-linejoin: round;
      }

      .st13, .st16, .st18, .st22 {
        stroke-width: 3.2px;
      }

      .st13, .st18, .st19 {
        stroke: #ba55d3;
      }

      .st25 {
        clip-path: url(#clippath-33);
      }

      .st26 {
        clip-path: url(#clippath-18);
      }

      .st27 {
        clip-path: url(#clippath-22);
      }

      .st14 {
        stroke-dasharray: 5.7 5.7;
      }

      .st14, .st19, .st20, .st21 {
        stroke-width: 2.1px;
      }

      .st14, .st21 {
        stroke: #000;
      }

      .st28 {
        clip-path: url(#clippath-9);
      }

      .st29 {
        clip-path: url(#clippath-10);
      }

      .st30 {
        clip-path: url(#clippath-42);
      }

      .st31 {
        clip-path: url(#clippath-25);
      }

      .st6 {
        font-size: 5.6px;
      }

      .st32 {
        letter-spacing: 0em;
      }

      .st16, .st18 {
        stroke-dasharray: 4.3 12.8;
      }

      .st16, .st20, .st22 {
        stroke: #008b00;
      }

      .st17 {
        stroke-width: .5px;
      }

      .st17, .st23 {
        stroke: #ebebeb;
      }

      .st7 {
        font-size: 13px;
      }

      .st33 {
        clip-path: url(#clippath-46);
      }

      .st34 {
        clip-path: url(#clippath-5);
      }

      .st35 {
        clip-path: url(#clippath-41);
      }

      .st24 {
        fill: #fff;
        stroke: #fff;
        stroke-linecap: round;
      }

      .st24, .st23 {
        stroke-width: 1.1px;
      }

      .st36 {
        letter-spacing: 0em;
      }

      .st37 {
        clip-path: url(#clippath-26);
      }

      .st38 {
        clip-path: url(#clippath-14);
      }

      .st39 {
        clip-path: url(#clippath-30);
      }

      .st40 {
        letter-spacing: 0em;
      }

      .st9 {
        font-family: Arial-BoldMT, Arial;
        font-size: 12px;
        font-weight: 700;
      }

      .st41 {
        clip-path: url(#clippath-29);
      }

      .st42 {
        clip-path: url(#clippath-37);
      }

      .st10 {
        font-size: 8px;
      }

      .st43 {
        clip-path: url(#clippath-13);
      }

      .st11 {
        font-size: 6.4px;
      }

      .st11, .st12 {
        fill: #4d4d4d;
      }

      .st12 {
        font-size: 11px;
      }

      .st44 {
        clip-path: url(#clippath);
      }

      .st45 {
        clip-path: url(#clippath-44);
      }

      .st46 {
        fill: #e8e8e8;
      }
    </style>
    <clipPath id="clippath">
      <rect class="st15" width="648" height="576"/>
    </clipPath>
    <clipPath id="clippath-5">
      <rect class="st15" x="52.1" y="28.5" width="107.2" height="130"/>
    </clipPath>
    <clipPath id="clippath-6">
      <rect class="st15" width="648" height="576"/>
    </clipPath>
    <clipPath id="clippath-9">
      <rect class="st15" x="211.4" y="28.5" width="107.2" height="130"/>
    </clipPath>
    <clipPath id="clippath-10">
      <rect class="st15" width="648" height="576"/>
    </clipPath>
    <clipPath id="clippath-13">
      <rect class="st15" x="370.6" y="28.5" width="107.2" height="130"/>
    </clipPath>
    <clipPath id="clippath-14">
      <rect class="st15" width="648" height="576"/>
    </clipPath>
    <clipPath id="clippath-17">
      <rect class="st15" x="529.9" y="28.5" width="107.2" height="130"/>
    </clipPath>
    <clipPath id="clippath-18">
      <rect class="st15" width="648" height="576"/>
    </clipPath>
    <clipPath id="clippath-21">
      <rect class="st15" x="52.1" y="216.8" width="107.2" height="129.9"/>
    </clipPath>
    <clipPath id="clippath-22">
      <rect class="st15" width="648" height="576"/>
    </clipPath>
    <clipPath id="clippath-25">
      <rect class="st15" x="211.4" y="216.8" width="107.2" height="129.9"/>
    </clipPath>
    <clipPath id="clippath-26">
      <rect class="st15" width="648" height="576"/>
    </clipPath>
    <clipPath id="clippath-29">
      <rect class="st15" x="370.6" y="216.8" width="107.2" height="129.9"/>
    </clipPath>
    <clipPath id="clippath-30">
      <rect class="st15" width="648" height="576"/>
    </clipPath>
    <clipPath id="clippath-33">
      <rect class="st15" x="52.1" y="405.2" width="107.2" height="130"/>
    </clipPath>
    <clipPath id="clippath-34">
      <rect class="st15" width="648" height="576"/>
    </clipPath>
    <clipPath id="clippath-37">
      <rect class="st15" x="211.4" y="405.2" width="107.2" height="130"/>
    </clipPath>
    <clipPath id="clippath-38">
      <rect class="st15" width="648" height="576"/>
    </clipPath>
    <clipPath id="clippath-41">
      <rect class="st15" x="370.6" y="405.2" width="107.2" height="130"/>
    </clipPath>
    <clipPath id="clippath-42">
      <rect class="st15" width="648" height="576"/>
    </clipPath>
    <clipPath id="clippath-44">
      <rect class="st15" x="537.8" y="431.6" width="60.2" height="52.5"/>
    </clipPath>
    <clipPath id="clippath-46">
      <rect class="st15" x="537.8" y="315.7" width="66.6" height="52.5"/>
    </clipPath>
  </defs>
  <rect class="st15" width="648" height="576"/>
  <g class="st44">
    <rect class="st24" width="648" height="576"/>
  </g>
  <g class="st34">
    <g>
      <line class="st17" x1="52.1" y1="137.8" x2="159.3" y2="137.8"/>
      <line class="st17" x1="52.1" y1="108.2" x2="159.3" y2="108.2"/>
      <line class="st17" x1="52.1" y1="78.7" x2="159.3" y2="78.7"/>
      <line class="st17" x1="52.1" y1="49.2" x2="159.3" y2="49.2"/>
      <line class="st17" x1="79.1" y1="158.4" x2="79.1" y2="28.5"/>
      <line class="st17" x1="123.4" y1="158.4" x2="123.4" y2="28.5"/>
      <line class="st23" x1="52.1" y1="152.5" x2="159.3" y2="152.5"/>
      <line class="st23" x1="52.1" y1="123" x2="159.3" y2="123"/>
      <line class="st23" x1="52.1" y1="93.5" x2="159.3" y2="93.5"/>
      <line class="st23" x1="52.1" y1="63.9" x2="159.3" y2="63.9"/>
      <line class="st23" x1="52.1" y1="34.4" x2="159.3" y2="34.4"/>
      <line class="st23" x1="57" y1="158.4" x2="57" y2="28.5"/>
      <line class="st23" x1="101.2" y1="158.4" x2="101.2" y2="28.5"/>
      <line class="st23" x1="145.5" y1="158.4" x2="145.5" y2="28.5"/>
      <polyline class="st22" points="57 152.5 57.8 71 58.7 61.6 59.6 55.7 60.5 50.9 61.4 48.6 62.3 46.2 63.2 43.8 64.1 41.5 64.9 40.3 65.8 39.1 66.7 35.6 67.6 35.6 68.5 35.6 69.4 34.4 70.2 34.4 71.1 34.4 72 34.4 72.9 34.4 73.8 34.4 74.7 34.4 75.6 34.4 76.4 34.4 77.3 34.4 78.2 34.4 79.1 34.4 80 34.4 80.9 34.4 81.8 34.4 82.7 34.4 83.5 34.4 84.4 34.4 85.3 34.4 86.2 34.4 87.1 34.4 88 34.4 88.8 34.4 89.7 34.4 90.6 34.4 91.5 34.4 92.4 34.4 93.3 34.4 94.2 34.4 95.1 34.4 95.9 34.4 96.8 34.4 97.7 34.4 98.6 34.4 99.5 34.4 100.4 34.4 101.2 34.4 102.1 34.4 103 34.4 103.9 34.4 104.8 34.4 105.7 34.4 106.6 34.4 107.4 34.4 108.3 34.4 109.2 34.4 110.1 34.4 111 34.4 111.9 34.4 112.8 34.4 113.7 34.4 114.5 34.4 115.4 34.4 116.3 34.4 117.2 34.4 118.1 34.4 119 34.4 119.8 34.4 120.7 34.4 121.6 34.4 122.5 34.4 123.4 34.4 124.3 34.4 125.2 34.4 126.1 34.4 126.9 34.4 127.8 34.4 128.7 34.4 129.6 34.4 130.5 34.4 131.4 34.4 132.2 34.4 133.1 34.4 134 34.4 134.9 34.4 135.8 34.4 136.7 34.4 137.6 34.4 138.4 34.4 139.3 34.4 140.2 34.4 141.1 34.4 142 34.4 142.9 34.4 143.8 34.4 144.6 34.4 145.5 34.4 146.4 34.4 147.3 34.4 148.2 34.4 149.1 34.4 150 34.4 150.9 34.4 151.7 34.4 152.6 34.4 153.5 34.4 154.4 34.4"/>
      <polyline class="st16" points="57 152.5 57.8 102.9 58.7 94.6 59.6 89.9 60.5 86.4 61.4 82.8 62.3 80.5 63.2 78.1 64.1 75.7 64.9 74.6 65.8 72.2 66.7 71 67.6 68.7 68.5 67.5 69.4 66.3 70.2 63.9 71.1 62.7 72 61.6 72.9 60.4 73.8 59.2 74.7 58 75.6 56.8 76.4 55.7 77.3 54.5 78.2 53.3 79.1 52.1 80 50.9 80.9 48.6 81.8 48.6 82.7 48.6 83.5 47.4 84.4 46.2 85.3 45 86.2 43.8 87.1 43.8 88 42.7 88.8 41.5 89.7 40.3 90.6 39.1 91.5 39.1 92.4 37.9 93.3 35.6 94.2 35.6 95.1 35.6 95.9 34.4 96.8 34.4 97.7 34.4 98.6 34.4 99.5 34.4 100.4 34.4 101.2 34.4 102.1 34.4 103 34.4 103.9 34.4 104.8 34.4 105.7 34.4 106.6 34.4 107.4 34.4 108.3 34.4 109.2 34.4 110.1 34.4 111 34.4 111.9 34.4 112.8 34.4 113.7 34.4 114.5 34.4 115.4 34.4 116.3 34.4 117.2 34.4 118.1 34.4 119 34.4 119.8 34.4 120.7 34.4 121.6 34.4 122.5 34.4 123.4 34.4 124.3 34.4 125.2 34.4 126.1 34.4 126.9 34.4 127.8 34.4 128.7 34.4 129.6 34.4 130.5 34.4 131.4 34.4 132.2 34.4 133.1 34.4 134 34.4 134.9 34.4 135.8 34.4 136.7 34.4 137.6 34.4 138.4 34.4 139.3 34.4 140.2 34.4 141.1 34.4 142 34.4 142.9 34.4 143.8 34.4 144.6 34.4 145.5 34.4 146.4 34.4 147.3 34.4 148.2 34.4 149.1 34.4 150 34.4 150.9 34.4 151.7 34.4 152.6 34.4 153.5 34.4 154.4 34.4"/>
      <polyline class="st13" points="57 152.5 57.8 62.7 58.7 43.8 59.6 34.4 60.5 34.4 61.4 34.4 62.3 34.4 63.2 34.4 64.1 34.4 64.9 34.4 65.8 34.4 66.7 34.4 67.6 34.4 68.5 34.4 69.4 34.4 70.2 34.4 71.1 34.4 72 34.4 72.9 34.4 73.8 34.4 74.7 34.4 75.6 34.4 76.4 34.4 77.3 34.4 78.2 34.4 79.1 34.4 80 34.4 80.9 34.4 81.8 34.4 82.7 34.4 83.5 34.4 84.4 34.4 85.3 34.4 86.2 34.4 87.1 34.4 88 34.4 88.8 34.4 89.7 34.4 90.6 34.4 91.5 34.4 92.4 34.4 93.3 34.4 94.2 34.4 95.1 34.4 95.9 34.4 96.8 34.4 97.7 34.4 98.6 34.4 99.5 34.4 100.4 34.4 101.2 34.4 102.1 34.4 103 34.4 103.9 34.4 104.8 34.4 105.7 34.4 106.6 34.4 107.4 34.4 108.3 34.4 109.2 34.4 110.1 34.4 111 34.4 111.9 34.4 112.8 34.4 113.7 34.4 114.5 34.4 115.4 34.4 116.3 34.4 117.2 34.4 118.1 34.4 119 34.4 119.8 34.4 120.7 34.4 121.6 34.4 122.5 34.4 123.4 34.4 124.3 34.4 125.2 34.4 126.1 34.4 126.9 34.4 127.8 34.4 128.7 34.4 129.6 34.4 130.5 34.4 131.4 34.4 132.2 34.4 133.1 34.4 134 34.4 134.9 34.4 135.8 34.4 136.7 34.4 137.6 34.4 138.4 34.4 139.3 34.4 140.2 34.4 141.1 34.4 142 34.4 142.9 34.4 143.8 34.4 144.6 34.4 145.5 34.4 146.4 34.4 147.3 34.4 148.2 34.4 149.1 34.4 150 34.4 150.9 34.4 151.7 34.4 152.6 34.4 153.5 34.4 154.4 34.4"/>
      <polyline class="st18" points="57 152.5 57.8 138.4 58.7 118.3 59.6 105.3 60.5 97 61.4 89.9 62.3 85.2 63.2 79.3 64.1 74.6 64.9 71 65.8 67.5 66.7 63.9 67.6 60.4 68.5 58 69.4 54.5 70.2 52.1 71.1 48.6 72 47.4 72.9 45 73.8 42.7 74.7 40.3 75.6 35.6 76.4 35.6 77.3 34.4 78.2 34.4 79.1 34.4 80 34.4 80.9 34.4 81.8 34.4 82.7 34.4 83.5 34.4 84.4 34.4 85.3 34.4 86.2 34.4 87.1 34.4 88 34.4 88.8 34.4 89.7 34.4 90.6 34.4 91.5 34.4 92.4 34.4 93.3 34.4 94.2 34.4 95.1 34.4 95.9 34.4 96.8 34.4 97.7 34.4 98.6 34.4 99.5 34.4 100.4 34.4 101.2 34.4 102.1 34.4 103 34.4 103.9 34.4 104.8 34.4 105.7 34.4 106.6 34.4 107.4 34.4 108.3 34.4 109.2 34.4 110.1 34.4 111 34.4 111.9 34.4 112.8 34.4 113.7 34.4 114.5 34.4 115.4 34.4 116.3 34.4 117.2 34.4 118.1 34.4 119 34.4 119.8 34.4 120.7 34.4 121.6 34.4 122.5 34.4 123.4 34.4 124.3 34.4 125.2 34.4 126.1 34.4 126.9 34.4 127.8 34.4 128.7 34.4 129.6 34.4 130.5 34.4 131.4 34.4 132.2 34.4 133.1 34.4 134 34.4 134.9 34.4 135.8 34.4 136.7 34.4 137.6 34.4 138.4 34.4 139.3 34.4 140.2 34.4 141.1 34.4 142 34.4 142.9 34.4 143.8 34.4 144.6 34.4 145.5 34.4 146.4 34.4 147.3 34.4 148.2 34.4 149.1 34.4 150 34.4 150.9 34.4 151.7 34.4 152.6 34.4 153.5 34.4 154.4 34.4"/>
    </g>
  </g>
  <g class="st3">
    <g>
      <text class="st12" transform="translate(25.8 156.5)"><tspan x="0" y="0">0.00</tspan></text>
      <text class="st12" transform="translate(25.8 126.9)"><tspan x="0" y="0">0.25</tspan></text>
      <text class="st12" transform="translate(25.8 97.4)"><tspan x="0" y="0">0.50</tspan></text>
      <text class="st12" transform="translate(25.8 67.9)"><tspan x="0" y="0">0.75</tspan></text>
      <text class="st12" transform="translate(25.8 38.3)"><tspan x="0" y="0">1.00</tspan></text>
      <text class="st12" transform="translate(53.9 171.2)"><tspan x="0" y="0">0</tspan></text>
      <text class="st12" transform="translate(89.9 171.2)"><tspan x="0" y="0">0.5K</tspan></text>
      <text class="st12" transform="translate(141.9 171.2)"><tspan x="0" y="0">K</tspan></text>
      <text class="st7" transform="translate(20.3 155.8) rotate(-90)"><tspan x="0" y="0">optimal removal effort</tspan></text>
      <text class="st7" transform="translate(52.1 20.3)"><tspan x="0" y="0">A. α = 0.005K</tspan></text>
    </g>
  </g>
  <g class="st28">
    <g>
      <line class="st17" x1="211.4" y1="137.8" x2="318.5" y2="137.8"/>
      <line class="st17" x1="211.4" y1="108.2" x2="318.5" y2="108.2"/>
      <line class="st17" x1="211.4" y1="78.7" x2="318.5" y2="78.7"/>
      <line class="st17" x1="211.4" y1="49.2" x2="318.5" y2="49.2"/>
      <line class="st17" x1="238.4" y1="158.4" x2="238.4" y2="28.5"/>
      <line class="st17" x1="282.6" y1="158.4" x2="282.6" y2="28.5"/>
      <line class="st23" x1="211.4" y1="152.5" x2="318.5" y2="152.5"/>
      <line class="st23" x1="211.4" y1="123" x2="318.5" y2="123"/>
      <line class="st23" x1="211.4" y1="93.5" x2="318.5" y2="93.5"/>
      <line class="st23" x1="211.4" y1="63.9" x2="318.5" y2="63.9"/>
      <line class="st23" x1="211.4" y1="34.4" x2="318.5" y2="34.4"/>
      <line class="st23" x1="216.2" y1="158.4" x2="216.2" y2="28.5"/>
      <line class="st23" x1="260.5" y1="158.4" x2="260.5" y2="28.5"/>
      <line class="st23" x1="304.8" y1="158.4" x2="304.8" y2="28.5"/>
      <polyline class="st22" points="216.2 152.5 217.1 76.9 218 67.5 218.9 61.6 219.8 58 220.7 54.5 221.5 52.1 222.4 50.9 223.3 48.6 224.2 47.4 225.1 46.2 226 45 226.9 43.8 227.7 42.7 228.6 41.5 229.5 41.5 230.4 40.3 231.3 39.1 232.2 39.1 233.1 37.9 233.9 35.6 234.8 35.6 235.7 35.6 236.6 35.6 237.5 35.6 238.4 35.6 239.2 35.6 240.1 35.6 241 34.4 241.9 34.4 242.8 34.4 243.7 34.4 244.6 34.4 245.4 34.4 246.3 34.4 247.2 34.4 248.1 34.4 249 34.4 249.9 34.4 250.8 34.4 251.6 34.4 252.5 34.4 253.4 34.4 254.3 34.4 255.2 34.4 256.1 34.4 257 34.4 257.9 34.4 258.7 34.4 259.6 34.4 260.5 34.4 261.4 34.4 262.3 34.4 263.2 34.4 264 34.4 264.9 34.4 265.8 34.4 266.7 34.4 267.6 34.4 268.5 34.4 269.4 34.4 270.2 34.4 271.1 34.4 272 34.4 272.9 34.4 273.8 34.4 274.7 34.4 275.6 34.4 276.5 34.4 277.3 34.4 278.2 34.4 279.1 34.4 280 34.4 280.9 34.4 281.8 34.4 282.6 34.4 283.5 34.4 284.4 34.4 285.3 34.4 286.2 34.4 287.1 34.4 288 34.4 288.9 34.4 289.7 34.4 290.6 34.4 291.5 34.4 292.4 34.4 293.3 34.4 294.2 34.4 295 34.4 295.9 34.4 296.8 34.4 297.7 34.4 298.6 34.4 299.5 34.4 300.4 34.4 301.2 34.4 302.1 34.4 303 34.4 303.9 34.4 304.8 34.4 305.7 34.4 306.6 34.4 307.5 34.4 308.3 34.4 309.2 34.4 310.1 34.4 311 34.4 311.9 34.4 312.8 34.4 313.6 34.4"/>
      <polyline class="st16" points="216.2 152.5 217.1 93.5 218 85.2 218.9 79.3 219.8 74.6 220.7 72.2 221.5 69.8 222.4 66.3 223.3 65.1 224.2 62.7 225.1 61.6 226 59.2 226.9 58 227.7 56.8 228.6 55.7 229.5 54.5 230.4 53.3 231.3 52.1 232.2 50.9 233.1 48.6 233.9 48.6 234.8 47.4 235.7 46.2 236.6 46.2 237.5 45 238.4 43.8 239.2 42.7 240.1 42.7 241 41.5 241.9 40.3 242.8 40.3 243.7 39.1 244.6 37.9 245.4 37.9 246.3 35.6 247.2 35.6 248.1 35.6 249 34.4 249.9 34.4 250.8 34.4 251.6 34.4 252.5 34.4 253.4 34.4 254.3 34.4 255.2 34.4 256.1 34.4 257 34.4 257.9 34.4 258.7 34.4 259.6 34.4 260.5 34.4 261.4 34.4 262.3 34.4 263.2 34.4 264 34.4 264.9 34.4 265.8 34.4 266.7 34.4 267.6 34.4 268.5 34.4 269.4 34.4 270.2 34.4 271.1 34.4 272 34.4 272.9 34.4 273.8 34.4 274.7 34.4 275.6 34.4 276.5 34.4 277.3 34.4 278.2 34.4 279.1 34.4 280 34.4 280.9 34.4 281.8 34.4 282.6 34.4 283.5 34.4 284.4 34.4 285.3 34.4 286.2 34.4 287.1 34.4 288 34.4 288.9 34.4 289.7 34.4 290.6 34.4 291.5 34.4 292.4 34.4 293.3 34.4 294.2 34.4 295 34.4 295.9 34.4 296.8 34.4 297.7 34.4 298.6 34.4 299.5 34.4 300.4 34.4 301.2 34.4 302.1 34.4 303 34.4 303.9 34.4 304.8 34.4 305.7 34.4 306.6 34.4 307.5 34.4 308.3 34.4 309.2 34.4 310.1 34.4 311 34.4 311.9 34.4 312.8 34.4 313.6 34.4"/>
      <polyline class="st13" points="216.2 152.5 217.1 75.7 218 56.8 218.9 45 219.8 35.6 220.7 34.4 221.5 34.4 222.4 34.4 223.3 34.4 224.2 34.4 225.1 34.4 226 34.4 226.9 34.4 227.7 34.4 228.6 34.4 229.5 34.4 230.4 34.4 231.3 34.4 232.2 34.4 233.1 34.4 233.9 34.4 234.8 34.4 235.7 34.4 236.6 34.4 237.5 34.4 238.4 34.4 239.2 34.4 240.1 34.4 241 34.4 241.9 34.4 242.8 34.4 243.7 34.4 244.6 34.4 245.4 34.4 246.3 34.4 247.2 34.4 248.1 34.4 249 34.4 249.9 34.4 250.8 34.4 251.6 34.4 252.5 34.4 253.4 34.4 254.3 34.4 255.2 34.4 256.1 34.4 257 34.4 257.9 34.4 258.7 34.4 259.6 34.4 260.5 34.4 261.4 34.4 262.3 34.4 263.2 34.4 264 34.4 264.9 34.4 265.8 34.4 266.7 34.4 267.6 34.4 268.5 34.4 269.4 34.4 270.2 34.4 271.1 34.4 272 34.4 272.9 34.4 273.8 34.4 274.7 34.4 275.6 34.4 276.5 34.4 277.3 34.4 278.2 34.4 279.1 34.4 280 34.4 280.9 34.4 281.8 34.4 282.6 34.4 283.5 34.4 284.4 34.4 285.3 34.4 286.2 34.4 287.1 34.4 288 34.4 288.9 34.4 289.7 34.4 290.6 34.4 291.5 34.4 292.4 34.4 293.3 34.4 294.2 34.4 295 34.4 295.9 34.4 296.8 34.4 297.7 34.4 298.6 34.4 299.5 34.4 300.4 34.4 301.2 34.4 302.1 34.4 303 34.4 303.9 34.4 304.8 34.4 305.7 34.4 306.6 34.4 307.5 34.4 308.3 34.4 309.2 34.4 310.1 34.4 311 34.4 311.9 34.4 312.8 34.4 313.6 34.4"/>
      <polyline class="st18" points="216.2 152.5 217.1 113.5 218 94.6 218.9 81.7 219.8 72.2 220.7 66.3 221.5 60.4 222.4 55.7 223.3 52.1 224.2 47.4 225.1 45 226 41.5 226.9 35.6 227.7 35.6 228.6 34.4 229.5 34.4 230.4 34.4 231.3 34.4 232.2 34.4 233.1 34.4 233.9 34.4 234.8 34.4 235.7 34.4 236.6 34.4 237.5 34.4 238.4 34.4 239.2 34.4 240.1 34.4 241 34.4 241.9 34.4 242.8 34.4 243.7 34.4 244.6 34.4 245.4 34.4 246.3 34.4 247.2 34.4 248.1 34.4 249 34.4 249.9 34.4 250.8 34.4 251.6 34.4 252.5 34.4 253.4 34.4 254.3 34.4 255.2 34.4 256.1 34.4 257 34.4 257.9 34.4 258.7 34.4 259.6 34.4 260.5 34.4 261.4 34.4 262.3 34.4 263.2 34.4 264 34.4 264.9 34.4 265.8 34.4 266.7 34.4 267.6 34.4 268.5 34.4 269.4 34.4 270.2 34.4 271.1 34.4 272 34.4 272.9 34.4 273.8 34.4 274.7 34.4 275.6 34.4 276.5 34.4 277.3 34.4 278.2 34.4 279.1 34.4 280 34.4 280.9 34.4 281.8 34.4 282.6 34.4 283.5 34.4 284.4 34.4 285.3 34.4 286.2 34.4 287.1 34.4 288 34.4 288.9 34.4 289.7 34.4 290.6 34.4 291.5 34.4 292.4 34.4 293.3 34.4 294.2 34.4 295 34.4 295.9 34.4 296.8 34.4 297.7 34.4 298.6 34.4 299.5 34.4 300.4 34.4 301.2 34.4 302.1 34.4 303 34.4 303.9 34.4 304.8 34.4 305.7 34.4 306.6 34.4 307.5 34.4 308.3 34.4 309.2 34.4 310.1 34.4 311 34.4 311.9 34.4 312.8 34.4 313.6 34.4"/>
    </g>
  </g>
  <g class="st29">
    <g>
      <text class="st12" transform="translate(185 156.5)"><tspan x="0" y="0">0.00</tspan></text>
      <text class="st12" transform="translate(185 126.9)"><tspan x="0" y="0">0.25</tspan></text>
      <text class="st12" transform="translate(185 97.4)"><tspan x="0" y="0">0.50</tspan></text>
      <text class="st12" transform="translate(185 67.9)"><tspan x="0" y="0">0.75</tspan></text>
      <text class="st12" transform="translate(185 38.3)"><tspan x="0" y="0">1.00</tspan></text>
      <text class="st12" transform="translate(213.2 171.2)"><tspan x="0" y="0">0</tspan></text>
      <text class="st12" transform="translate(249.2 171.2)"><tspan x="0" y="0">0.5K</tspan></text>
      <text class="st12" transform="translate(301.1 171.2)"><tspan x="0" y="0">K</tspan></text>
      <text class="st7" transform="translate(211.4 20.3)"><tspan x="0" y="0">B. α = 0.05K</tspan></text>
    </g>
  </g>
  <g class="st43">
    <g>
      <line class="st17" x1="370.6" y1="137.8" x2="477.8" y2="137.8"/>
      <line class="st17" x1="370.6" y1="108.2" x2="477.8" y2="108.2"/>
      <line class="st17" x1="370.6" y1="78.7" x2="477.8" y2="78.7"/>
      <line class="st17" x1="370.6" y1="49.2" x2="477.8" y2="49.2"/>
      <line class="st17" x1="397.6" y1="158.4" x2="397.6" y2="28.5"/>
      <line class="st17" x1="441.9" y1="158.4" x2="441.9" y2="28.5"/>
      <line class="st23" x1="370.6" y1="152.5" x2="477.8" y2="152.5"/>
      <line class="st23" x1="370.6" y1="123" x2="477.8" y2="123"/>
      <line class="st23" x1="370.6" y1="93.5" x2="477.8" y2="93.5"/>
      <line class="st23" x1="370.6" y1="63.9" x2="477.8" y2="63.9"/>
      <line class="st23" x1="370.6" y1="34.4" x2="477.8" y2="34.4"/>
      <line class="st23" x1="375.5" y1="158.4" x2="375.5" y2="28.5"/>
      <line class="st23" x1="419.8" y1="158.4" x2="419.8" y2="28.5"/>
      <line class="st23" x1="464" y1="158.4" x2="464" y2="28.5"/>
      <polyline class="st22" points="375.5 152.5 376.4 94.6 377.3 86.4 378.1 80.5 379 76.9 379.9 74.6 380.8 72.2 381.7 71 382.6 68.7 383.5 67.5 384.3 66.3 385.2 65.1 386.1 63.9 387 62.7 387.9 62.7 388.8 61.6 389.7 61.6 390.5 60.4 391.4 60.4 392.3 59.2 393.2 59.2 394.1 58 395 58 395.9 58 396.7 56.8 397.6 56.8 398.5 56.8 399.4 55.7 400.3 55.7 401.2 55.7 402.1 55.7 402.9 54.5 403.8 54.5 404.7 54.5 405.6 54.5 406.5 54.5 407.4 54.5 408.3 53.3 409.1 53.3 410 53.3 410.9 53.3 411.8 53.3 412.7 53.3 413.6 53.3 414.5 53.3 415.3 52.1 416.2 52.1 417.1 52.1 418 52.1 418.9 52.1 419.8 52.1 420.7 52.1 421.5 52.1 422.4 52.1 423.3 52.1 424.2 52.1 425.1 52.1 426 52.1 426.9 52.1 427.7 52.1 428.6 50.9 429.5 50.9 430.4 50.9 431.3 50.9 432.2 50.9 433.1 50.9 433.9 50.9 434.8 50.9 435.7 50.9 436.6 50.9 437.5 50.9 438.4 50.9 439.2 50.9 440.1 50.9 441 50.9 441.9 50.9 442.8 50.9 443.7 50.9 444.6 50.9 445.5 50.9 446.3 50.9 447.2 50.9 448.1 50.9 449 50.9 449.9 50.9 450.8 50.9 451.6 50.9 452.5 50.9 453.4 50.9 454.3 50.9 455.2 50.9 456.1 50.9 457 50.9 457.9 50.9 458.7 50.9 459.6 50.9 460.5 50.9 461.4 50.9 462.3 50.9 463.2 50.9 464 50.9 464.9 50.9 465.8 50.9 466.7 50.9 467.6 50.9 468.5 50.9 469.4 50.9 470.2 50.9 471.1 50.9 472 50.9 472.9 52.1"/>
      <polyline class="st16" points="375.5 152.5 376.4 91.1 377.3 81.7 378.1 75.7 379 71 379.9 67.5 380.8 65.1 381.7 63.9 382.6 61.6 383.5 59.2 384.3 58 385.2 56.8 386.1 55.7 387 54.5 387.9 53.3 388.8 52.1 389.7 50.9 390.5 48.6 391.4 48.6 392.3 48.6 393.2 47.4 394.1 46.2 395 46.2 395.9 45 396.7 43.8 397.6 43.8 398.5 42.7 399.4 42.7 400.3 41.5 401.2 41.5 402.1 41.5 402.9 40.3 403.8 40.3 404.7 39.1 405.6 39.1 406.5 39.1 407.4 37.9 408.3 35.6 409.1 35.6 410 35.6 410.9 35.6 411.8 35.6 412.7 35.6 413.6 35.6 414.5 35.6 415.3 35.6 416.2 34.4 417.1 34.4 418 34.4 418.9 34.4 419.8 34.4 420.7 34.4 421.5 34.4 422.4 34.4 423.3 34.4 424.2 34.4 425.1 34.4 426 34.4 426.9 34.4 427.7 34.4 428.6 34.4 429.5 34.4 430.4 34.4 431.3 34.4 432.2 34.4 433.1 34.4 433.9 34.4 434.8 34.4 435.7 34.4 436.6 34.4 437.5 34.4 438.4 34.4 439.2 34.4 440.1 34.4 441 34.4 441.9 34.4 442.8 34.4 443.7 34.4 444.6 34.4 445.5 34.4 446.3 34.4 447.2 34.4 448.1 34.4 449 34.4 449.9 34.4 450.8 34.4 451.6 34.4 452.5 34.4 453.4 34.4 454.3 34.4 455.2 34.4 456.1 34.4 457 34.4 457.9 34.4 458.7 34.4 459.6 34.4 460.5 34.4 461.4 34.4 462.3 34.4 463.2 34.4 464 34.4 464.9 34.4 465.8 34.4 466.7 34.4 467.6 34.4 468.5 34.4 469.4 34.4 470.2 34.4 471.1 34.4 472 34.4 472.9 34.4"/>
      <polyline class="st13" points="375.5 152.5 376.4 113.5 377.3 97 378.1 85.2 379 76.9 379.9 71 380.8 66.3 381.7 61.6 382.6 59.2 383.5 55.7 384.3 53.3 385.2 48.6 386.1 48.6 387 47.4 387.9 45 388.8 43.8 389.7 42.7 390.5 41.5 391.4 40.3 392.3 39.1 393.2 35.6 394.1 35.6 395 35.6 395.9 35.6 396.7 34.4 397.6 34.4 398.5 34.4 399.4 34.4 400.3 34.4 401.2 34.4 402.1 34.4 402.9 34.4 403.8 34.4 404.7 34.4 405.6 34.4 406.5 34.4 407.4 34.4 408.3 34.4 409.1 34.4 410 34.4 410.9 34.4 411.8 34.4 412.7 34.4 413.6 34.4 414.5 34.4 415.3 34.4 416.2 34.4 417.1 34.4 418 34.4 418.9 34.4 419.8 34.4 420.7 34.4 421.5 34.4 422.4 34.4 423.3 34.4 424.2 34.4 425.1 34.4 426 34.4 426.9 34.4 427.7 34.4 428.6 34.4 429.5 34.4 430.4 34.4 431.3 34.4 432.2 34.4 433.1 34.4 433.9 34.4 434.8 34.4 435.7 34.4 436.6 34.4 437.5 34.4 438.4 34.4 439.2 34.4 440.1 34.4 441 34.4 441.9 34.4 442.8 34.4 443.7 34.4 444.6 34.4 445.5 34.4 446.3 34.4 447.2 34.4 448.1 34.4 449 34.4 449.9 34.4 450.8 34.4 451.6 34.4 452.5 34.4 453.4 34.4 454.3 34.4 455.2 34.4 456.1 34.4 457 34.4 457.9 34.4 458.7 34.4 459.6 34.4 460.5 34.4 461.4 34.4 462.3 34.4 463.2 34.4 464 34.4 464.9 34.4 465.8 34.4 466.7 34.4 467.6 34.4 468.5 34.4 469.4 34.4 470.2 34.4 471.1 34.4 472 34.4 472.9 34.4"/>
      <polyline class="st18" points="375.5 152.5 376.4 105.3 377.3 85.2 378.1 72.2 379 63.9 379.9 58 380.8 52.1 381.7 47.4 382.6 43.8 383.5 40.3 384.3 35.6 385.2 34.4 386.1 34.4 387 34.4 387.9 34.4 388.8 34.4 389.7 34.4 390.5 34.4 391.4 34.4 392.3 34.4 393.2 34.4 394.1 34.4 395 34.4 395.9 34.4 396.7 34.4 397.6 34.4 398.5 34.4 399.4 34.4 400.3 34.4 401.2 34.4 402.1 34.4 402.9 34.4 403.8 34.4 404.7 34.4 405.6 34.4 406.5 34.4 407.4 34.4 408.3 34.4 409.1 34.4 410 34.4 410.9 34.4 411.8 34.4 412.7 34.4 413.6 34.4 414.5 34.4 415.3 34.4 416.2 34.4 417.1 34.4 418 34.4 418.9 34.4 419.8 34.4 420.7 34.4 421.5 34.4 422.4 34.4 423.3 34.4 424.2 34.4 425.1 34.4 426 34.4 426.9 34.4 427.7 34.4 428.6 34.4 429.5 34.4 430.4 34.4 431.3 34.4 432.2 34.4 433.1 34.4 433.9 34.4 434.8 34.4 435.7 34.4 436.6 34.4 437.5 34.4 438.4 34.4 439.2 34.4 440.1 34.4 441 34.4 441.9 34.4 442.8 34.4 443.7 34.4 444.6 34.4 445.5 34.4 446.3 34.4 447.2 34.4 448.1 34.4 449 34.4 449.9 34.4 450.8 34.4 451.6 34.4 452.5 34.4 453.4 34.4 454.3 34.4 455.2 34.4 456.1 34.4 457 34.4 457.9 34.4 458.7 34.4 459.6 34.4 460.5 34.4 461.4 34.4 462.3 34.4 463.2 34.4 464 34.4 464.9 34.4 465.8 34.4 466.7 34.4 467.6 34.4 468.5 34.4 469.4 34.4 470.2 34.4 471.1 34.4 472 34.4 472.9 34.4"/>
    </g>
  </g>
  <g class="st38">
    <g>
      <text class="st12" transform="translate(344.3 156.5)"><tspan x="0" y="0">0.00</tspan></text>
      <text class="st12" transform="translate(344.3 126.9)"><tspan x="0" y="0">0.25</tspan></text>
      <text class="st12" transform="translate(344.3 97.4)"><tspan x="0" y="0">0.50</tspan></text>
      <text class="st12" transform="translate(344.3 67.9)"><tspan x="0" y="0">0.75</tspan></text>
      <text class="st12" transform="translate(344.3 38.3)"><tspan x="0" y="0">1.00</tspan></text>
      <text class="st12" transform="translate(372.4 171.2)"><tspan x="0" y="0">0</tspan></text>
      <text class="st12" transform="translate(408.5 171.2)"><tspan x="0" y="0">0.5K</tspan></text>
      <text class="st12" transform="translate(460.4 171.2)"><tspan x="0" y="0">K</tspan></text>
      <text class="st7" transform="translate(370.6 20.3)"><tspan x="0" y="0">C. α = 0.2K</tspan></text>
    </g>
  </g>
  <g class="st4">
    <g>
      <line class="st17" x1="529.9" y1="137.8" x2="637" y2="137.8"/>
      <line class="st17" x1="529.9" y1="108.2" x2="637" y2="108.2"/>
      <line class="st17" x1="529.9" y1="78.7" x2="637" y2="78.7"/>
      <line class="st17" x1="529.9" y1="49.2" x2="637" y2="49.2"/>
      <line class="st17" x1="556.9" y1="158.4" x2="556.9" y2="28.5"/>
      <line class="st17" x1="601.2" y1="158.4" x2="601.2" y2="28.5"/>
      <line class="st23" x1="529.9" y1="152.5" x2="637" y2="152.5"/>
      <line class="st23" x1="529.9" y1="123" x2="637" y2="123"/>
      <line class="st23" x1="529.9" y1="93.5" x2="637" y2="93.5"/>
      <line class="st23" x1="529.9" y1="63.9" x2="637" y2="63.9"/>
      <line class="st23" x1="529.9" y1="34.4" x2="637" y2="34.4"/>
      <line class="st23" x1="534.8" y1="158.4" x2="534.8" y2="28.5"/>
      <line class="st23" x1="579" y1="158.4" x2="579" y2="28.5"/>
      <line class="st23" x1="623.3" y1="158.4" x2="623.3" y2="28.5"/>
      <polyline class="st22" points="534.8 152.5 535.6 113.5 536.5 107.6 537.4 104.1 538.3 100.6 539.2 98.2 540.1 97 541 94.6 541.8 93.5 542.7 92.3 543.6 91.1 544.5 89.9 545.4 89.9 546.3 88.7 547.2 87.6 548 87.6 548.9 86.4 549.8 86.4 550.7 85.2 551.6 85.2 552.5 85.2 553.3 84 554.2 84 555.1 82.8 556 82.8 556.9 82.8 557.8 82.8 558.7 81.7 559.5 81.7 560.4 81.7 561.3 81.7 562.2 80.5 563.1 80.5 564 80.5 564.9 80.5 565.8 80.5 566.6 79.3 567.5 79.3 568.4 79.3 569.3 79.3 570.2 79.3 571.1 79.3 572 79.3 572.8 78.1 573.7 78.1 574.6 78.1 575.5 78.1 576.4 78.1 577.3 78.1 578.1 78.1 579 78.1 579.9 78.1 580.8 78.1 581.7 76.9 582.6 76.9 583.5 76.9 584.3 76.9 585.2 76.9 586.1 76.9 587 76.9 587.9 76.9 588.8 76.9 589.7 76.9 590.5 76.9 591.4 76.9 592.3 76.9 593.2 76.9 594.1 76.9 595 76.9 595.9 75.7 596.7 75.7 597.6 75.7 598.5 75.7 599.4 75.7 600.3 75.7 601.2 75.7 602.1 75.7 602.9 75.7 603.8 75.7 604.7 75.7 605.6 75.7 606.5 75.7 607.4 75.7 608.3 75.7 609.1 75.7 610 75.7 610.9 75.7 611.8 75.7 612.7 75.7 613.6 75.7 614.5 75.7 615.3 75.7 616.2 75.7 617.1 75.7 618 75.7 618.9 75.7 619.8 75.7 620.7 75.7 621.5 75.7 622.4 75.7 623.3 75.7 624.2 75.7 625.1 75.7 626 75.7 626.9 75.7 627.7 75.7 628.6 75.7 629.5 75.7 630.4 75.7 631.3 75.7 632.2 75.7"/>
      <polyline class="st16" points="534.8 152.5 535.6 105.3 536.5 98.2 537.4 93.5 538.3 91.1 539.2 87.6 540.1 85.2 541 84 541.8 82.8 542.7 81.7 543.6 80.5 544.5 79.3 545.4 78.1 546.3 76.9 547.2 76.9 548 75.7 548.9 74.6 549.8 74.6 550.7 73.4 551.6 73.4 552.5 72.2 553.3 72.2 554.2 72.2 555.1 72.2 556 71 556.9 71 557.8 71 558.7 71 559.5 69.8 560.4 69.8 561.3 69.8 562.2 69.8 563.1 69.8 564 69.8 564.9 69.8 565.8 68.7 566.6 68.7 567.5 67.5 568.4 67.5 569.3 67.5 570.2 67.5 571.1 67.5 572 67.5 572.8 67.5 573.7 67.5 574.6 67.5 575.5 67.5 576.4 67.5 577.3 67.5 578.1 67.5 579 67.5 579.9 67.5 580.8 67.5 581.7 67.5 582.6 67.5 583.5 69.8 584.3 69.8 585.2 69.8 586.1 69.8 587 69.8 587.9 69.8 588.8 69.8 589.7 69.8 590.5 69.8 591.4 71 592.3 71 593.2 71 594.1 71 595 71 595.9 71 596.7 71 597.6 72.2 598.5 72.2 599.4 72.2 600.3 72.2 601.2 72.2 602.1 72.2 602.9 72.2 603.8 72.2 604.7 73.4 605.6 73.4 606.5 73.4 607.4 74.6 608.3 74.6 609.1 74.6 610 74.6 610.9 74.6 611.8 75.7 612.7 75.7 613.6 75.7 614.5 75.7 615.3 76.9 616.2 76.9 617.1 76.9 618 76.9 618.9 76.9 619.8 78.1 620.7 78.1 621.5 78.1 622.4 78.1 623.3 79.3 624.2 79.3 625.1 79.3 626 79.3 626.9 80.5 627.7 80.5 628.6 80.5 629.5 80.5 630.4 81.7 631.3 81.7 632.2 81.7"/>
      <polyline class="st13" points="534.8 152.5 535.6 152.5 536.5 151.4 537.4 141.9 538.3 134.8 539.2 128.9 540.1 124.2 541 119.4 541.8 115.9 542.7 113.5 543.6 110 544.5 107.6 545.4 105.3 546.3 104.1 547.2 101.7 548 99.4 548.9 99.4 549.8 97 550.7 95.8 551.6 94.6 552.5 94.6 553.3 92.3 554.2 92.3 555.1 91.1 556 89.9 556.9 88.7 557.8 88.7 558.7 87.6 559.5 86.4 560.4 85.2 561.3 85.2 562.2 85.2 563.1 84 564 82.8 564.9 82.8 565.8 82.8 566.6 82.8 567.5 81.7 568.4 81.7 569.3 80.5 570.2 80.5 571.1 80.5 572 79.3 572.8 79.3 573.7 79.3 574.6 79.3 575.5 78.1 576.4 78.1 577.3 78.1 578.1 78.1 579 76.9 579.9 76.9 580.8 76.9 581.7 76.9 582.6 75.7 583.5 75.7 584.3 75.7 585.2 75.7 586.1 75.7 587 75.7 587.9 74.6 588.8 74.6 589.7 74.6 590.5 74.6 591.4 74.6 592.3 74.6 593.2 74.6 594.1 74.6 595 73.4 595.9 72.2 596.7 72.2 597.6 72.2 598.5 72.2 599.4 72.2 600.3 72.2 601.2 72.2 602.1 72.2 602.9 72.2 603.8 72.2 604.7 72.2 605.6 72.2 606.5 72.2 607.4 72.2 608.3 72.2 609.1 72.2 610 72.2 610.9 72.2 611.8 72.2 612.7 72.2 613.6 72.2 614.5 72.2 615.3 72.2 616.2 72.2 617.1 72.2 618 72.2 618.9 72.2 619.8 72.2 620.7 72.2 621.5 72.2 622.4 72.2 623.3 72.2 624.2 72.2 625.1 72.2 626 72.2 626.9 72.2 627.7 72.2 628.6 72.2 629.5 72.2 630.4 72.2 631.3 72.2 632.2 72.2"/>
      <polyline class="st18" points="534.8 152.5 535.6 151.4 536.5 126.5 537.4 115.9 538.3 107.6 539.2 101.7 540.1 97 541 92.3 541.8 88.7 542.7 85.2 543.6 82.8 544.5 80.5 545.4 78.1 546.3 76.9 547.2 74.6 548 72.2 548.9 72.2 549.8 71 550.7 67.5 551.6 67.5 552.5 67.5 553.3 66.3 554.2 65.1 555.1 63.9 556 63.9 556.9 62.7 557.8 61.6 558.7 61.6 559.5 61.6 560.4 60.4 561.3 60.4 562.2 59.2 563.1 59.2 564 59.2 564.9 58 565.8 58 566.6 58 567.5 58 568.4 58 569.3 56.8 570.2 56.8 571.1 56.8 572 56.8 572.8 56.8 573.7 56.8 574.6 56.8 575.5 56.8 576.4 56.8 577.3 56.8 578.1 56.8 579 56.8 579.9 56.8 580.8 56.8 581.7 56.8 582.6 56.8 583.5 58 584.3 58 585.2 58 586.1 58 587 58 587.9 58 588.8 59.2 589.7 59.2 590.5 59.2 591.4 59.2 592.3 60.4 593.2 60.4 594.1 60.4 595 61.6 595.9 61.6 596.7 61.6 597.6 62.7 598.5 62.7 599.4 62.7 600.3 152.5 601.2 152.5 602.1 152.5 602.9 152.5 603.8 152.5 604.7 152.5 605.6 152.5 606.5 152.5 607.4 152.5 608.3 152.5 609.1 152.5 610 152.5 610.9 152.5 611.8 152.5 612.7 152.5 613.6 152.5 614.5 152.5 615.3 152.5 616.2 152.5 617.1 152.5 618 152.5 618.9 152.5 619.8 152.5 620.7 152.5 621.5 152.5 622.4 152.5 623.3 152.5 624.2 152.5 625.1 152.5 626 152.5 626.9 152.5 627.7 152.5 628.6 152.5 629.5 152.5 630.4 152.5 631.3 152.5 632.2 152.5"/>
    </g>
  </g>
  <g class="st26">
    <g>
      <text class="st12" transform="translate(503.5 156.5)"><tspan x="0" y="0">0.00</tspan></text>
      <text class="st12" transform="translate(503.5 126.9)"><tspan x="0" y="0">0.25</tspan></text>
      <text class="st12" transform="translate(503.5 97.4)"><tspan x="0" y="0">0.50</tspan></text>
      <text class="st12" transform="translate(503.5 67.9)"><tspan x="0" y="0">0.75</tspan></text>
      <text class="st12" transform="translate(503.5 38.3)"><tspan x="0" y="0">1.00</tspan></text>
      <text class="st12" transform="translate(531.7 171.2)"><tspan x="0" y="0">0</tspan></text>
      <text class="st12" transform="translate(567.7 171.2)"><tspan x="0" y="0">0.5K</tspan></text>
      <text class="st12" transform="translate(619.6 171.2)"><tspan x="0" y="0">K</tspan></text>
      <text class="st7" transform="translate(531.8 185.6)"><tspan x="0" y="0">local EGC density</tspan></text>
      <text class="st7" transform="translate(529.9 20.3)"><tspan x="0" y="0">D. α = 0.5K</tspan></text>
    </g>
  </g>
  <g class="st2">
    <g>
      <line class="st17" x1="52.1" y1="326.1" x2="159.3" y2="326.1"/>
      <line class="st17" x1="52.1" y1="296.6" x2="159.3" y2="296.6"/>
      <line class="st17" x1="52.1" y1="267" x2="159.3" y2="267"/>
      <line class="st17" x1="52.1" y1="237.5" x2="159.3" y2="237.5"/>
      <line class="st17" x1="79.1" y1="346.8" x2="79.1" y2="216.8"/>
      <line class="st17" x1="123.4" y1="346.8" x2="123.4" y2="216.8"/>
      <line class="st23" x1="52.1" y1="340.9" x2="159.3" y2="340.9"/>
      <line class="st23" x1="52.1" y1="311.3" x2="159.3" y2="311.3"/>
      <line class="st23" x1="52.1" y1="281.8" x2="159.3" y2="281.8"/>
      <line class="st23" x1="52.1" y1="252.3" x2="159.3" y2="252.3"/>
      <line class="st23" x1="52.1" y1="222.7" x2="159.3" y2="222.7"/>
      <line class="st23" x1="57" y1="346.8" x2="57" y2="216.8"/>
      <line class="st23" x1="101.2" y1="346.8" x2="101.2" y2="216.8"/>
      <line class="st23" x1="145.5" y1="346.8" x2="145.5" y2="216.8"/>
      <polyline class="st22" points="57 340.9 57.8 317.2 58.7 310.2 59.6 307.8 60.5 304.2 61.4 303.1 62.3 301.9 63.2 300.7 64.1 299.5 64.9 298.4 65.8 297.2 66.7 297.2 67.6 296 68.5 294.8 69.4 294.8 70.2 293.6 71.1 293.6 72 292.4 72.9 292.4 73.8 292.4 74.7 291.3 75.6 291.3 76.4 290.1 77.3 290.1 78.2 290.1 79.1 290.1 80 288.9 80.9 288.9 81.8 288.9 82.7 288.9 83.5 287.7 84.4 287.7 85.3 287.7 86.2 287.7 87.1 287.7 88 286.5 88.8 286.5 89.7 286.5 90.6 286.5 91.5 286.5 92.4 286.5 93.3 285.4 94.2 285.4 95.1 285.4 95.9 285.4 96.8 285.4 97.7 285.4 98.6 285.4 99.5 284.2 100.4 284.2 101.2 284.2 102.1 284.2 103 284.2 103.9 284.2 104.8 284.2 105.7 283 106.6 283 107.4 283 108.3 283 109.2 283 110.1 283 111 283 111.9 283 112.8 283 113.7 283 114.5 283 115.4 283 116.3 283 117.2 283 118.1 283 119 281.8 119.8 281.8 120.7 281.8 121.6 281.8 122.5 281.8 123.4 281.8 124.3 281.8 125.2 281.8 126.1 281.8 126.9 281.8 127.8 281.8 128.7 281.8 129.6 280.6 130.5 280.6 131.4 280.6 132.2 280.6 133.1 280.6 134 280.6 134.9 280.6 135.8 280.6 136.7 280.6 137.6 280.6 138.4 280.6 139.3 280.6 140.2 280.6 141.1 280.6 142 280.6 142.9 280.6 143.8 280.6 144.6 280.6 145.5 280.6 146.4 280.6 147.3 280.6 148.2 280.6 149.1 280.6 150 280.6 150.9 280.6 151.7 280.6 152.6 280.6 153.5 280.6 154.4 280.6"/>
      <polyline class="st16" points="57 340.9 57.8 322 58.7 318.4 59.6 316.1 60.5 314.9 61.4 313.7 62.3 312.5 63.2 311.3 64.1 311.3 64.9 310.2 65.8 310.2 66.7 310.2 67.6 310.2 68.5 309 69.4 309 70.2 309 71.1 309 72 309 72.9 309 73.8 309 74.7 309 75.6 309 76.4 309 77.3 309 78.2 309 79.1 309 80 309 80.9 309 81.8 309 82.7 309 83.5 309 84.4 309 85.3 309 86.2 309 87.1 309 88 310.2 88.8 310.2 89.7 310.2 90.6 310.2 91.5 310.2 92.4 310.2 93.3 310.2 94.2 310.2 95.1 310.2 95.9 311.3 96.8 311.3 97.7 311.3 98.6 311.3 99.5 311.3 100.4 311.3 101.2 312.5 102.1 312.5 103 312.5 103.9 312.5 104.8 312.5 105.7 312.5 106.6 312.5 107.4 313.7 108.3 313.7 109.2 313.7 110.1 313.7 111 313.7 111.9 313.7 112.8 314.9 113.7 314.9 114.5 314.9 115.4 314.9 116.3 314.9 117.2 314.9 118.1 316.1 119 316.1 119.8 316.1 120.7 316.1 121.6 316.1 122.5 316.1 123.4 316.1 124.3 317.2 125.2 317.2 126.1 317.2 126.9 317.2 127.8 317.2 128.7 317.2 129.6 318.4 130.5 318.4 131.4 318.4 132.2 318.4 133.1 318.4 134 318.4 134.9 318.4 135.8 318.4 136.7 319.6 137.6 319.6 138.4 319.6 139.3 319.6 140.2 319.6 141.1 319.6 142 319.6 142.9 320.8 143.8 320.8 144.6 320.8 145.5 320.8 146.4 320.8 147.3 320.8 148.2 320.8 149.1 320.8 150 320.8 150.9 322 151.7 322 152.6 322 153.5 322 154.4 322"/>
      <polyline class="st13" points="57 340.9 57.8 340.9 58.7 340.9 59.6 340.9 60.5 340.9 61.4 340.9 62.3 340.9 63.2 340.9 64.1 340.9 64.9 340.9 65.8 339.7 66.7 339.7 67.6 339.7 68.5 339.7 69.4 339.7 70.2 339.7 71.1 339.7 72 339.7 72.9 339.7 73.8 339.7 74.7 339.7 75.6 339.7 76.4 339.7 77.3 339.7 78.2 339.7 79.1 339.7 80 331.4 80.9 330.2 81.8 330.2 82.7 329.1 83.5 327.9 84.4 327.9 85.3 326.7 86.2 326.7 87.1 325.5 88 324.3 88.8 324.3 89.7 324.3 90.6 323.1 91.5 323.1 92.4 322 93.3 322 94.2 320.8 95.1 320.8 95.9 320.8 96.8 320.8 97.7 319.6 98.6 319.6 99.5 318.4 100.4 318.4 101.2 318.4 102.1 318.4 103 318.4 103.9 317.2 104.8 317.2 105.7 316.1 106.6 316.1 107.4 316.1 108.3 316.1 109.2 316.1 110.1 316.1 111 316.1 111.9 314.9 112.8 314.9 113.7 314.9 114.5 314.9 115.4 314.9 116.3 313.7 117.2 313.7 118.1 313.7 119 313.7 119.8 313.7 120.7 312.5 121.6 312.5 122.5 312.5 123.4 312.5 124.3 312.5 125.2 312.5 126.1 312.5 126.9 312.5 127.8 312.5 128.7 312.5 129.6 312.5 130.5 311.3 131.4 311.3 132.2 311.3 133.1 311.3 134 311.3 134.9 311.3 135.8 311.3 136.7 311.3 137.6 311.3 138.4 311.3 139.3 311.3 140.2 311.3 141.1 311.3 142 311.3 142.9 311.3 143.8 311.3 144.6 311.3 145.5 311.3 146.4 311.3 147.3 311.3 148.2 311.3 149.1 311.3 150 311.3 150.9 311.3 151.7 311.3 152.6 311.3 153.5 311.3 154.4 311.3"/>
      <polyline class="st18" points="57 340.9 57.8 340.9 58.7 340.9 59.6 340.9 60.5 340.9 61.4 340.9 62.3 340.9 63.2 340.9 64.1 340.9 64.9 340.9 65.8 340.9 66.7 340.9 67.6 340.9 68.5 340.9 69.4 340.9 70.2 340.9 71.1 340.9 72 340.9 72.9 340.9 73.8 340.9 74.7 340.9 75.6 340.9 76.4 340.9 77.3 340.9 78.2 340.9 79.1 340.9 80 340.9 80.9 340.9 81.8 340.9 82.7 340.9 83.5 340.9 84.4 340.9 85.3 340.9 86.2 340.9 87.1 340.9 88 340.9 88.8 340.9 89.7 340.9 90.6 340.9 91.5 340.9 92.4 340.9 93.3 340.9 94.2 340.9 95.1 340.9 95.9 340.9 96.8 340.9 97.7 340.9 98.6 340.9 99.5 340.9 100.4 340.9 101.2 340.9 102.1 340.9 103 340.9 103.9 340.9 104.8 340.9 105.7 340.9 106.6 340.9 107.4 340.9 108.3 340.9 109.2 340.9 110.1 340.9 111 340.9 111.9 340.9 112.8 340.9 113.7 340.9 114.5 340.9 115.4 340.9 116.3 340.9 117.2 340.9 118.1 340.9 119 340.9 119.8 340.9 120.7 340.9 121.6 340.9 122.5 340.9 123.4 340.9 124.3 340.9 125.2 340.9 126.1 340.9 126.9 340.9 127.8 340.9 128.7 340.9 129.6 340.9 130.5 340.9 131.4 340.9 132.2 340.9 133.1 340.9 134 340.9 134.9 340.9 135.8 340.9 136.7 340.9 137.6 340.9 138.4 340.9 139.3 340.9 140.2 340.9 141.1 340.9 142 340.9 142.9 340.9 143.8 340.9 144.6 340.9 145.5 340.9 146.4 340.9 147.3 340.9 148.2 340.9 149.1 340.9 150 340.9 150.9 340.9 151.7 340.9 152.6 340.9 153.5 340.9 154.4 340.9"/>
    </g>
  </g>
  <g class="st27">
    <g>
      <text class="st12" transform="translate(25.8 344.8)"><tspan x="0" y="0">0.00</tspan></text>
      <text class="st12" transform="translate(25.8 315.3)"><tspan x="0" y="0">0.25</tspan></text>
      <text class="st12" transform="translate(25.8 285.7)"><tspan x="0" y="0">0.50</tspan></text>
      <text class="st12" transform="translate(25.8 256.2)"><tspan x="0" y="0">0.75</tspan></text>
      <text class="st12" transform="translate(25.8 226.7)"><tspan x="0" y="0">1.00</tspan></text>
      <text class="st12" transform="translate(53.9 359.6)"><tspan x="0" y="0">0</tspan></text>
      <text class="st12" transform="translate(89.9 359.6)"><tspan x="0" y="0">0.5K</tspan></text>
      <text class="st12" transform="translate(141.9 359.6)"><tspan x="0" y="0">K</tspan></text>
      <text class="st7" transform="translate(20.3 344.2) rotate(-90)"><tspan x="0" y="0">optimal removal effort</tspan></text>
      <text class="st7" transform="translate(52.1 208.6)"><tspan x="0" y="0">E. α = 0.75K</tspan></text>
    </g>
  </g>
  <g class="st31">
    <g>
      <line class="st17" x1="211.4" y1="326.1" x2="318.5" y2="326.1"/>
      <line class="st17" x1="211.4" y1="296.6" x2="318.5" y2="296.6"/>
      <line class="st17" x1="211.4" y1="267" x2="318.5" y2="267"/>
      <line class="st17" x1="211.4" y1="237.5" x2="318.5" y2="237.5"/>
      <line class="st17" x1="238.4" y1="346.8" x2="238.4" y2="216.8"/>
      <line class="st17" x1="282.6" y1="346.8" x2="282.6" y2="216.8"/>
      <line class="st23" x1="211.4" y1="340.9" x2="318.5" y2="340.9"/>
      <line class="st23" x1="211.4" y1="311.3" x2="318.5" y2="311.3"/>
      <line class="st23" x1="211.4" y1="281.8" x2="318.5" y2="281.8"/>
      <line class="st23" x1="211.4" y1="252.3" x2="318.5" y2="252.3"/>
      <line class="st23" x1="211.4" y1="222.7" x2="318.5" y2="222.7"/>
      <line class="st23" x1="216.2" y1="346.8" x2="216.2" y2="216.8"/>
      <line class="st23" x1="260.5" y1="346.8" x2="260.5" y2="216.8"/>
      <line class="st23" x1="304.8" y1="346.8" x2="304.8" y2="216.8"/>
      <polyline class="st22" points="216.2 340.9 217.1 319.6 218 318.4 218.9 313.7 219.8 311.3 220.7 311.3 221.5 310.2 222.4 309 223.3 307.8 224.2 306.6 225.1 305.4 226 304.2 226.9 304.2 227.7 303.1 228.6 303.1 229.5 301.9 230.4 301.9 231.3 301.9 232.2 301.9 233.1 300.7 233.9 300.7 234.8 300.7 235.7 299.5 236.6 299.5 237.5 298.4 238.4 298.4 239.2 298.4 240.1 298.4 241 297.2 241.9 297.2 242.8 297.2 243.7 297.2 244.6 297.2 245.4 296 246.3 296 247.2 296 248.1 296 249 296 249.9 296 250.8 294.8 251.6 294.8 252.5 294.8 253.4 294.8 254.3 294.8 255.2 294.8 256.1 293.6 257 293.6 257.9 293.6 258.7 293.6 259.6 293.6 260.5 293.6 261.4 293.6 262.3 293.6 263.2 293.6 264 292.4 264.9 292.4 265.8 292.4 266.7 292.4 267.6 292.4 268.5 292.4 269.4 292.4 270.2 292.4 271.1 292.4 272 292.4 272.9 291.3 273.8 291.3 274.7 291.3 275.6 291.3 276.5 291.3 277.3 291.3 278.2 291.3 279.1 291.3 280 291.3 280.9 291.3 281.8 291.3 282.6 291.3 283.5 290.1 284.4 290.1 285.3 290.1 286.2 290.1 287.1 290.1 288 290.1 288.9 290.1 289.7 290.1 290.6 290.1 291.5 290.1 292.4 290.1 293.3 290.1 294.2 290.1 295 290.1 295.9 290.1 296.8 290.1 297.7 290.1 298.6 290.1 299.5 290.1 300.4 290.1 301.2 290.1 302.1 290.1 303 290.1 303.9 288.9 304.8 288.9 305.7 288.9 306.6 288.9 307.5 288.9 308.3 288.9 309.2 288.9 310.1 288.9 311 288.9 311.9 288.9 312.8 288.9 313.6 288.9"/>
      <polyline class="st16" points="216.2 340.9 217.1 332.6 218 330.2 218.9 330.2 219.8 329.1 220.7 327.9 221.5 327.9 222.4 326.7 223.3 326.7 224.2 326.7 225.1 326.7 226 326.7 226.9 325.5 227.7 325.5 228.6 325.5 229.5 325.5 230.4 325.5 231.3 325.5 232.2 325.5 233.1 325.5 233.9 325.5 234.8 325.5 235.7 325.5 236.6 324.3 237.5 324.3 238.4 325.5 239.2 325.5 240.1 325.5 241 325.5 241.9 324.3 242.8 324.3 243.7 324.3 244.6 325.5 245.4 325.5 246.3 325.5 247.2 325.5 248.1 325.5 249 325.5 249.9 325.5 250.8 325.5 251.6 325.5 252.5 325.5 253.4 325.5 254.3 325.5 255.2 325.5 256.1 325.5 257 325.5 257.9 325.5 258.7 325.5 259.6 325.5 260.5 325.5 261.4 325.5 262.3 325.5 263.2 325.5 264 325.5 264.9 325.5 265.8 325.5 266.7 325.5 267.6 326.7 268.5 326.7 269.4 326.7 270.2 326.7 271.1 326.7 272 326.7 272.9 326.7 273.8 326.7 274.7 326.7 275.6 326.7 276.5 326.7 277.3 326.7 278.2 326.7 279.1 326.7 280 326.7 280.9 326.7 281.8 326.7 282.6 326.7 283.5 326.7 284.4 326.7 285.3 327.9 286.2 327.9 287.1 327.9 288 327.9 288.9 327.9 289.7 327.9 290.6 327.9 291.5 327.9 292.4 327.9 293.3 327.9 294.2 327.9 295 327.9 295.9 327.9 296.8 327.9 297.7 327.9 298.6 327.9 299.5 327.9 300.4 327.9 301.2 327.9 302.1 327.9 303 327.9 303.9 329.1 304.8 329.1 305.7 329.1 306.6 329.1 307.5 329.1 308.3 329.1 309.2 329.1 310.1 329.1 311 329.1 311.9 329.1 312.8 329.1 313.6 329.1"/>
      <polyline class="st13" points="216.2 340.9 217.1 340.9 218 340.9 218.9 340.9 219.8 340.9 220.7 340.9 221.5 340.9 222.4 340.9 223.3 340.9 224.2 340.9 225.1 340.9 226 340.9 226.9 340.9 227.7 340.9 228.6 340.9 229.5 340.9 230.4 340.9 231.3 340.9 232.2 340.9 233.1 340.9 233.9 340.9 234.8 340.9 235.7 340.9 236.6 340.9 237.5 340.9 238.4 340.9 239.2 340.9 240.1 340.9 241 340.9 241.9 340.9 242.8 340.9 243.7 340.9 244.6 340.9 245.4 340.9 246.3 340.9 247.2 339.7 248.1 339.7 249 339.7 249.9 339.7 250.8 339.7 251.6 339.7 252.5 339.7 253.4 339.7 254.3 339.7 255.2 339.7 256.1 339.7 257 339.7 257.9 339.7 258.7 339.7 259.6 339.7 260.5 339.7 261.4 339.7 262.3 339.7 263.2 339.7 264 339.7 264.9 339.7 265.8 339.7 266.7 339.7 267.6 339.7 268.5 339.7 269.4 339.7 270.2 339.7 271.1 339.7 272 339.7 272.9 339.7 273.8 339.7 274.7 339.7 275.6 339.7 276.5 339.7 277.3 339.7 278.2 339.7 279.1 339.7 280 339.7 280.9 339.7 281.8 339.7 282.6 339.7 283.5 339.7 284.4 339.7 285.3 339.7 286.2 339.7 287.1 339.7 288 339.7 288.9 339.7 289.7 339.7 290.6 339.7 291.5 339.7 292.4 339.7 293.3 339.7 294.2 339.7 295 339.7 295.9 339.7 296.8 339.7 297.7 339.7 298.6 339.7 299.5 339.7 300.4 339.7 301.2 339.7 302.1 339.7 303 339.7 303.9 339.7 304.8 339.7 305.7 339.7 306.6 339.7 307.5 339.7 308.3 339.7 309.2 339.7 310.1 339.7 311 339.7 311.9 339.7 312.8 339.7 313.6 339.7"/>
      <polyline class="st18" points="216.2 340.9 217.1 340.9 218 340.9 218.9 340.9 219.8 340.9 220.7 340.9 221.5 340.9 222.4 340.9 223.3 340.9 224.2 340.9 225.1 340.9 226 340.9 226.9 340.9 227.7 340.9 228.6 340.9 229.5 340.9 230.4 340.9 231.3 340.9 232.2 340.9 233.1 340.9 233.9 340.9 234.8 340.9 235.7 340.9 236.6 340.9 237.5 340.9 238.4 340.9 239.2 340.9 240.1 340.9 241 340.9 241.9 340.9 242.8 340.9 243.7 340.9 244.6 340.9 245.4 340.9 246.3 340.9 247.2 340.9 248.1 340.9 249 340.9 249.9 340.9 250.8 340.9 251.6 340.9 252.5 340.9 253.4 340.9 254.3 340.9 255.2 340.9 256.1 340.9 257 340.9 257.9 340.9 258.7 340.9 259.6 340.9 260.5 340.9 261.4 340.9 262.3 340.9 263.2 340.9 264 340.9 264.9 340.9 265.8 340.9 266.7 340.9 267.6 340.9 268.5 340.9 269.4 340.9 270.2 340.9 271.1 340.9 272 340.9 272.9 340.9 273.8 340.9 274.7 340.9 275.6 340.9 276.5 340.9 277.3 340.9 278.2 340.9 279.1 340.9 280 340.9 280.9 340.9 281.8 340.9 282.6 340.9 283.5 340.9 284.4 340.9 285.3 340.9 286.2 340.9 287.1 340.9 288 340.9 288.9 340.9 289.7 340.9 290.6 340.9 291.5 340.9 292.4 340.9 293.3 340.9 294.2 340.9 295 340.9 295.9 340.9 296.8 340.9 297.7 340.9 298.6 340.9 299.5 340.9 300.4 340.9 301.2 340.9 302.1 340.9 303 340.9 303.9 340.9 304.8 340.9 305.7 340.9 306.6 340.9 307.5 340.9 308.3 340.9 309.2 340.9 310.1 340.9 311 340.9 311.9 340.9 312.8 340.9 313.6 340.9"/>
    </g>
  </g>
  <g class="st37">
    <g>
      <text class="st12" transform="translate(185 344.8)"><tspan x="0" y="0">0.00</tspan></text>
      <text class="st12" transform="translate(185 315.3)"><tspan x="0" y="0">0.25</tspan></text>
      <text class="st12" transform="translate(185 285.7)"><tspan x="0" y="0">0.50</tspan></text>
      <text class="st12" transform="translate(185 256.2)"><tspan x="0" y="0">0.75</tspan></text>
      <text class="st12" transform="translate(185 226.7)"><tspan x="0" y="0">1.00</tspan></text>
      <text class="st12" transform="translate(213.2 359.6)"><tspan x="0" y="0">0</tspan></text>
      <text class="st12" transform="translate(249.2 359.6)"><tspan x="0" y="0">0.5K</tspan></text>
      <text class="st12" transform="translate(301.1 359.6)"><tspan x="0" y="0">K</tspan></text>
      <text class="st7" transform="translate(211.4 208.6)"><tspan x="0" y="0">F.</tspan><tspan class="st40" x="11.6" y="0"> </tspan><tspan x="14.7" y="0">α</tspan><tspan class="st40" x="22.2" y="0"> </tspan><tspan x="25.3" y="0">=</tspan><tspan class="st40" x="32.9" y="0"> </tspan><tspan x="36.1" y="0">1.0K</tspan></text>
    </g>
  </g>
  <g class="st41">
    <g>
      <line class="st17" x1="370.6" y1="326.1" x2="477.8" y2="326.1"/>
      <line class="st17" x1="370.6" y1="296.6" x2="477.8" y2="296.6"/>
      <line class="st17" x1="370.6" y1="267" x2="477.8" y2="267"/>
      <line class="st17" x1="370.6" y1="237.5" x2="477.8" y2="237.5"/>
      <line class="st17" x1="397.6" y1="346.8" x2="397.6" y2="216.8"/>
      <line class="st17" x1="441.9" y1="346.8" x2="441.9" y2="216.8"/>
      <line class="st23" x1="370.6" y1="340.9" x2="477.8" y2="340.9"/>
      <line class="st23" x1="370.6" y1="311.3" x2="477.8" y2="311.3"/>
      <line class="st23" x1="370.6" y1="281.8" x2="477.8" y2="281.8"/>
      <line class="st23" x1="370.6" y1="252.3" x2="477.8" y2="252.3"/>
      <line class="st23" x1="370.6" y1="222.7" x2="477.8" y2="222.7"/>
      <line class="st23" x1="375.5" y1="346.8" x2="375.5" y2="216.8"/>
      <line class="st23" x1="419.8" y1="346.8" x2="419.8" y2="216.8"/>
      <line class="st23" x1="464" y1="346.8" x2="464" y2="216.8"/>
      <polyline class="st22" points="375.5 340.9 376.4 324.3 377.3 320.8 378.1 318.4 379 316.1 379.9 316.1 380.8 314.9 381.7 313.7 382.6 312.5 383.5 311.3 384.3 311.3 385.2 310.2 386.1 309 387 309 387.9 307.8 388.8 307.8 389.7 307.8 390.5 307.8 391.4 306.6 392.3 306.6 393.2 306.6 394.1 305.4 395 305.4 395.9 305.4 396.7 304.2 397.6 304.2 398.5 304.2 399.4 304.2 400.3 303.1 401.2 303.1 402.1 303.1 402.9 303.1 403.8 303.1 404.7 301.9 405.6 301.9 406.5 301.9 407.4 301.9 408.3 301.9 409.1 301.9 410 300.7 410.9 300.7 411.8 300.7 412.7 300.7 413.6 300.7 414.5 300.7 415.3 300.7 416.2 299.5 417.1 299.5 418 299.5 418.9 299.5 419.8 299.5 420.7 299.5 421.5 299.5 422.4 299.5 423.3 298.4 424.2 298.4 425.1 298.4 426 298.4 426.9 298.4 427.7 298.4 428.6 298.4 429.5 298.4 430.4 298.4 431.3 298.4 432.2 298.4 433.1 298.4 433.9 297.2 434.8 297.2 435.7 297.2 436.6 297.2 437.5 297.2 438.4 297.2 439.2 297.2 440.1 297.2 441 297.2 441.9 297.2 442.8 297.2 443.7 297.2 444.6 297.2 445.5 296 446.3 296 447.2 296 448.1 296 449 296 449.9 296 450.8 296 451.6 296 452.5 296 453.4 296 454.3 296 455.2 296 456.1 296 457 296 457.9 296 458.7 296 459.6 296 460.5 296 461.4 294.8 462.3 294.8 463.2 294.8 464 294.8 464.9 294.8 465.8 294.8 466.7 294.8 467.6 294.8 468.5 294.8 469.4 294.8 470.2 294.8 471.1 294.8 472 294.8 472.9 294.8"/>
      <polyline class="st16" points="375.5 340.9 376.4 336.1 377.3 335 378.1 335 379 333.8 379.9 333.8 380.8 332.6 381.7 332.6 382.6 332.6 383.5 332.6 384.3 332.6 385.2 332.6 386.1 331.4 387 331.4 387.9 331.4 388.8 331.4 389.7 331.4 390.5 331.4 391.4 331.4 392.3 331.4 393.2 331.4 394.1 331.4 395 331.4 395.9 331.4 396.7 331.4 397.6 330.2 398.5 330.2 399.4 330.2 400.3 330.2 401.2 330.2 402.1 330.2 402.9 330.2 403.8 330.2 404.7 330.2 405.6 330.2 406.5 330.2 407.4 330.2 408.3 330.2 409.1 330.2 410 330.2 410.9 330.2 411.8 330.2 412.7 330.2 413.6 330.2 414.5 330.2 415.3 330.2 416.2 330.2 417.1 330.2 418 330.2 418.9 330.2 419.8 330.2 420.7 330.2 421.5 330.2 422.4 330.2 423.3 330.2 424.2 330.2 425.1 330.2 426 330.2 426.9 330.2 427.7 331.4 428.6 331.4 429.5 331.4 430.4 331.4 431.3 331.4 432.2 331.4 433.1 331.4 433.9 331.4 434.8 331.4 435.7 331.4 436.6 331.4 437.5 331.4 438.4 331.4 439.2 331.4 440.1 331.4 441 331.4 441.9 331.4 442.8 331.4 443.7 331.4 444.6 331.4 445.5 331.4 446.3 331.4 447.2 331.4 448.1 331.4 449 331.4 449.9 331.4 450.8 331.4 451.6 331.4 452.5 331.4 453.4 331.4 454.3 331.4 455.2 331.4 456.1 331.4 457 331.4 457.9 331.4 458.7 331.4 459.6 331.4 460.5 331.4 461.4 331.4 462.3 331.4 463.2 331.4 464 331.4 464.9 331.4 465.8 331.4 466.7 331.4 467.6 331.4 468.5 331.4 469.4 331.4 470.2 331.4 471.1 332.6 472 332.6 472.9 332.6"/>
      <polyline class="st13" points="375.5 340.9 376.4 340.9 377.3 340.9 378.1 340.9 379 340.9 379.9 340.9 380.8 340.9 381.7 340.9 382.6 340.9 383.5 340.9 384.3 340.9 385.2 340.9 386.1 340.9 387 340.9 387.9 340.9 388.8 340.9 389.7 340.9 390.5 340.9 391.4 340.9 392.3 340.9 393.2 340.9 394.1 340.9 395 340.9 395.9 340.9 396.7 340.9 397.6 340.9 398.5 340.9 399.4 340.9 400.3 340.9 401.2 340.9 402.1 340.9 402.9 340.9 403.8 340.9 404.7 340.9 405.6 340.9 406.5 340.9 407.4 340.9 408.3 340.9 409.1 340.9 410 340.9 410.9 340.9 411.8 340.9 412.7 340.9 413.6 340.9 414.5 340.9 415.3 340.9 416.2 340.9 417.1 340.9 418 340.9 418.9 340.9 419.8 340.9 420.7 340.9 421.5 340.9 422.4 340.9 423.3 340.9 424.2 340.9 425.1 340.9 426 340.9 426.9 340.9 427.7 340.9 428.6 340.9 429.5 340.9 430.4 340.9 431.3 340.9 432.2 340.9 433.1 340.9 433.9 340.9 434.8 340.9 435.7 340.9 436.6 340.9 437.5 340.9 438.4 340.9 439.2 340.9 440.1 340.9 441 340.9 441.9 340.9 442.8 340.9 443.7 340.9 444.6 340.9 445.5 340.9 446.3 340.9 447.2 340.9 448.1 340.9 449 340.9 449.9 340.9 450.8 340.9 451.6 340.9 452.5 340.9 453.4 340.9 454.3 340.9 455.2 340.9 456.1 340.9 457 340.9 457.9 340.9 458.7 340.9 459.6 340.9 460.5 340.9 461.4 340.9 462.3 340.9 463.2 340.9 464 340.9 464.9 340.9 465.8 340.9 466.7 340.9 467.6 340.9 468.5 340.9 469.4 340.9 470.2 340.9 471.1 340.9 472 340.9 472.9 340.9"/>
      <polyline class="st18" points="375.5 340.9 376.4 340.9 377.3 340.9 378.1 340.9 379 340.9 379.9 340.9 380.8 340.9 381.7 340.9 382.6 340.9 383.5 340.9 384.3 340.9 385.2 340.9 386.1 340.9 387 340.9 387.9 340.9 388.8 340.9 389.7 340.9 390.5 340.9 391.4 340.9 392.3 340.9 393.2 340.9 394.1 340.9 395 340.9 395.9 340.9 396.7 340.9 397.6 340.9 398.5 340.9 399.4 340.9 400.3 340.9 401.2 340.9 402.1 340.9 402.9 340.9 403.8 340.9 404.7 340.9 405.6 340.9 406.5 340.9 407.4 340.9 408.3 340.9 409.1 340.9 410 340.9 410.9 340.9 411.8 340.9 412.7 340.9 413.6 340.9 414.5 340.9 415.3 340.9 416.2 340.9 417.1 340.9 418 340.9 418.9 340.9 419.8 340.9 420.7 340.9 421.5 340.9 422.4 340.9 423.3 340.9 424.2 340.9 425.1 340.9 426 340.9 426.9 340.9 427.7 340.9 428.6 340.9 429.5 340.9 430.4 340.9 431.3 340.9 432.2 340.9 433.1 340.9 433.9 340.9 434.8 340.9 435.7 340.9 436.6 340.9 437.5 340.9 438.4 340.9 439.2 340.9 440.1 340.9 441 340.9 441.9 340.9 442.8 340.9 443.7 340.9 444.6 340.9 445.5 340.9 446.3 340.9 447.2 340.9 448.1 340.9 449 340.9 449.9 340.9 450.8 340.9 451.6 340.9 452.5 340.9 453.4 340.9 454.3 340.9 455.2 340.9 456.1 340.9 457 340.9 457.9 340.9 458.7 340.9 459.6 340.9 460.5 340.9 461.4 340.9 462.3 340.9 463.2 340.9 464 340.9 464.9 340.9 465.8 340.9 466.7 340.9 467.6 340.9 468.5 340.9 469.4 340.9 470.2 340.9 471.1 340.9 472 340.9 472.9 340.9"/>
    </g>
  </g>
  <g class="st39">
    <g>
      <text class="st12" transform="translate(344.3 344.8)"><tspan x="0" y="0">0.00</tspan></text>
      <text class="st12" transform="translate(344.3 315.3)"><tspan x="0" y="0">0.25</tspan></text>
      <text class="st12" transform="translate(344.3 285.7)"><tspan x="0" y="0">0.50</tspan></text>
      <text class="st12" transform="translate(344.3 256.2)"><tspan x="0" y="0">0.75</tspan></text>
      <text class="st12" transform="translate(344.3 226.7)"><tspan x="0" y="0">1.00</tspan></text>
      <text class="st12" transform="translate(372.4 359.6)"><tspan x="0" y="0">0</tspan></text>
      <text class="st12" transform="translate(408.5 359.6)"><tspan x="0" y="0">0.5K</tspan></text>
      <text class="st12" transform="translate(460.4 359.6)"><tspan x="0" y="0">K</tspan></text>
      <text class="st7" transform="translate(370.6 208.6)"><tspan x="0" y="0">G. α = 1.25K</tspan></text>
    </g>
  </g>
  <g class="st25">
    <g>
      <line class="st17" x1="52.1" y1="514.5" x2="159.3" y2="514.5"/>
      <line class="st17" x1="52.1" y1="484.9" x2="159.3" y2="484.9"/>
      <line class="st17" x1="52.1" y1="455.4" x2="159.3" y2="455.4"/>
      <line class="st17" x1="52.1" y1="425.9" x2="159.3" y2="425.9"/>
      <line class="st17" x1="79.1" y1="535.1" x2="79.1" y2="405.2"/>
      <line class="st17" x1="123.4" y1="535.1" x2="123.4" y2="405.2"/>
      <line class="st23" x1="52.1" y1="529.2" x2="159.3" y2="529.2"/>
      <line class="st23" x1="52.1" y1="499.7" x2="159.3" y2="499.7"/>
      <line class="st23" x1="52.1" y1="470.1" x2="159.3" y2="470.1"/>
      <line class="st23" x1="52.1" y1="440.6" x2="159.3" y2="440.6"/>
      <line class="st23" x1="52.1" y1="411.1" x2="159.3" y2="411.1"/>
      <line class="st23" x1="57" y1="535.1" x2="57" y2="405.2"/>
      <line class="st23" x1="101.2" y1="535.1" x2="101.2" y2="405.2"/>
      <line class="st23" x1="145.5" y1="535.1" x2="145.5" y2="405.2"/>
      <polyline class="st22" points="57 529.2 57.8 515 58.7 511.5 59.6 511.5 60.5 508 61.4 506.8 62.3 505.6 63.2 504.4 64.1 504.4 64.9 503.2 65.8 503.2 66.7 502 67.6 502 68.5 500.9 69.4 500.9 70.2 500.9 71.1 499.7 72 499.7 72.9 498.5 73.8 498.5 74.7 498.5 75.6 498.5 76.4 497.3 77.3 497.3 78.2 497.3 79.1 497.3 80 496.1 80.9 496.1 81.8 496.1 82.7 496.1 83.5 495 84.4 495 85.3 495 86.2 495 87.1 495 88 495 88.8 495 89.7 493.8 90.6 493.8 91.5 493.8 92.4 493.8 93.3 493.8 94.2 493.8 95.1 492.6 95.9 492.6 96.8 492.6 97.7 492.6 98.6 492.6 99.5 492.6 100.4 492.6 101.2 492.6 102.1 491.4 103 491.4 103.9 491.4 104.8 491.4 105.7 491.4 106.6 491.4 107.4 491.4 108.3 491.4 109.2 491.4 110.1 491.4 111 491.4 111.9 490.2 112.8 490.2 113.7 490.2 114.5 490.2 115.4 490.2 116.3 490.2 117.2 490.2 118.1 490.2 119 490.2 119.8 490.2 120.7 490.2 121.6 490.2 122.5 490.2 123.4 489.1 124.3 489.1 125.2 489.1 126.1 489.1 126.9 489.1 127.8 489.1 128.7 489.1 129.6 489.1 130.5 489.1 131.4 489.1 132.2 489.1 133.1 489.1 134 489.1 134.9 489.1 135.8 489.1 136.7 489.1 137.6 487.9 138.4 487.9 139.3 487.9 140.2 487.9 141.1 487.9 142 487.9 142.9 487.9 143.8 487.9 144.6 487.9 145.5 487.9 146.4 487.9 147.3 487.9 148.2 487.9 149.1 487.9 150 487.9 150.9 487.9 151.7 487.9 152.6 487.9 153.5 487.9 154.4 487.9"/>
      <polyline class="st16" points="57 529.2 57.8 526.9 58.7 525.7 59.6 524.5 60.5 524.5 61.4 524.5 62.3 524.5 63.2 523.3 64.1 523.3 64.9 523.3 65.8 523.3 66.7 523.3 67.6 523.3 68.5 523.3 69.4 522.1 70.2 522.1 71.1 522.1 72 522.1 72.9 522.1 73.8 522.1 74.7 522.1 75.6 522.1 76.4 522.1 77.3 522.1 78.2 522.1 79.1 522.1 80 522.1 80.9 522.1 81.8 522.1 82.7 522.1 83.5 522.1 84.4 522.1 85.3 522.1 86.2 522.1 87.1 522.1 88 522.1 88.8 522.1 89.7 522.1 90.6 522.1 91.5 522.1 92.4 522.1 93.3 522.1 94.2 522.1 95.1 522.1 95.9 522.1 96.8 522.1 97.7 522.1 98.6 522.1 99.5 522.1 100.4 522.1 101.2 522.1 102.1 522.1 103 522.1 103.9 522.1 104.8 522.1 105.7 522.1 106.6 522.1 107.4 522.1 108.3 522.1 109.2 522.1 110.1 522.1 111 522.1 111.9 522.1 112.8 522.1 113.7 522.1 114.5 522.1 115.4 522.1 116.3 522.1 117.2 522.1 118.1 522.1 119 522.1 119.8 522.1 120.7 522.1 121.6 522.1 122.5 522.1 123.4 522.1 124.3 522.1 125.2 522.1 126.1 522.1 126.9 522.1 127.8 522.1 128.7 522.1 129.6 522.1 130.5 522.1 131.4 522.1 132.2 522.1 133.1 522.1 134 522.1 134.9 522.1 135.8 522.1 136.7 522.1 137.6 522.1 138.4 522.1 139.3 522.1 140.2 522.1 141.1 522.1 142 522.1 142.9 522.1 143.8 522.1 144.6 522.1 145.5 522.1 146.4 522.1 147.3 522.1 148.2 522.1 149.1 522.1 150 522.1 150.9 522.1 151.7 522.1 152.6 522.1 153.5 522.1 154.4 522.1"/>
      <polyline class="st13" points="57 529.2 57.8 529.2 58.7 529.2 59.6 529.2 60.5 529.2 61.4 529.2 62.3 529.2 63.2 529.2 64.1 529.2 64.9 529.2 65.8 529.2 66.7 529.2 67.6 529.2 68.5 529.2 69.4 529.2 70.2 529.2 71.1 529.2 72 529.2 72.9 529.2 73.8 529.2 74.7 529.2 75.6 529.2 76.4 529.2 77.3 529.2 78.2 529.2 79.1 529.2 80 529.2 80.9 529.2 81.8 529.2 82.7 529.2 83.5 529.2 84.4 529.2 85.3 529.2 86.2 529.2 87.1 529.2 88 529.2 88.8 529.2 89.7 529.2 90.6 529.2 91.5 529.2 92.4 529.2 93.3 529.2 94.2 529.2 95.1 529.2 95.9 529.2 96.8 529.2 97.7 529.2 98.6 529.2 99.5 529.2 100.4 529.2 101.2 529.2 102.1 529.2 103 529.2 103.9 529.2 104.8 529.2 105.7 529.2 106.6 529.2 107.4 529.2 108.3 529.2 109.2 529.2 110.1 529.2 111 529.2 111.9 529.2 112.8 529.2 113.7 529.2 114.5 529.2 115.4 529.2 116.3 529.2 117.2 529.2 118.1 529.2 119 529.2 119.8 529.2 120.7 529.2 121.6 529.2 122.5 529.2 123.4 529.2 124.3 529.2 125.2 529.2 126.1 529.2 126.9 529.2 127.8 529.2 128.7 529.2 129.6 529.2 130.5 529.2 131.4 529.2 132.2 529.2 133.1 529.2 134 529.2 134.9 529.2 135.8 529.2 136.7 529.2 137.6 529.2 138.4 529.2 139.3 529.2 140.2 529.2 141.1 529.2 142 529.2 142.9 529.2 143.8 529.2 144.6 529.2 145.5 529.2 146.4 529.2 147.3 529.2 148.2 529.2 149.1 529.2 150 529.2 150.9 529.2 151.7 529.2 152.6 529.2 153.5 529.2 154.4 529.2"/>
      <polyline class="st18" points="57 529.2 57.8 529.2 58.7 529.2 59.6 529.2 60.5 529.2 61.4 529.2 62.3 529.2 63.2 529.2 64.1 529.2 64.9 529.2 65.8 529.2 66.7 529.2 67.6 529.2 68.5 529.2 69.4 529.2 70.2 529.2 71.1 529.2 72 529.2 72.9 529.2 73.8 529.2 74.7 529.2 75.6 529.2 76.4 529.2 77.3 529.2 78.2 529.2 79.1 529.2 80 529.2 80.9 529.2 81.8 529.2 82.7 529.2 83.5 529.2 84.4 529.2 85.3 529.2 86.2 529.2 87.1 529.2 88 529.2 88.8 529.2 89.7 529.2 90.6 529.2 91.5 529.2 92.4 529.2 93.3 529.2 94.2 529.2 95.1 529.2 95.9 529.2 96.8 529.2 97.7 529.2 98.6 529.2 99.5 529.2 100.4 529.2 101.2 529.2 102.1 529.2 103 529.2 103.9 529.2 104.8 529.2 105.7 529.2 106.6 529.2 107.4 529.2 108.3 529.2 109.2 529.2 110.1 529.2 111 529.2 111.9 529.2 112.8 529.2 113.7 529.2 114.5 529.2 115.4 529.2 116.3 529.2 117.2 529.2 118.1 529.2 119 529.2 119.8 529.2 120.7 529.2 121.6 529.2 122.5 529.2 123.4 529.2 124.3 529.2 125.2 529.2 126.1 529.2 126.9 529.2 127.8 529.2 128.7 529.2 129.6 529.2 130.5 529.2 131.4 529.2 132.2 529.2 133.1 529.2 134 529.2 134.9 529.2 135.8 529.2 136.7 529.2 137.6 529.2 138.4 529.2 139.3 529.2 140.2 529.2 141.1 529.2 142 529.2 142.9 529.2 143.8 529.2 144.6 529.2 145.5 529.2 146.4 529.2 147.3 529.2 148.2 529.2 149.1 529.2 150 529.2 150.9 529.2 151.7 529.2 152.6 529.2 153.5 529.2 154.4 529.2"/>
    </g>
  </g>
  <g class="st0">
    <g>
      <text class="st12" transform="translate(25.8 533.2)"><tspan x="0" y="0">0.00</tspan></text>
      <text class="st12" transform="translate(25.8 503.6)"><tspan x="0" y="0">0.25</tspan></text>
      <text class="st12" transform="translate(25.8 474.1)"><tspan x="0" y="0">0.50</tspan></text>
      <text class="st12" transform="translate(25.8 444.6)"><tspan x="0" y="0">0.75</tspan></text>
      <text class="st12" transform="translate(25.8 415)"><tspan x="0" y="0">1.00</tspan></text>
      <text class="st12" transform="translate(53.9 547.9)"><tspan x="0" y="0">0</tspan></text>
      <text class="st12" transform="translate(89.9 547.9)"><tspan x="0" y="0">0.5K</tspan></text>
      <text class="st12" transform="translate(141.9 547.9)"><tspan x="0" y="0">K</tspan></text>
      <text class="st7" transform="translate(69.2 562.3)"><tspan x="0" y="0">EGC density</tspan></text>
      <text class="st7" transform="translate(20.3 532.5) rotate(-90)"><tspan x="0" y="0">optimal removal effort</tspan></text>
      <text class="st7" transform="translate(52.1 397)"><tspan x="0" y="0">H. α = 1.5K</tspan></text>
    </g>
  </g>
  <g class="st42">
    <g>
      <line class="st17" x1="211.4" y1="514.5" x2="318.5" y2="514.5"/>
      <line class="st17" x1="211.4" y1="484.9" x2="318.5" y2="484.9"/>
      <line class="st17" x1="211.4" y1="455.4" x2="318.5" y2="455.4"/>
      <line class="st17" x1="211.4" y1="425.9" x2="318.5" y2="425.9"/>
      <line class="st17" x1="238.4" y1="535.1" x2="238.4" y2="405.2"/>
      <line class="st17" x1="282.6" y1="535.1" x2="282.6" y2="405.2"/>
      <line class="st23" x1="211.4" y1="529.2" x2="318.5" y2="529.2"/>
      <line class="st23" x1="211.4" y1="499.7" x2="318.5" y2="499.7"/>
      <line class="st23" x1="211.4" y1="470.1" x2="318.5" y2="470.1"/>
      <line class="st23" x1="211.4" y1="440.6" x2="318.5" y2="440.6"/>
      <line class="st23" x1="211.4" y1="411.1" x2="318.5" y2="411.1"/>
      <line class="st23" x1="216.2" y1="535.1" x2="216.2" y2="405.2"/>
      <line class="st23" x1="260.5" y1="535.1" x2="260.5" y2="405.2"/>
      <line class="st23" x1="304.8" y1="535.1" x2="304.8" y2="405.2"/>
      <polyline class="st22" points="216.2 529.2 217.1 518.6 218 513.9 218.9 513.9 219.8 512.7 220.7 511.5 221.5 510.3 222.4 509.1 223.3 508 224.2 508 225.1 508 226 506.8 226.9 506.8 227.7 506.8 228.6 505.6 229.5 505.6 230.4 504.4 231.3 504.4 232.2 504.4 233.1 504.4 233.9 503.2 234.8 503.2 235.7 503.2 236.6 503.2 237.5 502 238.4 502 239.2 502 240.1 502 241 502 241.9 500.9 242.8 500.9 243.7 500.9 244.6 500.9 245.4 500.9 246.3 500.9 247.2 499.7 248.1 499.7 249 499.7 249.9 499.7 250.8 499.7 251.6 499.7 252.5 499.7 253.4 499.7 254.3 498.5 255.2 498.5 256.1 498.5 257 498.5 257.9 498.5 258.7 498.5 259.6 498.5 260.5 498.5 261.4 498.5 262.3 497.3 263.2 497.3 264 497.3 264.9 497.3 265.8 497.3 266.7 497.3 267.6 497.3 268.5 497.3 269.4 497.3 270.2 497.3 271.1 497.3 272 496.1 272.9 496.1 273.8 496.1 274.7 496.1 275.6 496.1 276.5 496.1 277.3 496.1 278.2 496.1 279.1 496.1 280 496.1 280.9 496.1 281.8 496.1 282.6 496.1 283.5 496.1 284.4 495 285.3 495 286.2 495 287.1 495 288 495 288.9 495 289.7 495 290.6 495 291.5 495 292.4 495 293.3 495 294.2 495 295 495 295.9 495 296.8 495 297.7 495 298.6 495 299.5 495 300.4 493.8 301.2 493.8 302.1 493.8 303 493.8 303.9 493.8 304.8 493.8 305.7 493.8 306.6 493.8 307.5 493.8 308.3 493.8 309.2 493.8 310.1 493.8 311 493.8 311.9 493.8 312.8 493.8 313.6 493.8"/>
      <polyline class="st16" points="216.2 529.2 217.1 528 218 526.9 218.9 526.9 219.8 526.9 220.7 525.7 221.5 526.9 222.4 525.7 223.3 525.7 224.2 525.7 225.1 525.7 226 525.7 226.9 525.7 227.7 525.7 228.6 525.7 229.5 525.7 230.4 525.7 231.3 524.5 232.2 524.5 233.1 524.5 233.9 524.5 234.8 524.5 235.7 524.5 236.6 524.5 237.5 524.5 238.4 524.5 239.2 524.5 240.1 524.5 241 524.5 241.9 524.5 242.8 524.5 243.7 524.5 244.6 524.5 245.4 524.5 246.3 524.5 247.2 524.5 248.1 524.5 249 524.5 249.9 524.5 250.8 524.5 251.6 524.5 252.5 524.5 253.4 524.5 254.3 524.5 255.2 524.5 256.1 524.5 257 524.5 257.9 524.5 258.7 524.5 259.6 524.5 260.5 524.5 261.4 524.5 262.3 524.5 263.2 524.5 264 524.5 264.9 524.5 265.8 524.5 266.7 524.5 267.6 524.5 268.5 524.5 269.4 524.5 270.2 524.5 271.1 524.5 272 524.5 272.9 524.5 273.8 524.5 274.7 524.5 275.6 524.5 276.5 524.5 277.3 524.5 278.2 524.5 279.1 524.5 280 524.5 280.9 524.5 281.8 524.5 282.6 524.5 283.5 524.5 284.4 524.5 285.3 524.5 286.2 524.5 287.1 524.5 288 524.5 288.9 524.5 289.7 524.5 290.6 524.5 291.5 524.5 292.4 524.5 293.3 524.5 294.2 524.5 295 524.5 295.9 524.5 296.8 524.5 297.7 524.5 298.6 524.5 299.5 524.5 300.4 524.5 301.2 524.5 302.1 524.5 303 524.5 303.9 524.5 304.8 524.5 305.7 524.5 306.6 524.5 307.5 524.5 308.3 524.5 309.2 524.5 310.1 524.5 311 524.5 311.9 524.5 312.8 524.5 313.6 524.5"/>
      <polyline class="st13" points="216.2 529.2 217.1 529.2 218 529.2 218.9 529.2 219.8 529.2 220.7 529.2 221.5 529.2 222.4 529.2 223.3 529.2 224.2 529.2 225.1 529.2 226 529.2 226.9 529.2 227.7 529.2 228.6 529.2 229.5 529.2 230.4 529.2 231.3 529.2 232.2 529.2 233.1 529.2 233.9 529.2 234.8 529.2 235.7 529.2 236.6 529.2 237.5 529.2 238.4 529.2 239.2 529.2 240.1 529.2 241 529.2 241.9 529.2 242.8 529.2 243.7 529.2 244.6 529.2 245.4 529.2 246.3 529.2 247.2 529.2 248.1 529.2 249 529.2 249.9 529.2 250.8 529.2 251.6 529.2 252.5 529.2 253.4 529.2 254.3 529.2 255.2 529.2 256.1 529.2 257 529.2 257.9 529.2 258.7 529.2 259.6 529.2 260.5 529.2 261.4 529.2 262.3 529.2 263.2 529.2 264 529.2 264.9 529.2 265.8 529.2 266.7 529.2 267.6 529.2 268.5 529.2 269.4 529.2 270.2 529.2 271.1 529.2 272 529.2 272.9 529.2 273.8 529.2 274.7 529.2 275.6 529.2 276.5 529.2 277.3 529.2 278.2 529.2 279.1 529.2 280 529.2 280.9 529.2 281.8 529.2 282.6 529.2 283.5 529.2 284.4 529.2 285.3 529.2 286.2 529.2 287.1 529.2 288 529.2 288.9 529.2 289.7 529.2 290.6 529.2 291.5 529.2 292.4 529.2 293.3 529.2 294.2 529.2 295 529.2 295.9 529.2 296.8 529.2 297.7 529.2 298.6 529.2 299.5 529.2 300.4 529.2 301.2 529.2 302.1 529.2 303 529.2 303.9 529.2 304.8 529.2 305.7 529.2 306.6 529.2 307.5 529.2 308.3 529.2 309.2 529.2 310.1 529.2 311 529.2 311.9 529.2 312.8 529.2 313.6 529.2"/>
      <polyline class="st18" points="216.2 529.2 217.1 529.2 218 529.2 218.9 529.2 219.8 529.2 220.7 529.2 221.5 529.2 222.4 529.2 223.3 529.2 224.2 529.2 225.1 529.2 226 529.2 226.9 529.2 227.7 529.2 228.6 529.2 229.5 529.2 230.4 529.2 231.3 529.2 232.2 529.2 233.1 529.2 233.9 529.2 234.8 529.2 235.7 529.2 236.6 529.2 237.5 529.2 238.4 529.2 239.2 529.2 240.1 529.2 241 529.2 241.9 529.2 242.8 529.2 243.7 529.2 244.6 529.2 245.4 529.2 246.3 529.2 247.2 529.2 248.1 529.2 249 529.2 249.9 529.2 250.8 529.2 251.6 529.2 252.5 529.2 253.4 529.2 254.3 529.2 255.2 529.2 256.1 529.2 257 529.2 257.9 529.2 258.7 529.2 259.6 529.2 260.5 529.2 261.4 529.2 262.3 529.2 263.2 529.2 264 529.2 264.9 529.2 265.8 529.2 266.7 529.2 267.6 529.2 268.5 529.2 269.4 529.2 270.2 529.2 271.1 529.2 272 529.2 272.9 529.2 273.8 529.2 274.7 529.2 275.6 529.2 276.5 529.2 277.3 529.2 278.2 529.2 279.1 529.2 280 529.2 280.9 529.2 281.8 529.2 282.6 529.2 283.5 529.2 284.4 529.2 285.3 529.2 286.2 529.2 287.1 529.2 288 529.2 288.9 529.2 289.7 529.2 290.6 529.2 291.5 529.2 292.4 529.2 293.3 529.2 294.2 529.2 295 529.2 295.9 529.2 296.8 529.2 297.7 529.2 298.6 529.2 299.5 529.2 300.4 529.2 301.2 529.2 302.1 529.2 303 529.2 303.9 529.2 304.8 529.2 305.7 529.2 306.6 529.2 307.5 529.2 308.3 529.2 309.2 529.2 310.1 529.2 311 529.2 311.9 529.2 312.8 529.2 313.6 529.2"/>
    </g>
  </g>
  <g class="st1">
    <g>
      <text class="st12" transform="translate(185 533.2)"><tspan x="0" y="0">0.00</tspan></text>
      <text class="st12" transform="translate(185 503.6)"><tspan x="0" y="0">0.25</tspan></text>
      <text class="st12" transform="translate(185 474.1)"><tspan x="0" y="0">0.50</tspan></text>
      <text class="st12" transform="translate(185 444.6)"><tspan x="0" y="0">0.75</tspan></text>
      <text class="st12" transform="translate(185 415)"><tspan x="0" y="0">1.00</tspan></text>
      <text class="st12" transform="translate(213.2 547.9)"><tspan x="0" y="0">0</tspan></text>
      <text class="st12" transform="translate(249.2 547.9)"><tspan x="0" y="0">0.5K</tspan></text>
      <text class="st12" transform="translate(301.1 547.9)"><tspan x="0" y="0">K</tspan></text>
      <text class="st7" transform="translate(213.3 562.3)"><tspan x="0" y="0">local EGC density</tspan></text>
      <text class="st7" transform="translate(211.4 397)"><tspan x="0" y="0">I. α = 2.0K</tspan></text>
    </g>
  </g>
  <g class="st35">
    <g>
      <line class="st17" x1="370.6" y1="514.5" x2="477.8" y2="514.5"/>
      <line class="st17" x1="370.6" y1="484.9" x2="477.8" y2="484.9"/>
      <line class="st17" x1="370.6" y1="455.4" x2="477.8" y2="455.4"/>
      <line class="st17" x1="370.6" y1="425.9" x2="477.8" y2="425.9"/>
      <line class="st17" x1="397.6" y1="535.1" x2="397.6" y2="405.2"/>
      <line class="st17" x1="441.9" y1="535.1" x2="441.9" y2="405.2"/>
      <line class="st23" x1="370.6" y1="529.2" x2="477.8" y2="529.2"/>
      <line class="st23" x1="370.6" y1="499.7" x2="477.8" y2="499.7"/>
      <line class="st23" x1="370.6" y1="470.1" x2="477.8" y2="470.1"/>
      <line class="st23" x1="370.6" y1="440.6" x2="477.8" y2="440.6"/>
      <line class="st23" x1="370.6" y1="411.1" x2="477.8" y2="411.1"/>
      <line class="st23" x1="375.5" y1="535.1" x2="375.5" y2="405.2"/>
      <line class="st23" x1="419.8" y1="535.1" x2="419.8" y2="405.2"/>
      <line class="st23" x1="464" y1="535.1" x2="464" y2="405.2"/>
      <polyline class="st22" points="375.5 529.2 376.4 524.5 377.3 522.1 378.1 523.3 379 521 379.9 522.1 380.8 521 381.7 518.6 382.6 518.6 383.5 518.6 384.3 517.4 385.2 517.4 386.1 517.4 387 517.4 387.9 518.6 388.8 518.6 389.7 517.4 390.5 517.4 391.4 516.2 392.3 516.2 393.2 515 394.1 515 395 515 395.9 515 396.7 516.2 397.6 516.2 398.5 516.2 399.4 516.2 400.3 515 401.2 515 402.1 515 402.9 513.9 403.8 513.9 404.7 513.9 405.6 513.9 406.5 513.9 407.4 513.9 408.3 515 409.1 513.9 410 513.9 410.9 513.9 411.8 513.9 412.7 513.9 413.6 512.7 414.5 512.7 415.3 512.7 416.2 512.7 417.1 512.7 418 512.7 418.9 512.7 419.8 512.7 420.7 512.7 421.5 512.7 422.4 512.7 423.3 512.7 424.2 512.7 425.1 512.7 426 512.7 426.9 512.7 427.7 512.7 428.6 511.5 429.5 511.5 430.4 511.5 431.3 511.5 432.2 511.5 433.1 511.5 433.9 511.5 434.8 511.5 435.7 511.5 436.6 511.5 437.5 511.5 438.4 511.5 439.2 511.5 440.1 511.5 441 511.5 441.9 511.5 442.8 511.5 443.7 511.5 444.6 510.3 445.5 510.3 446.3 510.3 447.2 510.3 448.1 510.3 449 510.3 449.9 510.3 450.8 510.3 451.6 510.3 452.5 510.3 453.4 510.3 454.3 510.3 455.2 510.3 456.1 510.3 457 510.3 457.9 510.3 458.7 510.3 459.6 510.3 460.5 510.3 461.4 510.3 462.3 510.3 463.2 510.3 464 510.3 464.9 509.1 465.8 509.1 466.7 509.1 467.6 509.1 468.5 509.1 469.4 509.1 470.2 509.1 471.1 509.1 472 509.1 472.9 509.1"/>
      <polyline class="st16" points="375.5 529.2 376.4 529.2 377.3 529.2 378.1 529.2 379 528 379.9 528 380.8 528 381.7 528 382.6 528 383.5 528 384.3 528 385.2 528 386.1 528 387 528 387.9 528 388.8 528 389.7 528 390.5 528 391.4 528 392.3 528 393.2 528 394.1 528 395 528 395.9 528 396.7 528 397.6 528 398.5 528 399.4 528 400.3 528 401.2 528 402.1 528 402.9 528 403.8 528 404.7 528 405.6 528 406.5 528 407.4 528 408.3 528 409.1 528 410 528 410.9 528 411.8 528 412.7 528 413.6 528 414.5 528 415.3 528 416.2 528 417.1 528 418 528 418.9 528 419.8 528 420.7 528 421.5 528 422.4 528 423.3 528 424.2 528 425.1 528 426 528 426.9 528 427.7 528 428.6 528 429.5 528 430.4 528 431.3 528 432.2 528 433.1 528 433.9 528 434.8 528 435.7 528 436.6 528 437.5 528 438.4 528 439.2 528 440.1 528 441 528 441.9 528 442.8 528 443.7 528 444.6 528 445.5 528 446.3 528 447.2 528 448.1 528 449 528 449.9 528 450.8 528 451.6 528 452.5 528 453.4 528 454.3 528 455.2 528 456.1 528 457 528 457.9 528 458.7 528 459.6 528 460.5 528 461.4 528 462.3 528 463.2 528 464 528 464.9 528 465.8 528 466.7 528 467.6 528 468.5 528 469.4 528 470.2 528 471.1 528 472 528 472.9 528"/>
      <polyline class="st13" points="375.5 529.2 376.4 529.2 377.3 529.2 378.1 529.2 379 529.2 379.9 529.2 380.8 529.2 381.7 529.2 382.6 529.2 383.5 529.2 384.3 529.2 385.2 529.2 386.1 529.2 387 529.2 387.9 529.2 388.8 529.2 389.7 529.2 390.5 529.2 391.4 529.2 392.3 529.2 393.2 529.2 394.1 529.2 395 529.2 395.9 529.2 396.7 529.2 397.6 529.2 398.5 529.2 399.4 529.2 400.3 529.2 401.2 529.2 402.1 529.2 402.9 529.2 403.8 529.2 404.7 529.2 405.6 529.2 406.5 529.2 407.4 529.2 408.3 529.2 409.1 529.2 410 529.2 410.9 529.2 411.8 529.2 412.7 529.2 413.6 529.2 414.5 529.2 415.3 529.2 416.2 529.2 417.1 529.2 418 529.2 418.9 529.2 419.8 529.2 420.7 529.2 421.5 529.2 422.4 529.2 423.3 529.2 424.2 529.2 425.1 529.2 426 529.2 426.9 529.2 427.7 529.2 428.6 529.2 429.5 529.2 430.4 529.2 431.3 529.2 432.2 529.2 433.1 529.2 433.9 529.2 434.8 529.2 435.7 529.2 436.6 529.2 437.5 529.2 438.4 529.2 439.2 529.2 440.1 529.2 441 529.2 441.9 529.2 442.8 529.2 443.7 529.2 444.6 529.2 445.5 529.2 446.3 529.2 447.2 529.2 448.1 529.2 449 529.2 449.9 529.2 450.8 529.2 451.6 529.2 452.5 529.2 453.4 529.2 454.3 529.2 455.2 529.2 456.1 529.2 457 529.2 457.9 529.2 458.7 529.2 459.6 529.2 460.5 529.2 461.4 529.2 462.3 529.2 463.2 529.2 464 529.2 464.9 529.2 465.8 529.2 466.7 529.2 467.6 529.2 468.5 529.2 469.4 529.2 470.2 529.2 471.1 529.2 472 529.2 472.9 529.2"/>
      <polyline class="st18" points="375.5 529.2 376.4 529.2 377.3 529.2 378.1 529.2 379 529.2 379.9 529.2 380.8 529.2 381.7 529.2 382.6 529.2 383.5 529.2 384.3 529.2 385.2 529.2 386.1 529.2 387 529.2 387.9 529.2 388.8 529.2 389.7 529.2 390.5 529.2 391.4 529.2 392.3 529.2 393.2 529.2 394.1 529.2 395 529.2 395.9 529.2 396.7 529.2 397.6 529.2 398.5 529.2 399.4 529.2 400.3 529.2 401.2 529.2 402.1 529.2 402.9 529.2 403.8 529.2 404.7 529.2 405.6 529.2 406.5 529.2 407.4 529.2 408.3 529.2 409.1 529.2 410 529.2 410.9 529.2 411.8 529.2 412.7 529.2 413.6 529.2 414.5 529.2 415.3 529.2 416.2 529.2 417.1 529.2 418 529.2 418.9 529.2 419.8 529.2 420.7 529.2 421.5 529.2 422.4 529.2 423.3 529.2 424.2 529.2 425.1 529.2 426 529.2 426.9 529.2 427.7 529.2 428.6 529.2 429.5 529.2 430.4 529.2 431.3 529.2 432.2 529.2 433.1 529.2 433.9 529.2 434.8 529.2 435.7 529.2 436.6 529.2 437.5 529.2 438.4 529.2 439.2 529.2 440.1 529.2 441 529.2 441.9 529.2 442.8 529.2 443.7 529.2 444.6 529.2 445.5 529.2 446.3 529.2 447.2 529.2 448.1 529.2 449 529.2 449.9 529.2 450.8 529.2 451.6 529.2 452.5 529.2 453.4 529.2 454.3 529.2 455.2 529.2 456.1 529.2 457 529.2 457.9 529.2 458.7 529.2 459.6 529.2 460.5 529.2 461.4 529.2 462.3 529.2 463.2 529.2 464 529.2 464.9 529.2 465.8 529.2 466.7 529.2 467.6 529.2 468.5 529.2 469.4 529.2 470.2 529.2 471.1 529.2 472 529.2 472.9 529.2"/>
    </g>
  </g>
  <g class="st30">
    <g>
      <text class="st12" transform="translate(344.3 533.2)"><tspan x="0" y="0">0.00</tspan></text>
      <text class="st12" transform="translate(344.3 503.6)"><tspan x="0" y="0">0.25</tspan></text>
      <text class="st12" transform="translate(344.3 474.1)"><tspan x="0" y="0">0.50</tspan></text>
      <text class="st12" transform="translate(344.3 444.6)"><tspan x="0" y="0">0.75</tspan></text>
      <text class="st12" transform="translate(344.3 415)"><tspan x="0" y="0">1.00</tspan></text>
      <text class="st12" transform="translate(372.4 547.9)"><tspan x="0" y="0">0</tspan></text>
      <text class="st12" transform="translate(408.5 547.9)"><tspan x="0" y="0">0.5K</tspan></text>
      <text class="st12" transform="translate(460.4 547.9)"><tspan x="0" y="0">K</tspan></text>
      <text class="st7" transform="translate(372.5 562.3)"><tspan x="0" y="0">local EGC density</tspan></text>
      <text class="st7" transform="translate(370.6 397)"><tspan x="0" y="0">J. α = 5.0K</tspan></text>
    </g>
  </g>
  <rect class="st15" x="510.3" y="398.6" width="180" height="108"/>
  <rect class="st15" x="503.4" y="279.7" width="180" height="108"/>
  <rect class="st15" x="505.1" y="279.9" width="180" height="108"/>
  <rect class="st15" x="508.3" y="396.1" width="180" height="108"/>
  <rect class="st46" x="498.1" y="248.6" width="184.4" height="266.9"/>
  <rect class="st15" x="500.8" y="283.2" width="180" height="108"/>
  <g class="st8">
    <text class="st9" transform="translate(566.3 268.5)"><tspan x="0" y="0">Legend</tspan></text>
  </g>
  <rect class="st15" x="502.5" y="283.4" width="180" height="108"/>
  <rect class="st15" x="500.8" y="402.6" width="180" height="108"/>
  <g class="st45">
    <g>
      <line class="st17" x1="537.8" y1="457.8" x2="598" y2="457.8"/>
      <line class="st17" x1="565.4" y1="484.1" x2="565.4" y2="431.6"/>
      <line class="st23" x1="537.8" y1="434" x2="598" y2="434"/>
      <line class="st23" x1="537.8" y1="481.6" x2="598" y2="481.6"/>
      <line class="st23" x1="540.5" y1="484.1" x2="540.5" y2="431.6"/>
      <line class="st23" x1="590.2" y1="484.1" x2="590.2" y2="431.6"/>
      <polyline class="st21" points="540.5 434 541 435.8 541.5 437.6 542 439.4 542.5 441 543 442.6 543.5 444.2 544 445.6 544.5 447.1 545 448.4 545.5 449.7 546 451 546.5 452.2 547 453.4 547.5 454.5 548 455.6 548.4 456.6 548.9 457.6 549.4 458.5 549.9 459.4 550.4 460.3 550.9 461.2 551.4 462 551.9 462.7 552.4 463.5 552.9 464.2 553.4 464.9 553.9 465.6 554.4 466.2 554.9 466.8 555.4 467.4 555.9 468 556.4 468.5 556.9 469 557.4 469.5 557.9 470 558.4 470.5 558.9 470.9 559.4 471.4 559.9 471.8 560.4 472.2 560.9 472.5 561.4 472.9 561.9 473.3 562.4 473.6 562.9 473.9 563.4 474.2 563.9 474.5 564.4 474.8 564.9 475.1 565.4 475.3 565.9 475.6 566.4 475.8 566.9 476.1 567.4 476.3 567.9 476.5 568.4 476.7 568.8 476.9 569.3 477.1 569.8 477.3 570.3 477.5 570.8 477.7 571.3 477.8 571.8 478 572.3 478.1 572.8 478.3 573.3 478.4 573.8 478.5 574.3 478.7 574.8 478.8 575.3 478.9 575.8 479 576.3 479.1 576.8 479.2 577.3 479.3 577.8 479.4 578.3 479.5 578.8 479.6 579.3 479.7 579.8 479.8 580.3 479.9 580.8 480 581.3 480 581.8 480.1 582.3 480.2 582.8 480.2 583.3 480.3 583.8 480.4 584.3 480.4 584.8 480.5 585.3 480.5 585.8 480.6 586.3 480.6 586.8 480.7 587.3 480.7 587.8 480.8 588.3 480.8 588.8 480.8 589.3 480.9 589.7 480.9 590.2 481 590.7 481 591.2 481 591.7 481.1 592.2 481.1 592.7 481.1 593.2 481.1 593.7 481.2 594.2 481.2 594.7 481.2 595.2 481.2"/>
      <polyline class="st14" points="540.5 434.1 541 434.1 541.5 434.1 542 434.1 542.5 434.2 543 434.2 543.5 434.2 544 434.3 544.5 434.3 545 434.4 545.5 434.5 546 434.6 546.5 434.7 547 434.8 547.5 434.9 548 435 548.4 435.2 548.9 435.4 549.4 435.6 549.9 435.9 550.4 436.2 550.9 436.6 551.4 437 551.9 437.4 552.4 437.9 552.9 438.5 553.4 439.2 553.9 439.9 554.4 440.7 554.9 441.6 555.4 442.7 555.9 443.8 556.4 445 556.9 446.3 557.4 447.7 557.9 449.3 558.4 450.9 558.9 452.5 559.4 454.3 559.9 456 560.4 457.8 560.9 459.6 561.4 461.4 561.9 463.1 562.4 464.8 562.9 466.4 563.4 467.9 563.9 469.3 564.4 470.6 564.9 471.9 565.4 473 565.9 474 566.4 474.9 566.9 475.7 567.4 476.5 567.9 477.1 568.4 477.7 568.8 478.2 569.3 478.7 569.8 479.1 570.3 479.4 570.8 479.7 571.3 480 571.8 480.2 572.3 480.4 572.8 480.6 573.3 480.7 573.8 480.9 574.3 481 574.8 481.1 575.3 481.2 575.8 481.2 576.3 481.3 576.8 481.3 577.3 481.4 577.8 481.4 578.3 481.5 578.8 481.5 579.3 481.5 579.8 481.5 580.3 481.6 580.8 481.6 581.3 481.6 581.8 481.6 582.3 481.6 582.8 481.6 583.3 481.6 583.8 481.6 584.3 481.6 584.8 481.7 585.3 481.7 585.8 481.7 586.3 481.7 586.8 481.7 587.3 481.7 587.8 481.7 588.3 481.7 588.8 481.7 589.3 481.7 589.7 481.7 590.2 481.7 590.7 481.7 591.2 481.7 591.7 481.7 592.2 481.7 592.7 481.7 593.2 481.7 593.7 481.7 594.2 481.7 594.7 481.7 595.2 481.7"/>
    </g>
  </g>
  <rect class="st15" x="500.8" y="402.6" width="180" height="108"/>
  <text class="st11" transform="translate(529.3 436.2)"><tspan x="0" y="0">0</tspan></text>
  <text class="st11" transform="translate(518.2 483.9)"><tspan x="0" y="0">-0.98</tspan></text>
  <text class="st11" transform="translate(538.7 493.6)"><tspan x="0" y="0">0</tspan></text>
  <text class="st11" transform="translate(588.1 493.6)"><tspan x="0" y="0">K</tspan></text>
  <text class="st10" transform="translate(530.3 503.4)"><tspan x="0" y="0">local EGC density (s)</tspan></text>
  <text class="st10" transform="translate(512.1 498) rotate(-90)"><tspan x="0" y="0">weighted value (</tspan></text>
  <text class="st10" transform="translate(512.1 439.8) rotate(-90)"><tspan x="0" y="0">w</tspan></text>
  <text class="st6" transform="translate(513.6 434) rotate(-90)"><tspan x="0" y="0">d</tspan></text>
  <text class="st10" transform="translate(512.1 428.7) rotate(-90)"><tspan x="0" y="0">V</tspan></text>
  <text class="st6" transform="translate(513.6 423.4) rotate(-90)"><tspan x="0" y="0">d</tspan></text>
  <text class="st10" transform="translate(512.1 420.3) rotate(-90)"><tspan x="0" y="0">)</tspan></text>
  <line class="st21" x1="611.1" y1="455.6" x2="624.9" y2="455.6"/>
  <line class="st14" x1="611.1" y1="472.9" x2="624.9" y2="472.9"/>
  <text class="st10" transform="translate(632.2 457.9)"><tspan x="0" y="0">exponential</tspan></text>
  <text class="st10" transform="translate(632.2 475.2)"><tspan x="0" y="0">sigmoidal</tspan></text>
  <text class="st5" transform="translate(531.3 414.5)"><tspan x="0" y="0">Ecological change</tspan></text>
  <text class="st5" transform="translate(552.1 424.2)"><tspan x="0" y="0">function</tspan></text>
  <rect class="st15" x="500.8" y="286.7" width="180" height="108"/>
  <g class="st33">
    <g>
      <line class="st17" x1="537.8" y1="342" x2="604.4" y2="342"/>
      <line class="st17" x1="571.1" y1="368.2" x2="571.1" y2="315.7"/>
      <line class="st23" x1="537.8" y1="318.1" x2="604.4" y2="318.1"/>
      <line class="st23" x1="537.8" y1="365.8" x2="604.4" y2="365.8"/>
      <line class="st23" x1="540.8" y1="368.2" x2="540.8" y2="315.7"/>
      <line class="st23" x1="601.3" y1="368.2" x2="601.3" y2="315.7"/>
      <polyline class="st19" points="540.8 318.1 541.4 318.6 542 319.1 542.6 319.5 543.2 320 543.8 320.5 544.4 321 545 321.5 545.6 321.9 546.2 322.4 546.8 322.9 547.4 323.4 548 323.8 548.6 324.3 549.3 324.8 549.9 325.3 550.5 325.7 551.1 326.2 551.7 326.7 552.3 327.2 552.9 327.7 553.5 328.1 554.1 328.6 554.7 329.1 555.3 329.6 555.9 330 556.5 330.5 557.1 331 557.7 331.5 558.3 332 558.9 332.4 559.5 332.9 560.2 333.4 560.8 333.9 561.4 334.3 562 334.8 562.6 335.3 563.2 335.8 563.8 336.2 564.4 336.7 565 337.2 565.6 337.7 566.2 338.2 566.8 338.6 567.4 339.1 568 339.6 568.6 340.1 569.2 340.5 569.8 341 570.4 341.5 571.1 342 571.7 342.5 572.3 342.9 572.9 343.4 573.5 343.9 574.1 344.4 574.7 344.8 575.3 345.3 575.9 345.8 576.5 346.3 577.1 346.8 577.7 347.2 578.3 347.7 578.9 348.2 579.5 348.7 580.1 349.1 580.7 349.6 581.3 350.1 582 350.6 582.6 351 583.2 351.5 583.8 352 584.4 352.5 585 353 585.6 353.4 586.2 353.9 586.8 354.4 587.4 354.9 588 355.3 588.6 355.8 589.2 356.3 589.8 356.8 590.4 357.3 591 357.7 591.6 358.2 592.2 358.7 592.9 359.2 593.5 359.6 594.1 360.1 594.7 360.6 595.3 361.1 595.9 361.5 596.5 362 597.1 362.5 597.7 363 598.3 363.5 598.9 363.9 599.5 364.4 600.1 364.9 600.7 365.4 601.3 365.8"/>
      <polyline class="st20" points="540.8 318.1 541.4 318.1 542 318.1 542.6 318.1 543.2 318.1 543.8 318.1 544.4 318.1 545 318.1 545.6 318.1 546.2 318.1 546.8 318.1 547.4 318.1 548 318.1 548.6 318.1 549.3 318.1 549.9 318.1 550.5 318.1 551.1 318.2 551.7 318.2 552.3 318.2 552.9 318.2 553.5 318.2 554.1 318.2 554.7 318.2 555.3 318.3 555.9 318.3 556.5 318.3 557.1 318.4 557.7 318.4 558.3 318.4 558.9 318.5 559.5 318.6 560.2 318.6 560.8 318.7 561.4 318.7 562 318.8 562.6 318.9 563.2 319 563.8 319.1 564.4 319.2 565 319.3 565.6 319.5 566.2 319.6 566.8 319.7 567.4 319.9 568 320.1 568.6 320.2 569.2 320.4 569.8 320.6 570.4 320.9 571.1 321.1 571.7 321.3 572.3 321.6 572.9 321.9 573.5 322.2 574.1 322.5 574.7 322.8 575.3 323.1 575.9 323.5 576.5 323.9 577.1 324.3 577.7 324.7 578.3 325.2 578.9 325.6 579.5 326.1 580.1 326.6 580.7 327.2 581.3 327.7 582 328.3 582.6 328.9 583.2 329.6 583.8 330.2 584.4 330.9 585 331.7 585.6 332.4 586.2 333.2 586.8 334 587.4 334.9 588 335.8 588.6 336.7 589.2 337.7 589.8 338.7 590.4 339.7 591 340.8 591.6 341.9 592.2 343 592.9 344.2 593.5 345.5 594.1 346.7 594.7 348.1 595.3 349.4 595.9 350.8 596.5 352.3 597.1 353.8 597.7 355.4 598.3 357 598.9 358.7 599.5 360.4 600.1 362.1 600.7 364 601.3 365.8"/>
    </g>
  </g>
  <rect class="st15" x="500.8" y="286.7" width="180" height="108"/>
  <text class="st11" transform="translate(529.3 320.4)"><tspan x="0" y="0">0</tspan></text>
  <text class="st11" transform="translate(518.2 368.1)"><tspan x="0" y="0">-0.02</tspan></text>
  <text class="st11" transform="translate(539 377.7)"><tspan x="0" y="0">0</tspan></text>
  <text class="st11" transform="translate(599.6 377.7)"><tspan x="0" y="0">1</tspan></text>
  <text class="st10" transform="translate(540.7 387.6)"><tspan x="0" y="0">removal</tspan><tspan class="st32" x="28.5" y="0"> </tspan><tspan x="30.6" y="0">effort</tspan><tspan class="st36" x="48.8" y="0"> </tspan><tspan x="51" y="0">(a)</tspan></text>
  <text class="st10" transform="translate(512.1 381.9) rotate(-90)"><tspan x="0" y="0">weighted value (</tspan></text>
  <text class="st10" transform="translate(512.1 323.6) rotate(-90)"><tspan x="0" y="0">w</tspan></text>
  <text class="st6" transform="translate(513.6 317.8) rotate(-90)"><tspan x="0" y="0">c</tspan></text>
  <text class="st10" transform="translate(512.1 312.9) rotate(-90)"><tspan x="0" y="0">V</tspan></text>
  <text class="st6" transform="translate(513.6 307.5) rotate(-90)"><tspan x="0" y="0">c</tspan></text>
  <text class="st10" transform="translate(512.1 304.7) rotate(-90)"><tspan x="0" y="0">)</tspan></text>
  <line class="st19" x1="614.5" y1="339.8" x2="628.3" y2="339.8"/>
  <line class="st20" x1="614.5" y1="357.1" x2="628.3" y2="357.1"/>
  <text class="st10" transform="translate(635.6 342.1)"><tspan x="0" y="0">linear</tspan></text>
  <text class="st10" transform="translate(635.6 359.4)"><tspan x="0" y="0">nonlinear</tspan></text>
  <text class="st5" transform="translate(543.8 298.6)"><tspan x="0" y="0">Removal cost</tspan></text>
  <text class="st5" transform="translate(555.3 308.4)"><tspan x="0" y="0">function</tspan></text>
</svg>